<?xml version="1.0" encoding="UTF-8"?>
<svg version="1.1" xmlns="http://www.w3.org/2000/svg" width="2000" height="1500">
<path d="M0 0 C660 0 1320 0 2000 0 C2000 495 2000 990 2000 1500 C1340 1500 680 1500 0 1500 C0 1005 0 510 0 0 Z " fill="#FEFEFE" transform="translate(0,0)"/>
<path d="M0 0 C1.69400913 0.03261892 3.38801942 0.06517772 5.08203125 0.09765625 C44.8613276 1.21524104 85.41542038 12.53748108 121 30 C121.72445313 30.35529785 122.44890625 30.7105957 123.1953125 31.07666016 C156.01669431 47.3903788 187.15865804 71.05552853 211 99 C212.25296875 100.42119141 212.25296875 100.42119141 213.53125 101.87109375 C226.49025409 116.68946394 237.32636583 132.88158926 247 150 C247.47179688 150.83370117 247.94359375 151.66740234 248.4296875 152.52636719 C272.90531787 196.28838862 284.17692887 245.26247952 284.3125 295.1875 C284.31626648 295.94674774 284.32003296 296.70599548 284.32391357 297.48825073 C284.36781251 314.87246689 282.23397972 331.93664007 279 349 C278.85256348 349.79760742 278.70512695 350.59521484 278.55322266 351.41699219 C266.87591264 412.91345797 232.1278739 473.68418679 184 514 C183.43764648 514.47469727 182.87529297 514.94939453 182.29589844 515.43847656 C120.81540835 567.13871077 42.7865058 591.89321401 -37.20556641 585.22631836 C-93.74830533 579.71900813 -147.81035647 557.61637765 -192 522 C-192.86117432 521.30656494 -192.86117432 521.30656494 -193.73974609 520.59912109 C-200.51833012 515.09466166 -206.98050819 509.25650934 -213.375 503.3125 C-214.02927979 502.70680176 -214.68355957 502.10110352 -215.35766602 501.47705078 C-219.87952169 497.22545766 -223.96959699 492.7153434 -228 488 C-228.94850848 486.92790375 -229.8989147 485.8574823 -230.8515625 484.7890625 C-244.10883201 469.74934271 -255.11347562 453.41796332 -265 436 C-265.43940918 435.23107422 -265.87881836 434.46214844 -266.33154297 433.66992188 C-273.3875357 421.1983679 -278.84116894 408.22392241 -283.921875 394.83837891 C-284.84819072 392.39966818 -285.79574168 389.97081347 -286.75 387.54296875 C-294.89244997 366.30213037 -298.34594732 343.48467308 -301 321 C-301.1038501 320.1241626 -301.2077002 319.2483252 -301.31469727 318.34594727 C-309.08510963 244.20180553 -284.56763739 167.68170198 -238 110 C-234.42304962 105.58666028 -230.75931508 101.25896248 -227 97 C-226.52739746 96.4642334 -226.05479492 95.9284668 -225.56787109 95.37646484 C-192.56699212 58.23257068 -149.67832497 31.46167094 -103 15 C-102.32227539 14.75942871 -101.64455078 14.51885742 -100.94628906 14.27099609 C-68.41211442 2.91818502 -34.2743833 -1.03796579 0 0 Z " fill="#000000" transform="translate(1009,457)"/>
<path d="M0 0 C0.75418213 0.0012085 1.50836426 0.00241699 2.28540039 0.00366211 C58.55716999 0.24583095 109.54298812 23.46556083 149.5 62.4375 C176.06977268 89.74172168 194.31278322 124.54699727 202.9375 161.5 C203.23575684 162.7681958 203.23575684 162.7681958 203.54003906 164.06201172 C206.55665226 177.68333977 207.6008856 191.27213826 207.5625 205.1875 C207.56168427 206.31578217 207.56168427 206.31578217 207.56085205 207.46685791 C207.37682134 263.3989448 183.9666683 314.92103007 145.125 354.6875 C140.08063605 359.60375312 134.75099924 364.05986051 129.1875 368.375 C128.65592285 368.79362305 128.1243457 369.21224609 127.57666016 369.64355469 C84.393038 403.4634132 28.77531643 417.82597341 -25.5065918 411.59912109 C-29.6462692 411.0194933 -33.72530518 410.24746794 -37.8125 409.375 C-39.2351416 409.07698486 -39.2351416 409.07698486 -40.68652344 408.77294922 C-60.96875612 404.4014961 -79.54503604 397.12410809 -97.8125 387.375 C-99.56433594 386.45460938 -99.56433594 386.45460938 -101.3515625 385.515625 C-124.11902308 373.07832148 -144.96078719 354.81257621 -160.8125 334.375 C-161.23112305 333.84342285 -161.64974609 333.3118457 -162.08105469 332.76416016 C-195.10772603 290.59333629 -209.85651966 235.90577442 -204.31640625 182.71484375 C-203.69252055 177.89028405 -202.81876656 173.1332998 -201.8125 168.375 C-201.53913818 167.07079102 -201.53913818 167.07079102 -201.26025391 165.74023438 C-189.11414914 109.11929485 -156.19920791 62.48812638 -107.70947266 31.00976562 C-87.92631505 18.49150368 -66.44044289 9.93546664 -43.6875 4.625 C-42.84203613 4.42616211 -41.99657227 4.22732422 -41.12548828 4.02246094 C-27.50540025 1.00612235 -13.91451455 -0.04184117 0 0 Z " fill="#000000" transform="translate(998.8125,543.625)"/>
<path d="M0 0 C2.25169944 1.70409226 4.37492669 3.4868534 6.484375 5.36328125 C7.08765625 5.86214844 7.6909375 6.36101563 8.3125 6.875 C17.86490885 15.41623043 23.85198212 28.50340672 24.75686646 41.1809082 C24.87099237 44.83414639 24.87962325 48.48615859 24.86450005 52.14091873 C24.8552661 54.58089203 24.86574949 57.02011688 24.88111877 59.46005249 C24.92089325 66.38839807 24.92242069 73.31667623 24.92016602 80.24511719 C24.9201147 84.50493866 24.9393781 88.76435038 24.96949959 93.0240593 C24.98023693 95.41326098 24.96825255 97.80165188 24.95567322 100.19082642 C24.97765902 109.20998661 25.58586244 116.60011805 31.4921875 123.81640625 C38.25777125 129.5584146 44.82431154 133.95587332 53.734375 135.23828125 C58.50700775 136.01242483 60.53722299 137.82069943 63.42578125 141.609375 C66.13473276 146.09763784 65.70413212 150.73887938 65.734375 155.80078125 C65.7653125 157.08952148 65.7653125 157.08952148 65.796875 158.40429688 C65.80460937 159.65049805 65.80460937 159.65049805 65.8125 160.921875 C65.8218457 161.67782959 65.83119141 162.43378418 65.84082031 163.21264648 C65.35781623 166.12688141 64.60746855 167.28724531 62.484375 169.36328125 C59.87892284 169.7648903 57.69016046 169.90385246 55.08251953 169.87121582 C54.32253222 169.87745578 53.5625449 169.88369575 52.77952766 169.8901248 C50.22510154 169.90611892 47.67162121 169.89342607 45.1171875 169.88085938 C43.28911785 169.88627766 41.46105257 169.89339867 39.63299561 169.90209961 C34.66194756 169.92037082 29.69123071 169.91324979 24.7201767 169.90058327 C19.52454213 169.89047524 14.32893643 169.89984282 9.13330078 169.90612793 C0.40717462 169.91341075 -8.31881624 169.90379998 -17.04492188 169.88476562 C-27.14189687 169.8629957 -37.23854881 169.87004662 -47.33551598 169.89207125 C-55.99545246 169.91020716 -64.65529153 169.91279243 -73.31524086 169.90231657 C-78.49144412 169.89607168 -83.6674954 169.89527329 -88.84368896 169.90846252 C-93.70945146 169.91999411 -98.57479636 169.91204469 -103.44051361 169.8888855 C-105.22918758 169.88358398 -107.01789652 169.88513673 -108.8065567 169.89393616 C-111.24277316 169.90481875 -113.67763981 169.89121794 -116.11376953 169.87121582 C-116.82670103 169.88013871 -117.53963253 169.88906159 -118.27416801 169.89825487 C-121.5043895 169.84657908 -123.09823805 169.77247535 -125.45397949 167.46297455 C-126.63517525 165.12683806 -126.90209103 163.63427286 -126.9140625 161.02734375 C-126.91792969 160.21007812 -126.92179688 159.3928125 -126.92578125 158.55078125 C-126.91417969 157.70515625 -126.90257812 156.85953125 -126.890625 155.98828125 C-126.90222656 155.15039062 -126.91382813 154.3125 -126.92578125 153.44921875 C-126.89449619 146.81678684 -125.57932573 142.57798447 -120.953125 137.61328125 C-118.31412395 135.55278043 -116.11407097 134.95257576 -112.828125 134.42578125 C-103.90305146 132.96067129 -96.82414528 128.46462218 -90.953125 121.68359375 C-86.05913778 113.78406002 -86.09783385 106.19676284 -86.13549995 97.21029091 C-86.14470088 94.80725878 -86.13428331 92.40499219 -86.11888123 90.0019989 C-86.07904231 83.17492727 -86.0775662 76.34792063 -86.07983398 69.52075195 C-86.07988553 65.32920788 -86.06049683 61.13807629 -86.03050041 56.94664574 C-86.01981774 54.60194401 -86.031721 52.25807947 -86.04432678 49.91340637 C-86.00293935 33.45774258 -81.29972732 19.31693399 -69.953125 7.11328125 C-50.86758278 -10.92647783 -22.44620938 -14.60397784 0 0 Z " fill="#000000" transform="translate(1030.515625,662.63671875)"/>
<path d="M0 0 C0.75418213 0.0012085 1.50836426 0.00241699 2.28540039 0.00366211 C58.55716999 0.24583095 109.54298812 23.46556083 149.5 62.4375 C176.06977268 89.74172168 194.31278322 124.54699727 202.9375 161.5 C203.23575684 162.7681958 203.23575684 162.7681958 203.54003906 164.06201172 C206.55665226 177.68333977 207.6008856 191.27213826 207.5625 205.1875 C207.56168427 206.31578217 207.56168427 206.31578217 207.56085205 207.46685791 C207.37682134 263.3989448 183.9666683 314.92103007 145.125 354.6875 C140.08063605 359.60375312 134.75099924 364.05986051 129.1875 368.375 C128.65592285 368.79362305 128.1243457 369.21224609 127.57666016 369.64355469 C84.393038 403.4634132 28.77531643 417.82597341 -25.5065918 411.59912109 C-29.6462692 411.0194933 -33.72530518 410.24746794 -37.8125 409.375 C-39.2351416 409.07698486 -39.2351416 409.07698486 -40.68652344 408.77294922 C-60.96875612 404.4014961 -79.54503604 397.12410809 -97.8125 387.375 C-99.56433594 386.45460938 -99.56433594 386.45460938 -101.3515625 385.515625 C-124.11902308 373.07832148 -144.96078719 354.81257621 -160.8125 334.375 C-161.23112305 333.84342285 -161.64974609 333.3118457 -162.08105469 332.76416016 C-195.10772603 290.59333629 -209.85651966 235.90577442 -204.31640625 182.71484375 C-203.69252055 177.89028405 -202.81876656 173.1332998 -201.8125 168.375 C-201.53913818 167.07079102 -201.53913818 167.07079102 -201.26025391 165.74023438 C-189.11414914 109.11929485 -156.19920791 62.48812638 -107.70947266 31.00976562 C-87.92631505 18.49150368 -66.44044289 9.93546664 -43.6875 4.625 C-42.84203613 4.42616211 -41.99657227 4.22732422 -41.12548828 4.02246094 C-27.50540025 1.00612235 -13.91451455 -0.04184117 0 0 Z M-115.8125 53.375 C-116.37839844 53.81247559 -116.94429687 54.24995117 -117.52734375 54.70068359 C-137.13377333 70.1048958 -153.53398388 88.66937671 -165.8125 110.375 C-166.20147461 111.05336914 -166.59044922 111.73173828 -166.99121094 112.43066406 C-191.64730992 155.83386719 -197.92799325 208.57691268 -185 256.875 C-184.30316214 259.05227937 -183.57138555 261.21856285 -182.8125 263.375 C-182.57160645 264.07963379 -182.33071289 264.78426758 -182.08251953 265.51025391 C-172.50838926 293.38838584 -158.62302646 317.55454318 -138.22460938 338.89550781 C-137.2881544 339.8766484 -136.35707769 340.86295247 -135.43164062 341.85449219 C-123.62798027 354.48224449 -109.84712484 364.87411399 -94.8125 373.375 C-94.19503906 373.73013672 -93.57757812 374.08527344 -92.94140625 374.45117188 C-51.35388558 398.20958715 0.90191919 405.79300578 47.39355469 393.52929688 C96.67644021 379.99051643 140.12065351 350.14889026 166.36328125 305.5859375 C166.96527344 304.52632812 167.56726562 303.46671875 168.1875 302.375 C168.84105469 301.25351562 169.49460937 300.13203125 170.16796875 298.9765625 C179.75085179 282.10225466 185.94119586 263.25472148 190.1875 244.375 C190.46980469 243.18519531 190.75210937 241.99539063 191.04296875 240.76953125 C198.52034152 205.81615742 193.31431531 164.8958596 179.1875 132.375 C178.86410645 131.62943848 178.54071289 130.88387695 178.20751953 130.11572266 C168.90066915 108.98982312 156.53511123 90.52632412 140.59960938 73.85449219 C139.6631544 72.8733516 138.73207769 71.88704753 137.80664062 70.89550781 C125.99741178 58.26179825 112.21772422 47.89565528 97.1875 39.375 C96.59130859 39.02518066 95.99511719 38.67536133 95.38085938 38.31494141 C78.24131924 28.3021668 58.7102275 21.02864366 39.1875 17.375 C38.02927734 17.15505371 38.02927734 17.15505371 36.84765625 16.93066406 C-16.89394095 7.18423555 -72.57751466 19.94460815 -115.8125 53.375 Z " fill="#F9F9F9" transform="translate(998.8125,543.625)"/>
<path d="M0 0 C4.71938934 3.46358617 8.10637051 7.71801654 9.8203125 13.3359375 C9.95741468 15.98200959 10.01094222 18.51062763 9.9453125 21.1484375 C9.93628906 21.84130859 9.92726563 22.53417969 9.91796875 23.24804688 C9.89457407 24.94416145 9.85870891 26.64009621 9.8203125 28.3359375 C10.41457031 28.47128906 11.00882813 28.60664062 11.62109375 28.74609375 C28.58374587 33.15163481 40.70466738 45.52035127 49.51171875 60.14453125 C56.43391221 72.93063798 58.41646271 86.10121999 58.27560234 100.39409447 C58.25323872 102.7620879 58.2575782 105.12883832 58.26808167 107.49690247 C58.28946449 113.35978274 58.27228401 119.22235983 58.24658203 125.08520508 C58.22516646 130.08217278 58.22320742 135.07832728 58.24949837 140.07528114 C58.25383037 142.40067297 58.22929833 144.72462183 58.20396423 147.04985046 C58.20923348 148.47358844 58.21595492 149.89732204 58.22436523 151.32104492 C58.21896225 152.55851974 58.21355927 153.79599457 58.20799255 155.07096863 C59.19846892 160.35231627 62.56235423 162.47109119 66.8203125 165.3984375 C70.1599677 167.23269014 73.59814702 168.1828465 77.2578125 169.2109375 C85.93344662 171.80765826 90.73737682 174.96635225 95.2578125 182.8984375 C98.8265895 189.75399005 99.05339459 196.06137998 99.1328125 203.6484375 C99.16181641 204.56044922 99.19082031 205.47246094 99.22070312 206.41210938 C99.28789588 213.62240853 97.85454428 218.88915666 93.0390625 224.359375 C92.471875 224.80539062 91.9046875 225.25140625 91.3203125 225.7109375 C90.753125 226.17242188 90.1859375 226.63390625 89.6015625 227.109375 C85.55117015 229.89846096 82.72711702 230.58348628 77.76660156 230.56298828 C76.54563782 230.56283722 75.32467407 230.56268616 74.06671143 230.56253052 C72.75305603 230.55220795 71.43940063 230.54188538 70.0859375 230.53125 C68.72402148 230.52751792 67.36210277 230.52467187 66.00018311 230.52267456 C62.42283664 230.51505344 58.84565365 230.49541819 55.26837158 230.4732666 C51.6151348 230.45277528 47.96187149 230.44366583 44.30859375 230.43359375 C37.14575897 230.41217072 29.98305867 230.37805332 22.8203125 230.3359375 C22.8318335 231.43446045 22.84335449 232.5329834 22.85522461 233.66479492 C22.76929137 242.70100606 18.6385573 249.75569036 12.41796875 256.09765625 C4.15052058 263.22133716 -3.82746382 265.34438584 -14.47265625 264.72265625 C-25.09563294 263.61446374 -33.1249969 258.68509176 -39.859375 250.38671875 C-43.9738034 243.99596457 -45.27334866 237.83323753 -45.1796875 230.3359375 C-46.29935913 230.35259209 -46.29935913 230.35259209 -47.44165039 230.36958313 C-54.50282102 230.47008977 -61.56374069 230.54605585 -68.62542725 230.59499836 C-72.25531724 230.62100725 -75.88461242 230.65624209 -79.51416016 230.71313477 C-83.02202127 230.76777107 -86.52931311 230.79742342 -90.03756714 230.81032372 C-92.01620277 230.82395365 -93.99461179 230.86293655 -95.97290039 230.90242004 C-104.37365783 230.90501912 -109.63757984 229.78129232 -115.69042969 223.8573761 C-123.06029728 215.63840098 -121.91726217 205.34711914 -121.42675781 194.95654297 C-120.9108871 189.4848471 -119.07573931 185.01294084 -116.1796875 180.3359375 C-115.62087891 179.40974609 -115.62087891 179.40974609 -115.05078125 178.46484375 C-111.8819045 174.0372494 -107.1351658 171.34988399 -102.1796875 169.3359375 C-98.3046875 168.9609375 -98.3046875 168.9609375 -96.3671875 168.8359375 C-90.501702 167.4952551 -84.47815704 163.2836418 -81.1796875 158.3359375 C-80.86986304 155.22594345 -80.86986304 155.22594345 -80.90844727 151.62402344 C-80.90060715 150.60612228 -80.90060715 150.60612228 -80.89260864 149.56765747 C-80.88236725 148.0928351 -80.87658799 146.61797657 -80.87472725 145.14311981 C-80.8710536 142.79464597 -80.85429234 140.44659079 -80.83396912 138.09820557 C-80.77870592 131.42036825 -80.74814014 124.74246557 -80.72338867 118.06445312 C-80.70732439 113.97595093 -80.67689614 109.88773633 -80.63862419 105.79938507 C-80.62711882 104.25438798 -80.62104513 102.70933894 -80.62094307 101.16429901 C-80.61976844 88.09480269 -79.87631139 74.75215211 -73.4921875 63.0234375 C-73.14406006 62.35957031 -72.79593262 61.69570313 -72.43725586 61.01171875 C-65.90672315 48.93456539 -56.80271229 39.79230756 -44.9921875 32.8984375 C-44.41001465 32.55603027 -43.8278418 32.21362305 -43.22802734 31.86083984 C-39.56400642 29.81461706 -36.34598508 28.78481023 -32.1796875 28.3359375 C-32.22609375 27.3459375 -32.2725 26.3559375 -32.3203125 25.3359375 C-32.80060294 10.97088716 -32.80060294 10.97088716 -28.1796875 5.3359375 C-20.34024414 -2.87298782 -10.49884007 -5.99326498 0 0 Z M-52.92578125 56.609375 C-63.36748939 69.24076544 -66.78702266 83.04174431 -66.6655426 99.10927391 C-66.64798133 101.50360076 -66.65594455 103.89675184 -66.6697998 106.29109192 C-66.69489357 111.36862492 -66.68968011 116.44586798 -66.6796875 121.5234375 C-66.66809676 127.42647671 -66.66951259 133.32893075 -66.70375061 139.23189735 C-66.71076966 141.57292829 -66.69427307 143.9129973 -66.67663574 146.25395203 C-66.67908761 155.3975057 -67.36885431 163.40826607 -73.15234375 170.88671875 C-79.98216883 176.64419747 -87.08644325 180.77404431 -95.9921875 182.2109375 C-100.42600078 183.03083475 -102.37110214 185.09045133 -105.0859375 188.58203125 C-107.86148237 193.03281571 -107.39948875 197.71892225 -107.4296875 202.7734375 C-107.4503125 203.63259766 -107.4709375 204.49175781 -107.4921875 205.37695312 C-107.49734375 206.20775391 -107.5025 207.03855469 -107.5078125 207.89453125 C-107.5171582 208.65048584 -107.52650391 209.40644043 -107.53613281 210.18530273 C-107.05312873 213.09953766 -106.30278105 214.25990156 -104.1796875 216.3359375 C-101.57423534 216.73754655 -99.38547296 216.87650871 -96.77783203 216.84387207 C-96.01784472 216.85011203 -95.2578574 216.856352 -94.47484016 216.86278105 C-91.92041404 216.87877517 -89.36693371 216.86608232 -86.8125 216.85351562 C-84.98443035 216.85893391 -83.15636507 216.86605492 -81.32830811 216.87475586 C-76.35726006 216.89302707 -71.38654321 216.88590604 -66.4154892 216.87323952 C-61.21985463 216.86313149 -56.02424893 216.87249907 -50.82861328 216.87878418 C-42.10248712 216.886067 -33.37649626 216.87645623 -24.65039062 216.85742188 C-14.55341563 216.83565195 -4.45676369 216.84270287 5.64020348 216.8647275 C14.30013996 216.88286341 22.95997903 216.88544868 31.61992836 216.87497282 C36.79613162 216.86872793 41.9721829 216.86792954 47.14837646 216.88111877 C52.01413896 216.89265036 56.87948386 216.88470094 61.74520111 216.86154175 C63.53387508 216.85624023 65.32258402 216.85779298 67.1112442 216.86659241 C69.54746066 216.877475 71.98232731 216.86387419 74.41845703 216.84387207 C75.13138853 216.85279496 75.84432003 216.86171784 76.57885551 216.87091112 C79.80954117 216.8192279 81.40269051 216.74578543 83.75767517 214.43463898 C85.62924341 210.73830447 85.29209638 207.09075248 85.2578125 203.0234375 C85.27779297 202.19392578 85.29777344 201.36441406 85.31835938 200.50976562 C85.31296457 193.67454391 83.54607079 189.93242413 79.4140625 184.48046875 C77.16183051 182.86305705 75.03305643 182.54813929 72.3203125 182.0234375 C61.66101574 179.51309587 52.98364454 174.60410599 46.8203125 165.3359375 C44.9769412 160.75669149 44.56978028 156.89584688 44.56494141 151.97631836 C44.55951073 150.90905014 44.55951073 150.90905014 44.55397034 149.82022095 C44.54710706 148.28323073 44.54456511 146.7462163 44.54591751 145.20921135 C44.54688945 142.7644368 44.53385924 140.32009399 44.51693726 137.87538147 C44.47088748 130.92712799 44.44610123 123.97891856 44.43945312 117.03051758 C44.43439556 112.76993138 44.40992924 108.50979425 44.37412643 104.24936104 C44.3644219 102.63851194 44.36194458 101.02760031 44.36729813 99.41673088 C44.42265703 81.92941061 40.40192787 66.97767719 28.0078125 53.9609375 C19.03844353 45.49363608 7.37085198 38.83715713 -5.1796875 38.3359375 C-6.97792969 38.24119141 -6.97792969 38.24119141 -8.8125 38.14453125 C-26.17506954 37.5009296 -40.91518198 43.84690836 -52.92578125 56.609375 Z " fill="#F9F9F9" transform="translate(1011.1796875,615.6640625)"/>
<path d="M0 0 C3.88949634 0.55313379 5.62670023 2.28128993 8.3125 5.0625 C9.49585938 6.28646484 9.49585938 6.28646484 10.703125 7.53515625 C13.26929942 10.28899309 15.7741563 13.08211626 18.2265625 15.9375 C20.27102383 18.31519952 22.35192764 20.65830471 24.4375 23 C25.11683594 23.763125 25.79617188 24.52625 26.49609375 25.3125 C26.99238281 25.869375 27.48867187 26.42625 28 27 C26.43303719 31.51147534 23.9971138 35.2976431 21.375 39.25 C20.38337317 40.76383752 19.39253776 42.27819364 18.40234375 43.79296875 C17.86077637 44.61974121 17.31920898 45.44651367 16.76123047 46.29833984 C13.45680684 51.36719926 10.19835397 56.46554504 6.9375 61.5625 C6.2554248 62.62815186 5.57334961 63.69380371 4.87060547 64.79174805 C-0.47758845 73.15866888 -5.76760057 81.56024035 -11 90 C5.9635317 80.59258372 5.9635317 80.59258372 22.75 70.875 C29.28896448 67.00041955 35.85080099 63.16798397 42.4375 59.375 C43.35692383 58.84116699 44.27634766 58.30733398 45.22363281 57.75732422 C46.07666992 57.2676416 46.92970703 56.77795898 47.80859375 56.2734375 C48.95026001 55.61480713 48.95026001 55.61480713 50.11499023 54.94287109 C52 54 52 54 54 54 C55.48046875 55.50390625 55.48046875 55.50390625 57.1875 57.5625 C59.53279758 60.3253868 61.90829405 62.96679757 64.5 65.5 C69.73162711 70.64933185 74.48221232 76.21723177 79 82 C74.73173127 82 74.06117568 81.62386487 71 79 C70.56357178 79.41137207 70.12714355 79.82274414 69.67749023 80.24658203 C56.8374916 92.34687598 43.9826757 104.43022516 30.9987793 116.3762207 C27.93126053 119.20296535 24.88101081 122.04699715 21.84375 124.90625 C21.13275146 125.575354 20.42175293 126.24445801 19.68920898 126.93383789 C18.30966296 128.23356631 16.93148572 129.53474969 15.55493164 130.83764648 C11.80714102 134.3688073 7.99273618 137.74780222 4 141 C4.62759865 143.92879371 5.58622659 146.36095629 7 149 C4 149 4 149 1.828125 146.9375 C0.97734375 145.968125 0.1265625 144.99875 -0.75 144 C-1.71981501 142.90488502 -2.69126341 141.81121506 -3.6640625 140.71875 C-4.19161133 140.12449219 -4.71916016 139.53023437 -5.26269531 138.91796875 C-7.14781886 136.83680931 -9.07841745 134.80650559 -11.0234375 132.78125 C-12.0429248 131.71583984 -12.0429248 131.71583984 -13.08300781 130.62890625 C-14.42894543 129.22568099 -15.77975952 127.82711455 -17.13574219 126.43359375 C-17.75352539 125.78519531 -18.37130859 125.13679688 -19.0078125 124.46875 C-19.56098145 123.89576172 -20.11415039 123.32277344 -20.68408203 122.73242188 C-22.13277064 120.82520586 -22.58925901 119.34013432 -23 117 C-20.50638429 118.20381448 -18.31856917 119.45428722 -16 121 C-15.38125 120.36384766 -15.38125 120.36384766 -14.75 119.71484375 C-11.59901858 116.51462825 -8.40362098 113.43163447 -5 110.5 C-1.80404653 107.74656316 1.17230063 104.85322821 4.12524414 101.84350586 C5.93223688 100.06663359 7.79344934 98.40563127 9.71484375 96.75390625 C13.93292509 93.08596732 18.00697737 89.28344353 22.0625 85.4375 C23.54140555 84.04008819 25.02057814 82.64295894 26.5 81.24609375 C27.2425 80.54468262 27.985 79.84327148 28.75 79.12060547 C32.34257063 75.73463884 35.95163996 72.36644065 39.5625 69 C40.21162354 68.39470459 40.86074707 67.78940918 41.52954102 67.16577148 C43.01940646 65.77687247 44.50965551 64.38838497 46 63 C26.76139595 73.45141343 7.73646955 84.25237885 -11.14746094 95.33056641 C-15.75593913 98.02765421 -20.37744454 100.70213259 -25 103.375 C-25.81388184 103.84574951 -26.62776367 104.31649902 -27.46630859 104.80151367 C-29.31066727 105.8680306 -31.15529866 106.93407588 -33 108 C-36.60917529 105.08096446 -39.86478257 102.23955656 -42.875 98.6875 C-43.47054688 97.99011719 -44.06609375 97.29273438 -44.6796875 96.57421875 C-45.11539062 96.05472656 -45.55109375 95.53523438 -46 95 C-41.15128882 85.53650668 -35.42963118 76.6682303 -29.72119141 67.70996094 C-26.7084377 62.96647637 -23.728285 58.20267795 -20.75 53.4375 C-20.13382813 52.45177002 -19.51765625 51.46604004 -18.8828125 50.45043945 C-11.53027593 38.66958485 -4.26241804 26.83654564 3 15 C-0.31630087 17.62036745 -3.36653554 20.28036473 -6.3125 23.3125 C-9.77984294 26.82584418 -13.3567164 30.10832987 -17.1015625 33.3203125 C-19.58959026 35.52165393 -21.89194077 37.88088515 -24.21875 40.25 C-26.71896185 42.70634849 -29.37680516 44.96309368 -32.03125 47.25 C-33.93023071 48.93798286 -35.72005988 50.68769734 -37.5 52.5 C-40.45422934 55.50080503 -43.54616079 58.27454415 -46.734375 61.0234375 C-51.22353277 64.93984066 -55.60194516 68.98192417 -60 73 C-58.79618552 75.49361571 -57.54571278 77.68143083 -56 80 C-60 80 -60 80 -62.796875 77.375 C-63.79247817 76.25992445 -64.77652414 75.13444431 -65.75 74 C-66.50990234 73.14148438 -66.50990234 73.14148438 -67.28515625 72.265625 C-68.53341537 70.85250146 -69.76804936 69.42736351 -71 68 C-70.505 67.01 -70.505 67.01 -70 66 C-67 67 -67 67 -65 70 C-62.08676185 68.67590922 -59.94753755 67.22191076 -57.63671875 65.015625 C-57.00483643 64.4172583 -56.3729541 63.8188916 -55.72192383 63.20239258 C-55.05056396 62.55810303 -54.3792041 61.91381348 -53.6875 61.25 C-52.24760028 59.88389906 -50.80749126 58.5180187 -49.3671875 57.15234375 C-48.63854492 56.45866699 -47.90990234 55.76499023 -47.15917969 55.05029297 C-43.89544969 51.95115179 -40.60518212 48.88081809 -37.3125 45.8125 C-36.69262207 45.23395264 -36.07274414 44.65540527 -35.43408203 44.05932617 C-30.97240697 39.89756113 -26.49154472 35.75703793 -22.0012207 31.6262207 C-18.92054803 28.78757725 -15.8579802 25.93084316 -12.80859375 23.05859375 C-12.0930835 22.38497803 -11.37757324 21.7113623 -10.64038086 21.01733398 C-9.24769442 19.70471073 -7.8564997 18.39050236 -6.46704102 17.07446289 C-3.08681382 13.88863393 0.31348953 10.83577728 4 8 C3.71125 7.4225 3.4225 6.845 3.125 6.25 C2.08333333 4.16666667 1.04166667 2.08333333 0 0 Z " fill="#040404" transform="translate(1354,385)"/>
<path d="M0 0 C10.81083285 5.88774589 20.32441722 14.27963686 24.91015625 25.98046875 C27.40760803 35.5204243 25.31105342 43.95378182 20.5390625 52.3828125 C15.38696891 60.05010139 9.47861707 65.69125752 1.5390625 70.3828125 C0.4665625 71.0221875 -0.6059375 71.6615625 -1.7109375 72.3203125 C-9.93379301 74.65012156 -17.90248004 74.57246693 -25.7109375 70.9453125 C-36.66541042 64.70856592 -43.54291956 56.75312356 -48.8359375 45.4453125 C-50.81487932 35.74849758 -49.2326115 28.02497268 -44.4609375 19.3828125 C-34.21829166 4.09528139 -18.79017404 -8.5301425 0 0 Z " fill="#030303" transform="translate(696.4609375,434.6171875)"/>
<path d="M0 0 C0.66 0 1.32 0 2 0 C1.67 2.64 1.34 5.28 1 8 C1.62600098 8.22848633 2.25200195 8.45697266 2.89697266 8.69238281 C12.26922785 12.11581113 21.63529648 15.55598097 31 19 C32.58669495 19.58334106 32.58669495 19.58334106 34.20544434 20.1784668 C41.41119977 22.82816755 48.61520177 25.48257424 55.81756592 28.14147949 C58.26963341 29.04609418 60.7221476 29.94949896 63.17510986 30.85168457 C66.67004624 32.13741868 70.16331957 33.42757798 73.65625 34.71875 C74.71141815 35.10589172 75.7665863 35.49303345 76.85372925 35.89190674 C81.72096481 37.69604664 86.42612617 39.53954443 91 42 C90.02567877 44.98077372 89.04473557 47.95932578 88.0625 50.9375 C87.78470703 51.78763672 87.50691406 52.63777344 87.22070312 53.51367188 C86.95322266 54.32255859 86.68574219 55.13144531 86.41015625 55.96484375 C86.16402588 56.7137085 85.91789551 57.46257324 85.66430664 58.23413086 C85 60 85 60 84 61 C82.47630572 61.31245521 80.94058334 61.56645908 79.40234375 61.796875 C78.39373291 61.94833984 77.38512207 62.09980469 76.34594727 62.25585938 C75.22115967 62.41892578 74.09637207 62.58199219 72.9375 62.75 C71.75663818 62.92337891 70.57577637 63.09675781 69.35913086 63.27539062 C57.75225665 64.94797437 46.11775154 66.38669236 34.47903442 67.81762695 C17.28391753 69.93259641 0.08614793 72.11739645 -17 75 C-16.450522 75.20107864 -15.90104401 75.40215729 -15.33491516 75.60932922 C-8.32650062 78.17448259 -1.31921702 80.74271365 5.6875 83.3125 C6.80224701 83.72128387 7.91699402 84.13006775 9.06552124 84.55123901 C23.68567054 89.91509023 38.28776877 95.3178519 52.82104492 100.91333008 C53.86623291 101.31447021 54.9114209 101.71561035 55.98828125 102.12890625 C56.87040283 102.46994385 57.75252441 102.81098145 58.66137695 103.16235352 C60.76229526 103.91485907 62.82561703 104.5062083 65 105 C65.66 103.02 66.32 101.04 67 99 C68.485 99.495 68.485 99.495 70 100 C69.07633369 102.65143047 68.13705596 105.29535493 67.1875 107.9375 C66.79594727 109.06961914 66.79594727 109.06961914 66.39648438 110.22460938 C65.68489913 112.18366505 64.84938443 114.09663488 64 116 C62.515 116.495 62.515 116.495 61 117 C61.875 111.25 61.875 111.25 63 109 C62.39436722 108.82549316 61.78873444 108.65098633 61.16474915 108.47119141 C55.00874352 106.66544456 48.99064552 104.61492813 42.98046875 102.375 C41.58624947 101.85939514 41.58624947 101.85939514 40.16386414 101.33337402 C37.17058751 100.22533809 34.17901865 99.11277238 31.1875 98 C29.12327211 97.23485746 27.05898136 96.4698845 24.99462891 95.70507812 C12.08077842 90.91534104 -0.81489213 86.07918364 -13.67114258 81.13671875 C-14.73099365 80.73066406 -15.79084473 80.32460938 -16.8828125 79.90625 C-17.78402832 79.55884766 -18.68524414 79.21144531 -19.61376953 78.85351562 C-21.73147905 78.09604555 -23.80849581 77.49676642 -26 77 C-26.66 79.31 -27.32 81.62 -28 84 C-28.99 83.34 -29.98 82.68 -31 82 C-29.26417594 77.04321991 -27.5039157 72.09609225 -25.72045898 67.15625 C-25.11730655 65.47475378 -24.52089394 63.79082405 -23.93139648 62.10449219 C-23.08258126 59.6801217 -22.20986965 57.26555135 -21.33203125 54.8515625 C-21.07347855 54.0963028 -20.81492584 53.34104309 -20.54853821 52.56289673 C-19.42576177 49.5362971 -18.62286606 47.41230261 -15.88037109 45.59692383 C-11.79642148 44.75057218 -7.71895349 44.12373527 -3.58203125 43.59765625 C-2.65942505 43.47528595 -1.73681885 43.35291565 -0.78625488 43.22683716 C2.20417922 42.83217633 5.19576548 42.44716736 8.1875 42.0625 C10.23353097 41.79441681 12.27951076 41.52594267 14.32543945 41.25708008 C26.49051785 39.66718613 38.66193196 38.14746006 50.86206055 36.84985352 C51.79832275 36.74858154 52.73458496 36.64730957 53.69921875 36.54296875 C54.88777466 36.4195813 54.88777466 36.4195813 56.1003418 36.29370117 C58.08175327 36.08633221 58.08175327 36.08633221 60 35 C39.54 27.41 19.08 19.82 -2 12 C-2.66 14.31 -3.32 16.62 -4 19 C-4.66 18.67 -5.32 18.34 -6 18 C-5.41347648 13.51006131 -4.2356462 9.77456816 -2.4375 5.625 C-1.98246094 4.56539062 -1.52742187 3.50578125 -1.05859375 2.4140625 C-0.70925781 1.61742187 -0.35992188 0.82078125 0 0 Z " fill="#050505" transform="translate(551,549)"/>
<path d="M0 0 C3.45599768 2.36019354 6.11928374 4.45990299 7.921875 8.3125 C8.77771561 13.3252807 8.59753379 17.65713596 6.671875 22.375 C4.24242913 25.06474364 2.11776713 26.14526956 -1.48046875 26.6484375 C-8.35638151 26.75438377 -8.35638151 26.75438377 -12.140625 24.4375 C-14.89373888 21.41795574 -15.2160805 19.80279297 -15.203125 15.8125 C-15.20570312 15.0184375 -15.20828125 14.224375 -15.2109375 13.40625 C-15.078125 11.3125 -15.078125 11.3125 -14.078125 9.3125 C-12.098125 9.3125 -10.118125 9.3125 -8.078125 9.3125 C-8.078125 6.6725 -8.078125 4.0325 -8.078125 1.3125 C-10.98867701 -0.142776 -12.85904298 -0.13817148 -16.078125 0.3125 C-24.82974972 9.30722541 -23.11052469 27.55662293 -24.078125 39.3125 C-23.28148437 39.30089844 -22.48484375 39.28929687 -21.6640625 39.27734375 C-11.13963642 39.18771968 -11.13963642 39.18771968 -6.078125 40.3125 C-6.078125 41.3025 -6.078125 42.2925 -6.078125 43.3125 C-7.74495031 43.1684912 -9.41157685 43.02218156 -11.078125 42.875 C-12.00625 42.79378906 -12.934375 42.71257812 -13.890625 42.62890625 C-17.63033709 42.25768483 -21.35058896 41.79049223 -25.078125 41.3125 C-25.11776367 41.8708252 -25.15740234 42.42915039 -25.19824219 43.00439453 C-26.6817874 63.49125236 -28.86267775 83.89458991 -31.078125 104.3125 C-30.32684326 104.30669922 -29.57556152 104.30089844 -28.80151367 104.29492188 C-27.8138501 104.29041016 -26.82618652 104.28589844 -25.80859375 104.28125 C-24.83043701 104.27544922 -23.85228027 104.26964844 -22.84448242 104.26367188 C-19.84160623 104.31667472 -17.01323574 104.67788146 -14.078125 105.3125 C-14.078125 106.3025 -14.078125 107.2925 -14.078125 108.3125 C-24.81446047 107.36745004 -35.53918476 106.30005719 -46.265625 105.25 C-48.1907519 105.06181508 -50.11588208 104.87366375 -52.04101562 104.68554688 C-56.72009006 104.22825213 -61.39911975 103.77050208 -66.078125 103.3125 C-66.078125 102.3225 -66.078125 101.3325 -66.078125 100.3125 C-63.438125 100.3125 -60.798125 100.3125 -58.078125 100.3125 C-58.0356665 99.66772705 -57.99320801 99.0229541 -57.94946289 98.35864258 C-57.08413332 86.21301683 -55.76646723 74.11062492 -54.515625 62 C-54.27914588 59.69858322 -54.04281648 57.39715105 -53.80664062 55.09570312 C-53.2321959 49.50112337 -52.65589936 43.90673682 -52.078125 38.3125 C-54.388125 37.9825 -56.698125 37.6525 -59.078125 37.3125 C-59.078125 36.6525 -59.078125 35.9925 -59.078125 35.3125 C-56.438125 35.3125 -53.798125 35.3125 -51.078125 35.3125 C-50.98015625 34.41789062 -50.8821875 33.52328125 -50.78125 32.6015625 C-49.21011321 19.89702537 -46.19004934 9.18755667 -36.10546875 0.640625 C-26.6890855 -5.27160152 -9.80496483 -5.00679055 0 0 Z " fill="#040404" transform="translate(1096.078125,253.6875)"/>
<path d="M0 0 C2.21916551 1.2041385 4.10104909 2.50324496 6.05859375 4.09375 C6.98671875 4.74537109 6.98671875 4.74537109 7.93359375 5.41015625 C16.36178153 11.78578968 20.73868505 22.03212349 23.05859375 32.09375 C24.04729524 39.5594551 23.04318584 45.66110787 19.05859375 52.09375 C13.83862554 58.30127976 7.93959953 62.32454462 0.05859375 64.09375 C-5.09418563 52.28637614 -9.46139934 40.16736131 -13.94140625 28.09375 C-18.7761596 28.65472901 -22.7062266 30.15533241 -27.00390625 32.34375 C-27.60267578 32.63121094 -28.20144531 32.91867187 -28.81835938 33.21484375 C-33.44875545 35.53764923 -37.57580931 38.36255612 -39.94140625 43.09375 C-40.76394247 49.59313455 -39.71222999 54.71208894 -35.94140625 60.09375 C-31.36135307 64.44480052 -27.461508 66.27088559 -21.19140625 66.71875 C-20.2065625 66.79351563 -19.22171875 66.86828125 -18.20703125 66.9453125 C-17.08554688 67.01878906 -17.08554688 67.01878906 -15.94140625 67.09375 C-15.94140625 68.08375 -15.94140625 69.07375 -15.94140625 70.09375 C-24.13834623 70.70980394 -30.20314003 69.60216443 -36.8828125 64.65625 C-42.02398757 60.03696527 -44.44472794 54.43362974 -46.94140625 48.09375 C-47.30363281 47.22105469 -47.66585938 46.34835937 -48.0390625 45.44921875 C-50.76872068 38.32374739 -51.38374677 28.64714786 -49.0703125 21.34375 C-43.73978066 9.87873725 -35.07283671 5.04416003 -23.94140625 0.09375 C-16.97412268 -2.22867786 -7.05813731 -2.17461867 0 0 Z " fill="#050505" transform="translate(1453.94140625,587.90625)"/>
<path d="M0 0 C5.04433342 0.57992677 9.24845197 2.24909644 13.8046875 4.37890625 C14.5286673 4.71043198 15.25264709 5.0419577 15.99856567 5.38352966 C18.29387304 6.43646405 20.58443349 7.49929779 22.875 8.5625 C24.43719635 9.28125929 25.99969347 9.99936527 27.5625 10.71679688 C31.3785222 12.47032299 35.19032108 14.23273756 39 16 C38.505 17.485 38.505 17.485 38 19 C35.69 18.01 33.38 17.02 31 16 C29.88656829 25.70106987 28.82957099 35.40691292 27.875 45.125 C27.74375732 46.41990356 27.74375732 46.41990356 27.60986328 47.7409668 C27.11676961 52.85495338 26.91694212 57.86227664 27 63 C33.29377266 56.84479877 33.29377266 56.84479877 39.1875 50.3125 C43.23416621 45.56581807 47.72115299 41.2556273 52.2019043 36.9230957 C52.79140869 36.34519287 53.38091309 35.76729004 53.98828125 35.171875 C54.78552612 34.3998877 54.78552612 34.3998877 55.59887695 33.61230469 C57.12552607 31.85555425 58.04712013 30.11496344 59 28 C56.69 27.34 54.38 26.68 52 26 C52 25.01 52 24.02 52 23 C58.20477864 24.93624298 64.10825719 27.25609141 70 30 C70 30.99 70 31.98 70 33 C68.865625 32.649375 67.73125 32.29875 66.5625 31.9375 C63.40799908 31.53622073 62.32440903 31.76527401 59.7109375 33.65625 C57.35559366 36.0196878 55.15833781 38.45568208 53 41 C51.89606987 42.27103881 50.79191706 43.54188426 49.6875 44.8125 C49.13449219 45.45832031 48.58148437 46.10414063 48.01171875 46.76953125 C45.44193129 49.61875191 42.7291689 52.30433325 40 55 C36.71531368 58.24451281 33.49265951 61.4792241 30.5 65 C27.02499607 69.08823992 23.22120995 72.80904065 19.40454102 76.57373047 C16.62137165 79.33289571 13.96068443 82.12149853 11.4375 85.125 C4.9509956 92.68731488 -3.06528672 101.91741472 -13.43359375 103.33203125 C-20.58827659 103.62605931 -26.59412803 102.04301673 -32.3125 97.6875 C-35.90871773 94.09128227 -37.68610939 91.10755126 -38.4375 86.0625 C-37.83853013 81.86971089 -36.37011548 79.52131442 -34 76 C-29.94548612 73.29699075 -26.76223357 73.34450185 -22 74 C-18.00208393 75.52839353 -15.40753664 77.38869504 -13 81 C-12.29842592 86.26180564 -13.84078305 88.85352775 -17 93 C-18.2065625 92.7215625 -18.2065625 92.7215625 -19.4375 92.4375 C-20.283125 92.293125 -21.12875 92.14875 -22 92 C-23.29633621 93.06645115 -23.29633621 93.06645115 -23.0625 95.5625 C-23.041875 96.366875 -23.02125 97.17125 -23 98 C-19.22110202 99.88944899 -15.69152142 99.5282295 -11.7734375 98.3046875 C-3.61757457 94.71823312 5.85184724 87.42877479 10.375 79.62890625 C10.58125 79.09136719 10.7875 78.55382812 11 78 C10.36191406 77.79503906 9.72382812 77.59007812 9.06640625 77.37890625 C8.24011719 77.10949219 7.41382813 76.84007812 6.5625 76.5625 C5.73878906 76.29566406 4.91507813 76.02882813 4.06640625 75.75390625 C2 75 2 75 1 74 C0.9583047 71.97692132 0.99012317 69.95228643 1.05078125 67.9296875 C1.08888916 66.6516626 1.12699707 65.3736377 1.16625977 64.05688477 C1.2145196 62.66290623 1.26327733 61.26894486 1.3125 59.875 C1.33545135 59.17527069 1.35840271 58.47554138 1.38204956 57.75460815 C1.71496086 47.72581673 2.35662434 37.77129477 3.3347168 27.7824707 C4.08927152 19.83040262 4.20858683 11.98424019 4 4 C2.68 3.34 1.36 2.68 0 2 C0 1.34 0 0.68 0 0 Z " fill="#060606" transform="translate(1181,318)"/>
<path d="M0 0 C0.66 0 1.32 0 2 0 C5.63 6.6 9.26 13.2 13 20 C17.99874263 18.33375246 21.56262424 16.61531675 25.94921875 13.92578125 C28 13 28 13 31 14 C28.50506504 16.81631641 25.73437182 18.40955981 22.4375 20.1875 C21.46683594 20.71730469 20.49617187 21.24710937 19.49609375 21.79296875 C17 23 17 23 15 23 C20.57995124 34.70775223 26.97308997 45.92092825 33.41064453 57.17333984 C35.550089 60.97833032 37.59230965 64.83337625 39.62084961 68.69848633 C40.92872146 70.88105102 41.97894357 72.4587971 44 74 C47.57756686 74.00082535 47.57756686 74.00082535 51 73 C53.52775351 69.20836973 53.22443035 66.19125969 53.125 61.8125 C53.11597656 61.06291016 53.10695313 60.31332031 53.09765625 59.54101562 C53.07412578 57.69387346 53.03825561 55.84689588 53 54 C54.485 54.495 54.485 54.495 56 55 C57.97451821 60.92355462 58.41859115 69.13043229 55.625 74.875 C50.7832395 81.75269513 42.14318368 86.446275 34 88 C29.14295913 88.5896256 25.34116064 88.57853988 20.8125 86.625 C12.65255048 79.00904712 7.84699543 68.46345196 2.75 58.6875 C1.688288 56.66536411 0.62466591 54.64424998 -0.44012451 52.62373352 C-1.39734444 50.80519156 -2.34970293 48.98409311 -3.30175781 47.1628418 C-4.3848221 45.14572021 -5.52050471 43.1553977 -6.72167969 41.20629883 C-8 39 -8 39 -8 37 C-8.928125 37.515625 -9.85625 38.03125 -10.8125 38.5625 C-14 40 -14 40 -17 39 C-15.36587557 37.29159719 -14.13093906 36.06546953 -12 35 C-12.59337536 30.87641678 -13.98763181 27.90795717 -16.0625 24.3125 C-19 19.20470588 -19 19.20470588 -19 17 C-17.6015625 15.58984375 -17.6015625 15.58984375 -15.625 13.9375 C-12.22448993 11.04797892 -8.87598052 8.11428387 -5.5625 5.125 C-4.29599609 3.98417969 -4.29599609 3.98417969 -3.00390625 2.8203125 C-1.98726703 1.89681567 -0.97118528 0.97118528 0 0 Z " fill="#030303" transform="translate(778,323)"/>
<path d="M0 0 C2.11700778 8.99424543 4.08048168 18.01121443 5.9375 27.0625 C6.19547363 28.31442139 6.45344727 29.56634277 6.71923828 30.85620117 C8.85245717 41.22959195 10.9439798 51.61105086 13 62 C15.64 62 18.28 62 21 62 C21 62.99 21 63.98 21 65 C15.34551331 66.23130138 9.69068532 67.46099447 4.03515625 68.6875 C0.52027093 69.45019998 -2.99321789 70.21821832 -6.50390625 71 C-8.32728516 71.4021875 -8.32728516 71.4021875 -10.1875 71.8125 C-11.75564453 72.16248047 -11.75564453 72.16248047 -13.35546875 72.51953125 C-16 73 -16 73 -20 73 C-20 72.01 -20 71.02 -20 70 C-17.03 69.505 -17.03 69.505 -14 69 C-15.88825631 57.43983539 -17.91549584 45.961382 -20.625 34.5625 C-22.71855427 25.73707227 -24.13316127 17.03064825 -25 8 C-29.455 8.495 -29.455 8.495 -34 9 C-34 8.01 -34 7.02 -34 6 C-29.80177631 5.14054513 -25.6025548 4.28619916 -21.40234375 3.43652344 C-19.97432576 3.14690273 -18.54658726 2.85590032 -17.11914062 2.56347656 C-15.06452618 2.1428243 -13.00895008 1.72718975 -10.953125 1.3125 C-9.71723633 1.06113281 -8.48134766 0.80976563 -7.20800781 0.55078125 C-4 0 -4 0 0 0 Z " fill="#030303" transform="translate(933,296)"/>
<path d="M0 0 C1.88671875 1.3125 1.88671875 1.3125 3.6875 3 C4.7084375 3.94166016 4.7084375 3.94166016 5.75 4.90234375 C6.4925 5.59457031 7.235 6.28679687 8 7 C9.72911942 8.52088705 11.45828721 10.04171911 13.1875 11.5625 C23.7252907 21.06272361 23.7252907 21.06272361 24.203125 26.171875 C24.35570595 34.56382733 21.93781377 39.1616285 16.59765625 45.484375 C14.82210045 47.16876534 13.27700274 48.11075633 11 49 C8.25 48.625 8.25 48.625 6 48 C5.505 45.525 5.505 45.525 5 43 C5.56589844 42.51789063 6.13179687 42.03578125 6.71484375 41.5390625 C7.44832031 40.90742187 8.18179687 40.27578125 8.9375 39.625 C9.66839844 38.99851562 10.39929687 38.37203125 11.15234375 37.7265625 C13.85703496 35.19913435 13.98433068 34.29249398 14.1875 30.5 C14.38785276 26.94234089 14.38785276 26.94234089 12 25 C11.443125 26.5778125 11.443125 26.5778125 10.875 28.1875 C8.87376055 32.90812703 5.59961429 35.70019286 1 38 C-5.1924024 38.29548808 -9.55636185 36.69653752 -14.26953125 32.7265625 C-18.4803535 28.52524549 -20.21269934 24.92592319 -20.5 18.9375 C-20.15474117 11.56455336 -15.73206175 7.51144413 -10.78125 2.515625 C-7.06839145 -0.64356166 -4.75454457 -1.55739413 0 0 Z " fill="#070707" transform="translate(1358,1056)"/>
<path d="M0 0 C2.36264943 2.68853211 2.95207624 4.65084116 3.4375 8.1875 C2.16732311 19.25618433 -4.76604753 29.35968584 -10 39 C-7.2307533 38.07691777 -5.40214046 37.07181042 -2.98046875 35.49609375 C-2.20509766 35.00302734 -1.42972656 34.50996094 -0.63085938 34.00195312 C0.99152959 32.96315732 2.60879963 31.91632092 4.22070312 30.86132812 C11.67100909 26.15943941 11.67100909 26.15943941 17 27 C17.66 27.33 18.32 27.66 19 28 C18.66735424 31.88086723 17.55701869 33.86824769 14.76782227 36.54370117 C10.82471041 39.79196277 6.39671192 42.3753456 2.0625 45.0625 C0.11557603 46.28205831 -1.83104697 47.50209725 -3.77734375 48.72265625 C-4.68693848 49.28863525 -5.5965332 49.85461426 -6.53369141 50.43774414 C-8.56755561 51.72607289 -10.5477536 53.05761933 -12.51953125 54.4375 C-15 56 -15 56 -17.75 55.9375 C-20 55 -20 55 -22 52 C-22.94248423 43.84791417 -20.35830876 38.42497298 -16.6875 31.25 C-16.18798828 30.23550781 -15.68847656 29.22101562 -15.17382812 28.17578125 C-12.9396661 23.67194734 -10.62584365 19.28956816 -8 15 C-10.10630459 16.18383543 -12.21047102 17.37110611 -14.3125 18.5625 C-14.94389893 18.92021484 -15.57529785 19.27792969 -16.22583008 19.64648438 C-21.20997657 22.49420934 -26.02679051 25.54872886 -30.79296875 28.75 C-33 30 -33 30 -36 30 C-39.07395994 26.04776579 -39.07395994 26.04776579 -38.86083984 23.02856445 C-37.66232016 20.20425927 -36.07501274 19.39245263 -33.4765625 17.79296875 C-32.53683594 17.20580078 -31.59710937 16.61863281 -30.62890625 16.01367188 C-29.63761719 15.41103516 -28.64632812 14.80839844 -27.625 14.1875 C-26.67238281 13.59646484 -25.71976563 13.00542969 -24.73828125 12.39648438 C-22.80817924 11.19898536 -20.87355605 10.00874402 -18.93457031 8.82568359 C-16.93356139 7.58079634 -14.95415135 6.30067156 -12.99511719 4.99072266 C-12.03508789 4.35054199 -11.07505859 3.71036133 -10.0859375 3.05078125 C-9.22790527 2.46594971 -8.36987305 1.88111816 -7.48583984 1.27856445 C-4.70226965 -0.15313434 -3.08585773 -0.42963069 0 0 Z " fill="#070707" transform="translate(653,990)"/>
<path d="M0 0 C1.73068726 0.00845947 1.73068726 0.00845947 3.49633789 0.01708984 C19.91499304 0.25132731 19.91499304 0.25132731 26.3125 3.3125 C28.90638266 6.46722216 29.15464765 8.36538589 29.8125 12.3125 C28.52590267 20.03208396 20.22998827 24.98033352 14.3125 29.3125 C7.03812831 34.45232335 0.03589812 39.05644876 -8.6875 41.3125 C-11.63976131 35.17179648 -11.63976131 35.17179648 -11.8125 32.0625 C-9.91187088 29.10596582 -6.88008559 28.47344021 -3.6875 27.3125 C-4.16520523 25.37463915 -4.64471571 23.43722326 -5.125 21.5 C-5.39183594 20.42105469 -5.65867187 19.34210937 -5.93359375 18.23046875 C-6.44827412 16.2384157 -7.03687175 14.26438476 -7.6875 12.3125 C-10.9875 12.3125 -14.2875 12.3125 -17.6875 12.3125 C-20.6875 5.6875 -20.6875 5.6875 -20.6875 2.3125 C-13.74440252 0.18982343 -7.23408182 -0.03639659 0 0 Z " fill="#080808" transform="translate(586.6875,896.6875)"/>
<path d="M0 0 C4.81929784 1.310316 8.24152759 3.36535982 12.0625 6.5625 C14.78752927 11.39722935 14.78679934 15.56694352 14 21 C12.5625 24.0625 12.5625 24.0625 11 26 C10.67 26.66 10.34 27.32 10 28 C11.26457031 28.36351562 11.26457031 28.36351562 12.5546875 28.734375 C14.19824219 29.23710938 14.19824219 29.23710938 15.875 29.75 C16.96554687 30.07484375 18.05609375 30.3996875 19.1796875 30.734375 C22 32 22 32 23.3984375 34.00390625 C24.12857235 36.42662643 23.96238731 37.67423067 23 40 C17.5882764 42.7058618 11.41192024 40.51810335 5.984375 38.76953125 C5.24672913 38.53723312 4.50908325 38.304935 3.74908447 38.06559753 C2.20114682 37.57401609 0.65491105 37.07704605 -0.88964844 36.57495117 C-3.25106043 35.81215746 -5.62068636 35.08033981 -7.9921875 34.34960938 C-9.50059583 33.86643951 -11.00843061 33.38147464 -12.515625 32.89453125 C-13.22189026 32.6797261 -13.92815552 32.46492096 -14.65582275 32.24360657 C-17.95282981 31.14181995 -19.79230197 30.26317865 -21.96777344 27.5065918 C-23 25 -23 25 -23 22 C-21.68 21.34 -20.36 20.68 -19 20 C-19.04640625 19.27554688 -19.0928125 18.55109375 -19.140625 17.8046875 C-19.3707038 11.64186241 -19.31835861 7.79817623 -15 3 C-10.40671947 -1.11913544 -5.8943388 -0.70987301 0 0 Z " fill="#060606" transform="translate(1450,894)"/>
<path d="M0 0 C9.70016184 3.51023627 17.84336736 12.86317377 25.21484375 19.859375 C27.7199865 22.23559813 30.28303519 24.51734637 32.91796875 26.75 C37.62043464 30.85580893 41.62752224 34.46205802 43.60546875 40.5 C43.41796875 43.875 43.41796875 43.875 41.41796875 46.875 C38.41796875 48.875 38.41796875 48.875 35.29296875 49.1875 C25.34010214 46.81165442 16.84400333 36.74991296 9.65625 29.92578125 C7.13968477 27.53726328 4.56608217 25.24304827 1.91796875 23 C-2.57307665 19.12575054 -6.29538601 14.80496785 -9.58203125 9.875 C-9.4022506 6.51909451 -9.10656481 3.86235729 -7.51953125 0.875 C-4.93874891 -0.45701669 -2.83507848 -0.49575143 0 0 Z " fill="#F9F9F9" transform="translate(667.58203125,446.125)"/>
<path d="M0 0 C5.1883055 2.36807445 8.91103022 4.65511973 11.20703125 10.08203125 C12.45741901 16.39466846 10.76984884 21.38825227 7.671875 26.90625 C5.46663679 30.18176383 3.90817262 31.6015747 0.20703125 33.08203125 C-7.16124845 34.05892588 -13.71668735 33.62094025 -19.79296875 29.08203125 C-23.81506694 24.85367162 -25.2238261 21.2968848 -25.13671875 15.40625 C-24.26804797 9.53285098 -21.31259647 4.60165897 -17.16796875 0.45703125 C-11.3692402 -1.90541371 -5.95806996 -1.95824677 0 0 Z " fill="#080808" transform="translate(899.79296875,1194.91796875)"/>
<path d="M0 0 C4.44631319 2.476638 7.21877995 5.21581693 9.21875 9.91796875 C10.69943048 15.27263088 10.4346206 20.19386417 8.83984375 25.4765625 C5.70237874 29.6925311 1.47535894 31.8463049 -3.16015625 34.1640625 C-7.98304735 34.74222395 -12.94341685 35.24539879 -17.40234375 33.0703125 C-22.13122818 29.25473193 -24.69723536 24.80377801 -25.47265625 18.70703125 C-25.67392628 14.5118091 -25.40840023 11.71226796 -23.66015625 7.8515625 C-17.60833166 1.34585106 -8.91749065 -3.4508915 0 0 Z " fill="#070707" transform="translate(1171.16015625,1186.8359375)"/>
<path d="M0 0 C4.8543226 2.52935756 8.91990859 6.06865524 11.375 11.01171875 C13.08072287 16.43804962 12.84224104 21.31551792 10.3125 26.375 C6.54796685 30.64825385 2.43887592 34.5119747 -3.3671875 35.3359375 C-9.11787299 35.42551204 -12.61549208 35.08556419 -17 31 C-21.08876621 26.45902001 -23.38876945 22.50511514 -23.625 16.3125 C-23.32264997 11.49505619 -22.35520283 8.61329536 -19 5 C-12.85375359 -0.12652826 -7.94890006 -2.07082995 0 0 Z " fill="#060606" transform="translate(672,1044)"/>
<path d="M0 0 C5.75 0.75 5.75 0.75 8 3 C10.20883852 16.874847 7.80039089 33.2056157 0.4140625 45.19140625 C-2.8058469 49.30968817 -6.03663203 51.73570047 -11.25 52.4375 C-14 52 -14 52 -17 50 C-16.49396008 47.83125748 -16.00016187 46.00032373 -15 44 C-14.05125 43.5875 -13.1025 43.175 -12.125 42.75 C-8.40479896 40.66668742 -7.55576936 38.88942339 -6 35 C-6.74443359 34.38125 -6.74443359 34.38125 -7.50390625 33.75 C-23.25139526 20.36314027 -23.25139526 20.36314027 -24.375 10.8125 C-24 8 -24 8 -22.8125 6.0625 C-21 5 -21 5 -18.5 5.0625 C-14.1813981 6.68197571 -13.0238367 9.91845979 -11.125 13.875 C-9.01933005 18.20782085 -6.44192174 22.77903913 -2 25 C-2.01047363 24.34926514 -2.02094727 23.69853027 -2.03173828 23.02807617 C-2.07329835 20.0812567 -2.09932608 17.13449889 -2.125 14.1875 C-2.14175781 13.16333984 -2.15851563 12.13917969 -2.17578125 11.08398438 C-2.18222656 10.10107422 -2.18867187 9.11816406 -2.1953125 8.10546875 C-2.20578613 7.19949951 -2.21625977 6.29353027 -2.22705078 5.36010742 C-2 3 -2 3 0 0 Z " fill="#060606" transform="translate(1129,1197)"/>
<path d="M0 0 C3.36942527 1.99414965 4.53434516 3.24680538 6.0625 6.8125 C6.86214438 10.15744256 7.18231306 13.24147628 7.16015625 16.67578125 C7.15693359 17.56201172 7.15371094 18.44824219 7.15039062 19.36132812 C7.14201172 20.27333984 7.13363281 21.18535156 7.125 22.125 C7.12048828 23.05634766 7.11597656 23.98769531 7.11132812 24.94726562 C7.09959234 27.23574373 7.08317363 29.52408808 7.0625 31.8125 C5.804375 31.833125 4.54625 31.85375 3.25 31.875 C2.18845703 31.89240234 2.18845703 31.89240234 1.10546875 31.91015625 C-0.9375 31.8125 -0.9375 31.8125 -3.9375 30.8125 C-5.27636526 31.46798612 -6.60908632 32.13608348 -7.9375 32.8125 C-10.375 33.11328125 -10.375 33.11328125 -12.9375 33.125 C-13.783125 33.14175781 -14.62875 33.15851563 -15.5 33.17578125 C-18.45250566 32.73574435 -19.78992709 31.85940543 -21.9375 29.8125 C-23.18011338 26.08465985 -23.73615386 22.67014883 -22.9375 18.8125 C-19.25568234 14.87381134 -15.34460768 11.99718434 -9.84765625 11.69921875 C-7.87726971 11.68883007 -5.90678281 11.74574465 -3.9375 11.8125 C-4.2675 10.4925 -4.5975 9.1725 -4.9375 7.8125 C-6.35405793 7.7852585 -7.77077045 7.76599533 -9.1875 7.75 C-9.97640625 7.73839844 -10.7653125 7.72679687 -11.578125 7.71484375 C-13.92110345 7.72548977 -13.92110345 7.72548977 -16.046875 8.37890625 C-17.9375 8.8125 -17.9375 8.8125 -20.9375 7.8125 C-21.1875 5.5 -21.1875 5.5 -20.9375 2.8125 C-15.49864028 -2.43881283 -6.83691673 -2.58024363 0 0 Z " fill="#0A0A0A" transform="translate(1039.9375,1212.1875)"/>
<path d="M0 0 C2.70750292 1.24702417 4.88019284 2.88019284 7 5 C7.57137205 8.61652539 7.05098117 9.92120173 5.03125 13.04296875 C4.19939609 14.10061157 3.35521579 15.14865679 2.5 16.1875 C-0.73821539 19.68696492 -0.73821539 19.68696492 -2 24 C0.28694223 24.50379029 0.28694223 24.50379029 3 24 C6.86351348 20.22633567 8.46217099 17.20495972 10 12 C10.66 11.34 11.32 10.68 12 10 C15.53571429 10.53571429 15.53571429 10.53571429 17 12 C17.31644612 18.28764687 15.59460657 22.48997603 11.62109375 27.2734375 C7.6998649 31.44978244 4.5936134 33.63689412 -1.125 34.4375 C-7.62378356 33.70376637 -12.17372538 30.00890209 -16.5 25.25 C-19.58636904 20.62044643 -19.85581572 16.47882023 -19 11 C-14.82092516 2.87326488 -9.21494419 -1.49862414 0 0 Z " fill="#070707" transform="translate(1384,1025)"/>
<path d="M0 0 C6.2258178 0.80333133 10.76496657 3.64728772 15.4375 7.75 C17.51340499 11.7212965 17.50468997 15.0934406 16.875 19.5 C15.54111183 23.05450294 13.76250683 26.27466716 11.875 29.5625 C11.39804687 30.42810547 10.92109375 31.29371094 10.4296875 32.18554688 C9.26129404 34.30033903 8.07658058 36.40394493 6.875 38.5 C3.50037285 37.95276317 1.79265 37.4451 -1.125 35.5 C-1.62 34.015 -1.62 34.015 -2.125 32.5 C-3.15625 32.5825 -4.1875 32.665 -5.25 32.75 C-9.7754277 32.45803692 -11.64700909 31.33092283 -15.125 28.5 C-17.63750583 24.73124125 -17.65516086 22.96849866 -17.125 18.5 C-14.76966688 14.18188927 -14.76966688 14.18188927 -12.125 12.5 C-4.9240507 10.83039937 1.43491436 13.43068259 7.875 16.5 C6.60553486 11.67557816 6.60553486 11.67557816 2.875 8.5 C1.699375 8.37625 0.52375 8.2525 -0.6875 8.125 C-4.125 7.5 -4.125 7.5 -5.5625 5.4375 C-5.8409375 4.4784375 -5.8409375 4.4784375 -6.125 3.5 C-4.27251635 0.88472897 -3.21431666 0.51429067 0 0 Z " fill="#060606" transform="translate(804.125,1157.5)"/>
<path d="M0 0 C6.71034005 1.34687829 11.47380686 7.59967152 15.6328125 12.6171875 C17.24675501 14.59832675 17.24675501 14.59832675 19.6796875 16.6875 C21.1796875 18.4375 21.1796875 18.4375 21.1796875 20.4375 C19.86753008 23.06181483 18.50496901 24.6437114 16.1796875 26.4375 C13.52861904 26.21164833 12.39934169 25.64762581 10.46875 23.80078125 C9.91960937 23.12402344 9.37046875 22.44726562 8.8046875 21.75 C8.20011719 21.03585937 7.59554688 20.32171875 6.97265625 19.5859375 C5.848272 18.23863611 4.72560546 16.88989734 3.60546875 15.5390625 C1.97942238 13.63840445 1.97942238 13.63840445 -0.8203125 11.4375 C-4.12216178 11.40156842 -4.12216178 11.40156842 -6.8203125 12.4375 C-7.954722 15.03884984 -7.954722 15.03884984 -7.8203125 18.4375 C-5.8364809 21.43139221 -3.33379635 23.88458896 -0.8203125 26.4375 C0.3384337 27.69657054 1.48542791 28.96661712 2.6171875 30.25 C3.11089844 30.79269531 3.60460938 31.33539062 4.11328125 31.89453125 C5.1796875 33.4375 5.1796875 33.4375 5.1796875 36.4375 C2.9296875 38.6875 2.9296875 38.6875 0.1796875 40.4375 C-3.04887148 40.36880726 -4.04674089 39.22064864 -6.40625 36.9609375 C-7.34543014 35.91994469 -8.27472801 34.8699732 -9.1953125 33.8125 C-9.92004761 32.9932605 -9.92004761 32.9932605 -10.65942383 32.1574707 C-11.61631126 31.07428377 -12.57025564 29.98848862 -13.52099609 28.89990234 C-14.60455363 27.68034022 -15.73280485 26.50067452 -16.87109375 25.33203125 C-19.78543363 22.292493 -20.78909013 20.76533488 -21.1953125 16.5 C-21.0715625 15.489375 -20.9478125 14.47875 -20.8203125 13.4375 C-18.5103125 13.4375 -16.2003125 13.4375 -13.8203125 13.4375 C-13.9234375 12.73625 -14.0265625 12.035 -14.1328125 11.3125 C-13.68474952 7.19032055 -11.63314932 5.38116644 -8.8203125 2.4375 C-5.6748248 0.3405082 -3.75263656 -0.10996737 0 0 Z " fill="#070707" transform="translate(1325.8203125,1087.5625)"/>
<path d="M0 0 C3.875 1.75 3.875 1.75 5 4 C5.99 3.67 6.98 3.34 8 3 C13.62391086 2.63121896 17.13512635 2.8321753 22 6 C25.28347302 9.68123341 25.43670403 12.08061634 25.30078125 16.859375 C23.81538462 32.36923077 23.81538462 32.36923077 21 38 C18.03 37.67 15.06 37.34 12 37 C11.85637173 32.40389523 11.76281803 28.31840003 13 23.875 C14.03104698 20.16619791 14.38684671 16.86846706 14 13 C11.25305475 10.79859497 11.25305475 10.79859497 8.5 10.875 C5.64238182 11.84713432 5.64238182 11.84713432 4.3125 15.3125 C2.82953041 19.92897597 2.12083153 24.67143064 1.4296875 29.4609375 C1 32 1 32 0 34 C-2.97 33.67 -5.94 33.34 -9 33 C-9.18241612 26.33167739 -8.59113563 20.22764778 -7.3125 13.6875 C-7.16361328 12.80771484 -7.01472656 11.92792969 -6.86132812 11.02148438 C-6.02452341 6.69963415 -5.56627626 4.55791177 -2.35546875 1.39453125 C-1.57816406 0.93433594 -0.80085937 0.47414063 0 0 Z " fill="#070707" transform="translate(927,1202)"/>
<path d="M0 0 C2.6875 0 2.6875 0 6 1 C10.16141165 6.00736432 12.76066671 12.40332344 15.375 18.3125 C15.74238281 19.10978516 16.10976562 19.90707031 16.48828125 20.72851562 C16.82988281 21.49486328 17.17148438 22.26121094 17.5234375 23.05078125 C17.9862915 24.08199097 17.9862915 24.08199097 18.45849609 25.1340332 C19 27 19 27 18 30 C15.47772264 31.80162669 14.35487 32.04839136 11.25 31.625 C10.5075 31.41875 9.765 31.2125 9 31 C7.9171875 32.423125 7.9171875 32.423125 6.8125 33.875 C3.46632925 37.84916358 0.66489126 38.72756325 -4.4375 39.5625 C-8.47792951 38.92453745 -9.99203474 37.76692445 -12.4453125 34.53125 C-14.45751871 31.25509517 -16.2038937 27.89853366 -17.875 24.4375 C-18.18566406 23.80062256 -18.49632812 23.16374512 -18.81640625 22.50756836 C-20.64035296 18.5218115 -21.51445775 15.37289088 -21 11 C-20.34 10.01 -19.68 9.02 -19 8 C-15.96690338 8.55815901 -13.69964708 9.05486272 -11.80322266 11.61669922 C-10.71560434 13.69278124 -9.7448492 15.78723419 -8.8125 17.9375 C-8.15778504 19.38658535 -7.49779886 20.83330306 -6.83203125 22.27734375 C-6.41014526 23.24015259 -6.41014526 23.24015259 -5.97973633 24.22241211 C-4.8753593 26.22614228 -3.78019474 27.56198859 -2 29 C1.31818985 28.75794651 1.31818985 28.75794651 4 27 C4.44126771 21.52828043 3.46456095 18.19886577 0.9375 13.375 C-2.05972706 7.65240322 -2.05972706 7.65240322 -1.74609375 4.2265625 C-1 2 -1 2 0 0 Z " fill="#060606" transform="translate(1206,1167)"/>
<path d="M0 0 C13.86 0 27.72 0 42 0 C39.11978546 12.96096544 39.11978546 12.96096544 33.2578125 17.28515625 C27.80848026 20.54773929 22.35239639 22.13822802 16 21 C9.90392162 18.35470473 4.89243089 15.14641563 2 9 C1.34 6.03 0.68 3.06 0 0 Z " fill="#060606" transform="translate(979,846)"/>
<path d="M0 0 C3.7647859 2.45148849 5.2764566 4.51686981 6.6875 8.75 C7.08294498 12.94171681 6.95710901 15.23075302 5 19 C1.60548455 23.03672108 -2.07195783 25.31792771 -7.36328125 26.0234375 C-11.53622499 26.21082357 -14.40745374 26.18391645 -17.75 23.5 C-21.84510635 19.10525172 -22.78634672 15.91022372 -22.62109375 10 C-22.12276209 6.36659447 -20.78437713 4.41202153 -18.3125 1.75 C-12.16576017 -1.79619605 -6.69173089 -2.52518147 0 0 Z " fill="#050505" transform="translate(923.3125,263.25)"/>
<path d="M0 0 C-0.92105263 6.71052632 -0.92105263 6.71052632 -1.75 9.75 C-2.27703471 12.08757952 -2.27703471 12.08757952 -0.5625 13.8125 C-0.046875 14.204375 0.46875 14.59625 1 15 C1.598125 14.484375 2.19625 13.96875 2.8125 13.4375 C3.534375 12.963125 4.25625 12.48875 5 12 C5.99 12.33 6.98 12.66 8 13 C9.1875 15.5625 9.1875 15.5625 10 18 C8.68 18.99 7.36 19.98 6 21 C7.77876928 26.41856305 11.17259546 30.47502448 14.63085938 34.91601562 C18.06126579 39.50809368 18.06126579 39.50809368 17.73950195 42.09155273 C16.71411895 44.73777885 15.47259931 45.6577318 13 47 C10.34695158 46.74500149 9.27247741 46.29321682 7.44433594 44.32592773 C6.96254883 43.61895752 6.48076172 42.9119873 5.984375 42.18359375 C5.45585938 41.41982422 4.92734375 40.65605469 4.3828125 39.86914062 C3.84398437 39.06669922 3.30515625 38.26425781 2.75 37.4375 C2.19570312 36.63119141 1.64140625 35.82488281 1.0703125 34.99414062 C-0.29659296 33.00270077 -1.65272637 31.00475077 -3 29 C-4.98 29.33 -6.96 29.66 -9 30 C-12 26.25 -12 26.25 -12 24 C-10.5 22.375 -10.5 22.375 -9 21 C-9.99 19.4840625 -9.99 19.4840625 -11 17.9375 C-13.14824455 14.0969333 -13.79309333 11.44132267 -13 7 C-9.79159623 1.20673383 -6.82230429 -0.9551226 0 0 Z " fill="#070707" transform="translate(1274,1112)"/>
<path d="M0 0 C2.77406113 1.37290602 3.8999013 2.5768092 6 5 C6.15234375 7.67578125 6.15234375 7.67578125 6 10 C5.31292969 9.96519531 4.62585938 9.93039062 3.91796875 9.89453125 C3.01691406 9.86746094 2.11585938 9.84039063 1.1875 9.8125 C0.29417969 9.77769531 -0.59914063 9.74289062 -1.51953125 9.70703125 C-4.04786974 9.79287291 -4.04786974 9.79287291 -5.82421875 11.38671875 C-7.19632861 12.93666761 -7.19632861 12.93666761 -7 15 C-6.01 15.66 -5.02 16.32 -4 17 C-4.25 19.375 -4.25 19.375 -5 22 C-7.0625 23.3125 -7.0625 23.3125 -9 24 C-9.99 23.01 -10.98 22.02 -12 21 C-15.98622934 22.54364234 -17.94281064 25.06825167 -20.5625 28.375 C-21.32691406 29.33148437 -22.09132813 30.28796875 -22.87890625 31.2734375 C-24.61022012 33.49895698 -26.32032949 35.7353963 -28 38 C-31.35595828 37.40072174 -33.37801226 36.15377564 -36 34 C-35.51722808 29.40957545 -33.85373534 27.34274054 -30.6875 24.0625 C-27.36667974 20.52487459 -24.50859345 17.14463266 -22 13 C-22.66 12.34 -23.32 11.68 -24 11 C-23.625 8.375 -23.625 8.375 -23 6 C-20.39417629 5.06934867 -19.35801776 4.85082593 -16.75 5.9375 C-16.1725 6.288125 -15.595 6.63875 -15 7 C-14.7525 6.401875 -14.505 5.80375 -14.25 5.1875 C-10.97788796 -0.53869606 -6.15129083 -1.13676704 0 0 Z " fill="#060606" transform="translate(751,1101)"/>
<path d="M0 0 C2.83022097 3.99560608 1.76210446 7.42737323 1 12 C2.65 12.66 4.3 13.32 6 14 C5.125 18.75 5.125 18.75 4 21 C1.23723823 20.47731534 -1.3260876 19.89130413 -4 19 C-4.20496094 19.62648438 -4.40992188 20.25296875 -4.62109375 20.8984375 C-4.89050781 21.71570312 -5.15992188 22.53296875 -5.4375 23.375 C-5.70433594 24.18710938 -5.97117187 24.99921875 -6.24609375 25.8359375 C-7 28 -7 28 -8 30 C-8.039992 31.99960012 -8.04346799 34.00047242 -8 36 C-6.68 36.33 -5.36 36.66 -4 37 C-4 39.31 -4 41.62 -4 44 C-10.13062246 44.50045898 -13.06840864 43.38442544 -18 40 C-20.52678244 36.20982634 -20.40390292 34.5117792 -20 30 C-19.05954083 27.07420385 -17.81491894 24.33702973 -16.5 21.5625 C-16.16613281 20.83095703 -15.83226562 20.09941406 -15.48828125 19.34570312 C-14.6705607 17.55839965 -13.83689653 15.77840513 -13 14 C-14.32 13.67 -15.64 13.34 -17 13 C-16.125 8.25 -16.125 8.25 -15 6 C-12.03 6.495 -12.03 6.495 -9 7 C-8.62875 5.824375 -8.62875 5.824375 -8.25 4.625 C-7 2 -7 2 -5.0625 0.6875 C-3 0 -3 0 0 0 Z " fill="#0A0A0A" transform="translate(847,1166)"/>
<path d="M0 0 C2 0.8125 2 0.8125 5 2.8125 C5.1875 5.9375 5.1875 5.9375 5 8.8125 C7.64 8.8125 10.28 8.8125 13 8.8125 C13 11.1225 13 13.4325 13 15.8125 C10.69 15.8125 8.38 15.8125 6 15.8125 C6.99 21.4225 7.98 27.0325 9 32.8125 C11.31 33.4725 13.62 34.1325 16 34.8125 C16.33 36.4625 16.66 38.1125 17 39.8125 C12.45898659 42.44040128 8.12948348 42.49643113 3 41.8125 C-0.92834687 39.25907454 -1.74715666 36.20262873 -3 31.8125 C-3.27821125 29.36109141 -3.48557345 26.90070235 -3.625 24.4375 C-3.69976563 23.19226562 -3.77453125 21.94703125 -3.8515625 20.6640625 C-3.90054687 19.72304687 -3.94953125 18.78203125 -4 17.8125 C-4.804375 17.833125 -5.60875 17.85375 -6.4375 17.875 C-9 17.8125 -9 17.8125 -10 16.8125 C-10.04080783 14.81291636 -10.04254356 12.81204746 -10 10.8125 C-8.35 10.8125 -6.7 10.8125 -5 10.8125 C-5.0928125 8.9253125 -5.0928125 8.9253125 -5.1875 7 C-5.18060372 3.11049613 -5.18060372 3.11049613 -3.75 0.75 C-2 -0.1875 -2 -0.1875 0 0 Z " fill="#080808" transform="translate(1064,1200.1875)"/>
<path d="M0 0 C1.65 0.33 3.3 0.66 5 1 C5.99435406 4.09354597 5.87840996 5.90279155 5 9 C6.72343755 9.84511824 8.45404053 10.67563354 10.1875 11.5 C11.15042969 11.9640625 12.11335938 12.428125 13.10546875 12.90625 C15.98922693 13.99592921 17.95354861 14.22277524 21 14 C21.66 12.68 22.32 11.36 23 10 C24.98 10 26.96 10 29 10 C29.4998202 16.12279743 28.45350289 19.10753758 25 24 C22.40996578 26.14347659 21.23710214 26.0185789 17.859375 25.75390625 C13.49523904 24.90139791 10.01909398 23.3983243 6.0625 21.4375 C5.37865234 21.10814453 4.69480469 20.77878906 3.99023438 20.43945312 C2.32268129 19.63482961 0.66073161 18.8186103 -1 18 C-1.33 19.32 -1.66 20.64 -2 22 C-6.75 21.125 -6.75 21.125 -9 20 C-8.67 18.02 -8.34 16.04 -8 14 C-10.475 13.01 -10.475 13.01 -13 12 C-13.33 9.69 -13.66 7.38 -14 5 C-11.5428064 3.4528781 -10.367721 2.95515598 -7.4375 3.3125 C-5.61098388 3.82767121 -3.80039058 4.39986981 -2 5 C-1.34 3.35 -0.68 1.7 0 0 Z " fill="#080808" transform="translate(1415,952)"/>
<path d="M0 0 C2.37890625 1.3671875 2.37890625 1.3671875 4 3 C4.3125 5.625 4.3125 5.625 4 8 C3 9 3 9 0.5 9.125 C-2 9 -2 9 -3 8 C-4.99958364 7.95919217 -7.00045254 7.95745644 -9 8 C-7.77861563 11.6641531 -6.96273559 11.81492961 -3.625 13.5 C-0.62397449 15.02495107 1.8847701 16.33588132 4 19 C4.42448242 22.82034174 4.31685106 25.28708511 2.75 28.8125 C0.84421736 31.1947283 -0.18921743 31.90772698 -3 33 C-5.83984375 33.265625 -5.83984375 33.265625 -8.9375 33.25 C-9.95714844 33.25515625 -10.97679687 33.2603125 -12.02734375 33.265625 C-15.09136799 32.99183571 -17.26363084 32.38759146 -20 31 C-21.3125 28.875 -21.3125 28.875 -22 27 C-21.01 25.68 -20.02 24.36 -19 23 C-18.319375 23.33 -17.63875 23.66 -16.9375 24 C-13.49159762 25.17307315 -10.61602578 25.14180493 -7 25 C-6.67 24.01 -6.34 23.02 -6 22 C-6.70125 21.7525 -7.4025 21.505 -8.125 21.25 C-12.24991314 19.4565595 -15.8156188 17.1843812 -19 14 C-19.62986739 10.91728364 -19.56997632 8.08959126 -19 5 C-14.38884438 -1.45561787 -7.4271119 -1.15149022 0 0 Z " fill="#060606" transform="translate(982,1210)"/>
<path d="M0 0 C0.36923077 7.38461538 0.36923077 7.38461538 -1.5 10.5 C-1.995 10.995 -2.49 11.49 -3 12 C-2.484375 12.4125 -1.96875 12.825 -1.4375 13.25 C0 15 0 15 -0.1875 17.0625 C-1 19 -1 19 -3 21 C-5.97793408 20.60294212 -8.34873742 19.35336416 -11 18 C-12.53839266 19.37645659 -14.05530581 20.77695032 -15.5625 22.1875 C-16.83287109 23.35345703 -16.83287109 23.35345703 -18.12890625 24.54296875 C-20.29585857 26.83339767 -20.29585857 26.83339767 -19.83984375 29.61328125 C-19.56269531 30.40089844 -19.28554688 31.18851563 -19 32 C-18 35 -18 35 -18.9375 37.1875 C-19.288125 37.785625 -19.63875 38.38375 -20 39 C-22.76392829 38.91870799 -24.5279718 38.39022472 -26.66796875 36.62109375 C-29.45484259 33.66210894 -30.86658034 31.5644678 -31.8125 27.5625 C-30.48975439 21.76276925 -26.52523067 18.24047062 -22.1640625 14.37109375 C-20.27251981 12.73189228 -20.27251981 12.73189228 -18 10 C-18.23283149 6.85078091 -18.23283149 6.85078091 -19 4 C-17.5625 2.125 -17.5625 2.125 -16 1 C-14.02 1.66 -12.04 2.32 -10 3 C-9.4740625 2.2575 -9.4740625 2.2575 -8.9375 1.5 C-6.05625711 -0.73063966 -3.52990974 -0.19980621 0 0 Z " fill="#060606" transform="translate(709,1069)"/>
<path d="M0 0 C4.32682523 1.46119016 8.04862391 3.45301488 11 7 C11.25 10.125 11.25 10.125 11 13 C10 14 10 14 7.75 14.375 C5 14 5 14 2.625 11.4375 C0.16050687 8.62680219 0.16050687 8.62680219 -3.5625 8.8125 C-7.1530255 9.7583444 -7.1530255 9.7583444 -9.5 12.625 C-11.31986474 16.71969565 -11.28785415 18.73398311 -10 23 C-7.59828424 25.48453354 -5.3736886 26.39755561 -2 27 C-2 29.64 -2 32.28 -2 35 C-8.5746828 34.72022626 -13.02210183 32.26676986 -18 28 C-21.29002766 24.23494161 -22.73344531 20.10414753 -22.44921875 15.046875 C-21.2896332 9.76319825 -17.85401781 5.97602036 -14.375 2 C-9.54578664 -0.86175606 -5.48171656 -0.85409181 0 0 Z " fill="#060606" transform="translate(780,1142)"/>
<path d="M0 0 C3.89487975 1.97910557 6.38991021 4.96354235 8 9 C8.33403245 13.78779839 7.66898085 17.15021351 4.6875 20.9375 C1.10559095 23.68640695 -0.81855606 24.82166884 -5.3125 25.5 C-10.22438844 24.83398123 -12.70893873 22.58855833 -16 19 C-17.86233425 15.27533151 -17.57130829 11.05504687 -17 7 C-13.16297555 -0.17294497 -7.52694471 -1.03899544 0 0 Z " fill="#050505" transform="translate(1472,763)"/>
<path d="M0 0 C3.89226984 1.97777939 6.39691769 4.96233007 8 9 C8.23974502 13.46724889 7.53895094 17.09533235 5.25 20.9375 C1.9767995 23.93793379 -0.56882422 24.81729671 -4.9375 25.375 C-9.57529799 24.80710637 -12.55922963 22.60846098 -15.64453125 19.1640625 C-18.03768785 15.34328798 -17.75260743 11.34459741 -17 7 C-13.12552464 -0.16060446 -7.55297575 -1.04258868 0 0 Z " fill="#050505" transform="translate(571,763)"/>
<path d="M0 0 C0.75 2.25 0.75 2.25 1 5 C-1.97935975 8.79749696 -5.29770305 10.18163528 -9.7421875 11.875 C-10.38817902 12.12620605 -11.03417053 12.37741211 -11.69973755 12.63623047 C-13.75444345 13.43422025 -15.81405512 14.21827893 -17.875 15 C-19.92830515 15.78285581 -21.98014978 16.56890783 -24.02883911 17.36376953 C-25.89234516 18.08628908 -27.76027063 18.79737967 -29.62841797 19.5078125 C-33.11537969 21.05106449 -35.90298554 22.79956739 -39 25 C-41.84574968 23.72431911 -44.18089981 22.58503711 -46 20 C-45.90112305 17.58032227 -45.90112305 17.58032227 -45 15 C-42.74536133 13.39038086 -42.74536133 13.39038086 -39.76953125 12.02734375 C-38.6810791 11.52444824 -37.59262695 11.02155273 -36.47119141 10.50341797 C-30.90949215 8.09457397 -25.33607383 5.76081058 -19.6875 3.5625 C-18.56021484 3.10423828 -17.43292969 2.64597656 -16.27148438 2.17382812 C-6.13155955 -1.77841771 -6.13155955 -1.77841771 0 0 Z " fill="#070707" transform="translate(629,934)"/>
<path d="M0 0 C-0.54723683 3.37462715 -1.0549 5.08235 -3 8 C-5.40076514 9.2619099 -7.75794421 10.38792492 -10.23828125 11.46875 C-10.95606247 11.79033081 -11.67384369 12.11191162 -12.41337585 12.4432373 C-14.7095048 13.47042131 -17.01062692 14.48576197 -19.3125 15.5 C-21.60275768 16.51612569 -23.89185208 17.53475067 -26.17948914 18.5567627 C-27.60242425 19.19172799 -29.02700625 19.8230194 -30.45344543 20.45007324 C-34.13000135 22.08297813 -37.60216719 23.8444165 -41 26 C-42.98 24.35 -44.96 22.7 -47 21 C-46.68824883 18.09032239 -46.10704356 17.09813268 -43.91772461 15.09106445 C-40.61437516 12.72363177 -37.18214386 10.97998204 -33.50390625 9.29296875 C-32.43715919 8.79848991 -32.43715919 8.79848991 -31.34886169 8.29402161 C-29.85207071 7.60377041 -28.35350155 6.9173634 -26.85327148 6.23461914 C-24.56552271 5.18888169 -22.28983053 4.11951391 -20.01367188 3.04882812 C-18.55276009 2.37873093 -17.09119224 1.71006183 -15.62890625 1.04296875 C-14.95372452 0.72224899 -14.27854279 0.40152924 -13.582901 0.0710907 C-8.56962606 -2.16646826 -4.95089349 -2.47544674 0 0 Z " fill="#070707" transform="translate(639,954)"/>
<path d="M0 0 C3.37503669 1.1858237 5.64722731 2.27573689 8 5 C7.01 6.485 7.01 6.485 6 8 C4.99765814 11.32594755 4.99765814 11.32594755 6 15 C9.04063033 17.81170257 12.4603905 19.87202048 16 22 C17.21300396 22.80551045 18.42242029 23.61650808 19.625 24.4375 C20.40875 24.953125 21.1925 25.46875 22 26 C20.25 31.75 20.25 31.75 18 34 C12.30734836 33.47525505 8.08073106 30.24455613 3.375 27.25 C2.51648437 26.7240625 1.65796875 26.198125 0.7734375 25.65625 C-7.07950691 20.69907884 -7.07950691 20.69907884 -9 16 C-9.0625 13.8125 -9.0625 13.8125 -8 12 C-4.9375 10.75 -4.9375 10.75 -2 10 C-2.04125 8.906875 -2.0825 7.81375 -2.125 6.6875 C-2 3 -2 3 0 0 Z " fill="#090909" transform="translate(1393,994)"/>
<path d="M0 0 C3 5.75 3 5.75 3 8 C1.02 8.66 -0.96 9.32 -3 10 C-3.40538885 15.65372657 -2.23345625 19.34854366 0.5 24.1875 C4 30.50506757 4 30.50506757 4 35 C1.1875 36.5625 1.1875 36.5625 -2 38 C-7.14643576 36.28452141 -8.70014217 30.96298864 -11.1875 26.375 C-11.74630859 25.38886719 -12.30511719 24.40273437 -12.88085938 23.38671875 C-15.79732316 18.052332 -17.91452725 14.12481553 -17 8 C-16.67 7.67 -16.34 7.34 -16 7 C-13.66055264 7.28730055 -11.3260857 7.61936779 -9 8 C-8.566875 7.05125 -8.13375 6.1025 -7.6875 5.125 C-5.62145317 1.29898736 -4.42606997 0 0 0 Z " fill="#080808" transform="translate(1241,1151)"/>
<path d="M0 0 C1.7734375 1.32421875 1.7734375 1.32421875 3 3 C3.4375 6.3125 3.4375 6.3125 2 10 C-4.53818657 14.58950881 -12.3128015 17.0611933 -20 19 C-20.83764268 17.04350603 -21.66999059 15.08474444 -22.5 13.125 C-22.9640625 12.03445313 -23.428125 10.94390625 -23.90625 9.8203125 C-25 7 -25 7 -25 5 C-8.40214226 -1.78452579 -8.40214226 -1.78452579 0 0 Z " fill="#F9F9F9" transform="translate(1468,608)"/>
<path d="M0 0 C3.15207323 0.41113999 5.98104753 0.99368251 9 2 C8.4532325 8.92903542 5.93348067 14.99687608 3.4375 21.4375 C3.01275391 22.55060547 2.58800781 23.66371094 2.15039062 24.81054688 C1.10669884 27.54290851 0.05641767 30.27253902 -1 33 C-4.33822957 32.38550003 -7.02209492 31.65439171 -10 30 C-9.41471156 23.47037583 -7.2860995 17.73991651 -5 11.625 C-4.44699219 10.11099609 -4.44699219 10.11099609 -3.8828125 8.56640625 C-1.14655517 1.14655517 -1.14655517 1.14655517 0 0 Z " fill="#080808" transform="translate(862,1185)"/>
<path d="M0 0 C3.87132028 0.57352893 6.08172796 2.48704352 9 5 C6.50917587 10.44474656 2.61904078 14.9580717 -1 19.6875 C-1.73734375 20.66267578 -2.4746875 21.63785156 -3.234375 22.64257812 C-3.94078125 23.56876953 -4.6471875 24.49496094 -5.375 25.44921875 C-6.34566406 26.72285278 -6.34566406 26.72285278 -7.3359375 28.0222168 C-9 30 -9 30 -11 31 C-13.31 29.35 -15.62 27.7 -18 26 C-16.56446623 22.91228941 -14.84553023 20.28684356 -12.8125 17.55859375 C-12.19632813 16.72779297 -11.58015625 15.89699219 -10.9453125 15.04101562 C-10.30335938 14.18185547 -9.66140625 13.32269531 -9 12.4375 C-7.72861318 10.72827615 -6.45775706 9.01865738 -5.1875 7.30859375 C-4.34251953 6.17635376 -4.34251953 6.17635376 -3.48046875 5.02124023 C-2.27708611 3.37829748 -1.12965491 1.69448236 0 0 Z " fill="#080808" transform="translate(753,1125)"/>
<path d="M0 0 C6.64168611 2.11644743 13.10461783 4.5673908 19.5625 7.1875 C20.47580078 7.55552734 21.38910156 7.92355469 22.33007812 8.30273438 C24.55436264 9.19943546 26.77763445 10.09855598 29 11 C28.25 17.625 28.25 17.625 26 21 C19.35831389 18.88355257 12.89538217 16.4326092 6.4375 13.8125 C5.52419922 13.44447266 4.61089844 13.07644531 3.66992188 12.69726562 C1.44563736 11.80056454 -0.77763445 10.90144402 -3 10 C-2.25 3.375 -2.25 3.375 0 0 Z " fill="#080808" transform="translate(1423,933)"/>
<path d="M0 0 C2.84383123 1.2748209 5.13754018 2.45137078 7 5 C6.59425765 8.61969915 4.98225031 10.42917007 2.5078125 13.00390625 C1.45013672 14.11475586 1.45013672 14.11475586 0.37109375 15.24804688 C-0.37011719 16.01181641 -1.11132812 16.77558594 -1.875 17.5625 C-2.60847656 18.33013672 -3.34195313 19.09777344 -4.09765625 19.88867188 C-6.05625718 21.93467849 -8.02174439 23.97300164 -10 26 C-10.53254395 26.57613037 -11.06508789 27.15226074 -11.61376953 27.74584961 C-13 29 -13 29 -14.9375 28.9375 C-17.54317359 27.75310292 -19.09490208 26.10921555 -21 24 C-19.66000502 20.993182 -18.20154709 19.00237391 -15.8125 16.75 C-12.56332956 13.60215504 -9.596569 10.29235094 -6.64453125 6.8671875 C-4.52869105 4.46487962 -2.2975339 2.22791166 0 0 Z " fill="#060606" transform="translate(716,1093)"/>
<path d="M0 0 C4.08540817 1.36180272 5.74263412 4.18511923 8.25 7.5 C8.73509033 8.12986816 9.22018066 8.75973633 9.7199707 9.40869141 C10.69515479 10.67560552 11.66760463 11.94462932 12.63720703 13.21582031 C14.4702076 15.61559963 16.32857578 17.99527288 18.1875 20.375 C19.12537819 21.58303982 20.06305076 22.79123955 21 24 C19.35 25.98 17.7 27.96 16 30 C12.09090086 29.83741541 11.03954765 29.04242593 8.31640625 26.12109375 C7.38481186 24.90353473 6.46737423 23.67504624 5.5625 22.4375 C5.08385498 21.80505371 4.60520996 21.17260742 4.11206055 20.52099609 C2.72929133 18.68933672 1.36375061 16.84583748 0 15 C-1.22887978 13.37478304 -2.45797528 11.7497291 -3.6875 10.125 C-4.450625 9.09375 -5.21375 8.0625 -6 7 C-4.46564493 3.70625112 -3.21115194 1.84884506 0 0 Z " fill="#070707" transform="translate(1293,1113)"/>
<path d="M0 0 C2 1.0625 2 1.0625 3 3 C2.82278354 8.49371014 2.05739775 12.94260225 -2 17 C-5.80781256 17.3592276 -8.17660511 17.49403694 -11.5 15.5 C-13.32284804 12.46191993 -13.18455369 10.41373244 -12.5546875 6.96875 C-11.79813201 4.28351081 -10.68060018 2.21839224 -9 0 C-5.85000502 -1.57499749 -3.36459118 -0.70833498 0 0 Z " fill="#F6F6F6" transform="translate(898,1203)"/>
<path d="M0 0 C3.35512268 3.27124461 4.26167905 6.12961181 4.5 10.6875 C4.34946684 13.66805648 4.2548016 14.67659796 2.375 17.0625 C-0.73578724 18.29044233 -2.68453042 18.55257826 -6 18 C-9.50196244 14.40338992 -10.93211295 12.06922097 -11.25 7.0625 C-11.19620396 4.59236504 -11.11352032 3.22704063 -10 1 C-6.69924166 -0.65037917 -3.52900648 -0.852074 0 0 Z " fill="#F7F7F7" transform="translate(1167,1195)"/>
<path d="M0 0 C3.05623277 2.09110663 3.86463014 3.29306849 4.5625 6.9375 C3.69227314 11.67540181 0.86174813 13.67875939 -2.9375 16.375 C-5.96638846 17.29284499 -7.9896992 16.89668534 -11 16 C-12.9375 14.3125 -12.9375 14.3125 -14 12 C-14.14315336 8.70747274 -13.69400196 6.8366051 -11.57421875 4.28125 C-7.92457994 0.85010398 -5.1858365 -1.15240811 0 0 Z " fill="#F6F6F6" transform="translate(671,1053)"/>
<path d="M0 0 C3.90008977 1.877821 5.60330628 2.87992361 7.0625 7 C7 10 7 10 6.125 12.375 C3.17259575 14.6327209 0.86709927 14.49009704 -2.7734375 14.3359375 C-6.16488858 13.82424488 -8.59291827 12.40708173 -11 10 C-11.39152344 6.47628908 -11.41041808 4.62383549 -9.4375 1.625 C-6.03503891 -0.64330739 -4.02281242 -0.55487068 0 0 Z " fill="#F5F5F5" transform="translate(1449,904)"/>
<path d="M0 0 C3.12928285 0.9903971 4.67834083 2.28240151 7.00390625 4.58203125 C7.71289062 5.2575 8.421875 5.93296875 9.15234375 6.62890625 C10.62890625 8.83203125 10.62890625 8.83203125 10.4296875 11.484375 C9.5214382 14.14709612 8.98723166 15.2869215 6.62890625 16.83203125 C3.5923589 17.37186189 1.60794185 17.4439285 -1.05859375 15.77734375 C-4.46582126 13.0089714 -6.20741501 11.33787565 -6.68359375 6.95703125 C-6.37109375 3.83203125 -6.37109375 3.83203125 -4.68359375 1.39453125 C-2.37109375 -0.16796875 -2.37109375 -0.16796875 0 0 Z " fill="#F8F8F8" transform="translate(1353.37109375,1066.16796875)"/>
<path d="M0 0 C1.875 0.37109375 1.875 0.37109375 3.875 1.80859375 C5.40168876 5.72073369 5.05954218 9.18813774 4.875 13.37109375 C0.255 13.37109375 -4.365 13.37109375 -9.125 13.37109375 C-9.48172998 5.28521431 -9.48172998 5.28521431 -8.125 1.80859375 C-5.40386096 -0.14722493 -3.29880783 -0.2001115 0 0 Z " fill="#070707" transform="translate(1002.125,626.62890625)"/>
<path d="M0 0 C2.4377963 -0.05397335 4.87439685 -0.09365616 7.3125 -0.125 C8.00279297 -0.14175781 8.69308594 -0.15851562 9.40429688 -0.17578125 C13.17135396 -0.21217794 14.78431704 -0.14378864 18 2 C16.42489875 3.48792961 14.83959136 4.9650606 13.25 6.4375 C11.92742188 7.67306641 11.92742188 7.67306641 10.578125 8.93359375 C8.21124968 10.83068018 6.9490809 11.62102932 4 12 C3.51801537 10.75108386 3.03954323 9.50081192 2.5625 8.25 C2.29566406 7.55390625 2.02882813 6.8578125 1.75390625 6.140625 C1.03853307 4.10940997 0.48634348 2.0964709 0 0 Z " fill="#F9F9F9" transform="translate(587,907)"/>
<path d="M0 0 C0.8146875 0.00257812 1.629375 0.00515625 2.46875 0.0078125 C3.2834375 0.00523438 4.098125 0.00265625 4.9375 0 C6.96875 0.1328125 6.96875 0.1328125 7.96875 1.1328125 C8.10990161 3.80340101 8.01122107 6.45713488 7.96875 9.1328125 C5.01210481 10.6111351 2.22645263 10.19314033 -1.03125 10.1328125 C-2.88189319 7.00985212 -3.32481154 4.75340482 -3.03125 1.1328125 C-2.03125 0.1328125 -2.03125 0.1328125 0 0 Z " fill="#0E0E0E" transform="translate(762.03125,1113.8671875)"/>
<path d="M0 0 C3.0190678 5.31355932 3.0190678 5.31355932 2.9375 8.25 C1.64541703 10.66188821 0.60605941 11.20370407 -2 12 C-4.625 11.875 -4.625 11.875 -7 11 C-9.09862498 8.10189884 -9 6.71621139 -9 3 C-2.25 0 -2.25 0 0 0 Z " fill="#0E0E0E" transform="translate(1414,927)"/>
<path d="M0 0 C3 5.625 3 5.625 3 9 C-2.28 12 -2.28 12 -5.25 12 C-7 11 -7 11 -8.3125 8.6875 C-9.03883895 5.84817502 -9.34543669 4.60117761 -8 2 C-5.10888212 0.47835901 -3.28176588 0 0 0 Z " fill="#0B0B0B" transform="translate(874,1170)"/>
<path d="M0 0 C6.93359375 -0.09765625 6.93359375 -0.09765625 9 0 C10 1 10 1 10.09765625 3.06640625 C10.06510417 5.37760417 10.03255208 7.68880208 10 10 C6.7 10 3.4 10 0 10 C0 6.7 0 3.4 0 0 Z " fill="#090909" transform="translate(723,1083)"/>
<path d="M0 0 C7.75 -0.125 7.75 -0.125 10 1 C9.67 3.97 9.34 6.94 9 10 C6.03 10 3.06 10 0 10 C-1.00000429 5.99998285 -0.80688405 3.94476647 0 0 Z " fill="#0B0B0B" transform="translate(1279,1102)"/>
<path d="M0 0 C-0.3125 2.875 -0.3125 2.875 -1 6 C-4.22213757 8.14809171 -5.27775401 8.29386153 -9 8 C-10 7 -10 7 -10.25 4.5625 C-10.1675 3.716875 -10.085 2.87125 -10 2 C-6.3558226 -0.4294516 -4.28758728 -0.16179575 0 0 Z " fill="#EEEEEE" transform="translate(1037,1230)"/>
<path d="M0 0 C-0.50740462 4.39750672 -3.08293314 6.86948922 -6 10 C-6.66 10 -7.32 10 -8 10 C-9.39935013 7.20129973 -9.25265405 5.09501208 -9 2 C-6.6888271 -1.98035333 -4.06268971 -0.99310193 0 0 Z " fill="#F0F0F0" transform="translate(1382,1034)"/>
<path d="M0 0 C3.94727588 -0.17942163 6.5980513 -0.09350689 10 2 C8.125 5.875 8.125 5.875 7 7 C4.0625 7.1875 4.0625 7.1875 1 7 C0.34 6.34 -0.32 5.68 -1 5 C-0.625 2.375 -0.625 2.375 0 0 Z " fill="#F8F8F8" transform="translate(798,1177)"/>
<path d="M0 0 C-2.49493496 2.81631641 -5.26562818 4.40955981 -8.5625 6.1875 C-9.53316406 6.71730469 -10.50382813 7.24710937 -11.50390625 7.79296875 C-14 9 -14 9 -16 9 C-16.33 9.66 -16.66 10.32 -17 11 C-16.8984375 8.7421875 -16.8984375 8.7421875 -16 6 C-13.1640625 3.9453125 -13.1640625 3.9453125 -9.625 2.125 C-8.46226562 1.50882812 -7.29953125 0.89265625 -6.1015625 0.2578125 C-3 -1 -3 -1 0 0 Z " fill="#171717" transform="translate(809,337)"/>
<path d="M0 0 C3.63 0 7.26 0 11 0 C11 0.99 11 1.98 11 3 C7.7 3 4.4 3 1 3 C0.67 2.01 0.34 1.02 0 0 Z " fill="#1E1E1E" transform="translate(1427,655)"/>
<path d="M0 0 C3.3 0.33 6.6 0.66 10 1 C10 1.99 10 2.98 10 4 C6.37 3.67 2.74 3.34 -1 3 C-0.67 2.01 -0.34 1.02 0 0 Z " fill="#303030" transform="translate(1072,358)"/>
<path d="M0 0 C3.3 0.33 6.6 0.66 10 1 C10 1.99 10 2.98 10 4 C6.37 3.67 2.74 3.34 -1 3 C-0.67 2.01 -0.34 1.02 0 0 Z " fill="#292929" transform="translate(1080,293)"/>
<path d="M0 0 C0 0.99 0 1.98 0 3 C-4.455 3.495 -4.455 3.495 -9 4 C-9 3.01 -9 2.02 -9 1 C-5.92677456 0.08941469 -3.19902639 -0.08886184 0 0 Z " fill="#242424" transform="translate(908,301)"/>
<path d="M0 0 C0.66 0.33 1.32 0.66 2 1 C1.67 1.99 1.34 2.98 1 4 C-1.31 3.01 -3.62 2.02 -6 1 C-6.33 2.32 -6.66 3.64 -7 5 C-7 3.35 -7 1.7 -7 0 C-4.30919898 -1.34540051 -2.86443593 -0.71610898 0 0 Z " fill="#343434" transform="translate(1218,333)"/>
<path d="M0 0 C0.99 0.33 1.98 0.66 3 1 C3.33 2.65 3.66 4.3 4 6 C3.34 6 2.68 6 2 6 C2 8.31 2 10.62 2 13 C1.67 13 1.34 13 1 13 C0.67 8.71 0.34 4.42 0 0 Z " fill="#3D3D3D" transform="translate(831,377)"/>
<path d="M0 0 C-2.35277269 2.72426311 -4.62496331 3.8141763 -8 5 C-8.33 4.01 -8.66 3.02 -9 2 C-3.375 -1.125 -3.375 -1.125 0 0 Z " fill="#212121" transform="translate(809,337)"/>
<path d="M0 0 C0.66 0.33 1.32 0.66 2 1 C-2.75 6.75 -2.75 6.75 -5 9 C-5.66 9 -6.32 9 -7 9 C-5.44499019 5.18315774 -2.96404505 2.80804268 0 0 Z " fill="#1A1A1A" transform="translate(664,440)"/>
<path d="M0 0 C0.99 0.33 1.98 0.66 3 1 C2.34 1 1.68 1 1 1 C0.34 3.31 -0.32 5.62 -1 8 C-1.66 7.67 -2.32 7.34 -3 7 C-2.625 4.0625 -2.625 4.0625 -2 1 C-1.34 0.67 -0.68 0.34 0 0 Z " fill="#181818" transform="translate(548,560)"/>
<path d="M0 0 C0 0.99 0 1.98 0 3 C-1.98 3.33 -3.96 3.66 -6 4 C-6 3.34 -6 2.68 -6 2 C-6.66 1.67 -7.32 1.34 -8 1 C-5.23735711 0.40267181 -2.83967231 0 0 0 Z " fill="#2E2E2E" transform="translate(954,358)"/>
<path d="M0 0 C1 3 1 3 0.0625 5.1875 C-0.4634375 6.0846875 -0.4634375 6.0846875 -1 7 C-1.66 7 -2.32 7 -3 7 C-2.625 4.0625 -2.625 4.0625 -2 1 C-1.34 0.67 -0.68 0.34 0 0 Z " fill="#111111" transform="translate(615,659)"/>
</svg>
