<?xml version="1.0" encoding="UTF-8"?>
<svg version="1.1" xmlns="http://www.w3.org/2000/svg" width="2000" height="1500">
<path d="M0 0 C660 0 1320 0 2000 0 C2000 495 2000 990 2000 1500 C1340 1500 680 1500 0 1500 C0 1005 0 510 0 0 Z " fill="#50A060" transform="translate(0,0)"/>
<path d="M0 0 C0.87817383 0.01546875 1.75634766 0.0309375 2.66113281 0.046875 C43.85982584 0.85900529 84.13058074 11.91189838 121 30 C122.0823291 30.53077148 122.0823291 30.53077148 123.18652344 31.07226562 C156.01132314 47.38772718 187.15603272 71.05245139 211 99 C212.25296875 100.42119141 212.25296875 100.42119141 213.53125 101.87109375 C226.49025409 116.68946394 237.32636583 132.88158926 247 150 C247.47179688 150.83370117 247.94359375 151.66740234 248.4296875 152.52636719 C267.86783751 187.28145723 279.07271991 225.46417944 283 265 C283.14139404 266.2845105 283.14139404 266.2845105 283.28564453 267.5949707 C284.10243283 275.4932697 284.24317847 283.37663147 284.25 291.3125 C284.25101212 292.38223053 284.25101212 292.38223053 284.25204468 293.47357178 C284.21753531 316.7419179 281.64555882 339.40845628 276 362 C275.55720703 363.89878906 275.55720703 363.89878906 275.10546875 365.8359375 C261.30608188 421.91563756 228.4922505 476.72968002 184 514 C183.43764648 514.47469727 182.87529297 514.94939453 182.29589844 515.43847656 C136.10098516 554.28474848 78.73029159 580.33995983 18.17797852 584.76635742 C15.96572439 584.96261711 15.96572439 584.96261711 13.69897461 585.51196289 C10.2741471 586.13125101 6.90600283 586.18104791 3.4375 586.203125 C2.70220566 586.21018463 1.96691132 586.21724426 1.20933533 586.22451782 C-69.38568463 586.74493442 -136.59854624 566.65297616 -192 522 C-192.86117432 521.30656494 -192.86117432 521.30656494 -193.73974609 520.59912109 C-200.51833012 515.09466166 -206.98050819 509.25650934 -213.375 503.3125 C-214.02927979 502.70680176 -214.68355957 502.10110352 -215.35766602 501.47705078 C-219.87952169 497.22545766 -223.96959699 492.7153434 -228 488 C-228.94850848 486.92790375 -229.8989147 485.8574823 -230.8515625 484.7890625 C-244.10883201 469.74934271 -255.11347562 453.41796332 -265 436 C-265.43940918 435.23107422 -265.87881836 434.46214844 -266.33154297 433.66992188 C-273.3875357 421.1983679 -278.84116894 408.22392241 -283.921875 394.83837891 C-284.84819072 392.39966818 -285.79574168 389.97081347 -286.75 387.54296875 C-312.42077006 320.57680012 -306.49496618 239.6413239 -277.625 174.75 C-264.50817079 146.16941643 -247.80420905 120.5692789 -227 97 C-226.52739746 96.4642334 -226.05479492 95.9284668 -225.56787109 95.37646484 C-168.78236474 31.46196003 -84.78041752 -2.05965181 0 0 Z " fill="#FEFEFE" transform="translate(1009,457)"/>
<path d="M0 0 C0.75418213 0.0012085 1.50836426 0.00241699 2.28540039 0.00366211 C58.55716999 0.24583095 109.54298812 23.46556083 149.5 62.4375 C176.06977268 89.74172168 194.31278322 124.54699727 202.9375 161.5 C203.23575684 162.7681958 203.23575684 162.7681958 203.54003906 164.06201172 C206.55665226 177.68333977 207.6008856 191.27213826 207.5625 205.1875 C207.56168427 206.31578217 207.56168427 206.31578217 207.56085205 207.46685791 C207.37682134 263.3989448 183.9666683 314.92103007 145.125 354.6875 C140.08063605 359.60375312 134.75099924 364.05986051 129.1875 368.375 C128.65592285 368.79362305 128.1243457 369.21224609 127.57666016 369.64355469 C84.393038 403.4634132 28.77531643 417.82597341 -25.5065918 411.59912109 C-29.6462692 411.0194933 -33.72530518 410.24746794 -37.8125 409.375 C-39.2351416 409.07698486 -39.2351416 409.07698486 -40.68652344 408.77294922 C-60.96875612 404.4014961 -79.54503604 397.12410809 -97.8125 387.375 C-99.56433594 386.45460938 -99.56433594 386.45460938 -101.3515625 385.515625 C-124.11902308 373.07832148 -144.96078719 354.81257621 -160.8125 334.375 C-161.23112305 333.84342285 -161.64974609 333.3118457 -162.08105469 332.76416016 C-184.9819791 303.52261657 -198.37110945 268.92534453 -203.8125 232.375 C-203.96936279 231.35925903 -203.96936279 231.35925903 -204.12939453 230.32299805 C-205.18114443 222.45557012 -205.05540615 214.48580742 -205.0625 206.5625 C-205.06350708 205.78254669 -205.06451416 205.00259338 -205.06555176 204.19900513 C-205.05491055 192.00277052 -204.33172613 180.33661905 -201.8125 168.375 C-201.51883779 166.85299822 -201.22587683 165.33086098 -200.93359375 163.80859375 C-190.21626133 110.16465035 -156.90847914 64.24282047 -112.02099609 33.84179688 C-91.03595169 19.90434974 -68.18535289 10.34272325 -43.6875 4.625 C-42.84203613 4.42616211 -41.99657227 4.22732422 -41.12548828 4.02246094 C-27.50540025 1.00612235 -13.91451455 -0.04184117 0 0 Z " fill="#FEFEFE" transform="translate(998.8125,543.625)"/>
<path d="M0 0 C11.90814407 9.89256327 19.31932183 21.35530353 22.0078125 36.66796875 C22.34499749 41.56434919 22.38864331 46.42937073 22.35737228 51.3355751 C22.34341168 53.73390287 22.35019836 56.13142365 22.36221313 58.52975464 C22.39287558 65.33874272 22.38830431 72.14752901 22.36816406 78.95654297 C22.35718901 83.14625869 22.37054765 87.33535959 22.39805984 91.52499008 C22.40345896 93.10764059 22.39954364 94.6903542 22.38566208 96.27295303 C22.29838682 106.33104467 22.76956111 114.92090185 29.88973999 122.73269653 C35.8562184 128.50817503 43.03888402 132.37059907 51.2578125 133.54296875 C56.03044525 134.31711233 58.06066049 136.12538693 60.94921875 139.9140625 C63.65817026 144.40232534 63.22756962 149.04356688 63.2578125 154.10546875 C63.28875 155.39420898 63.28875 155.39420898 63.3203125 156.70898438 C63.32804687 157.95518555 63.32804687 157.95518555 63.3359375 159.2265625 C63.3452832 159.98251709 63.35462891 160.73847168 63.36425781 161.51733398 C62.88125373 164.43156891 62.13090605 165.59193281 60.0078125 167.66796875 C57.40236034 168.0695778 55.21359796 168.20853996 52.60595703 168.17590332 C51.84596972 168.18214328 51.0859824 168.18838325 50.30296516 168.1948123 C47.74853904 168.21080642 45.19505871 168.19811357 42.640625 168.18554688 C40.81255535 168.19096516 38.98449007 168.19808617 37.15643311 168.20678711 C32.18538506 168.22505832 27.21466821 168.21793729 22.2436142 168.20527077 C17.04797963 168.19516274 11.85237393 168.20453032 6.65673828 168.21081543 C-2.06938788 168.21809825 -10.79537874 168.20848748 -19.52148438 168.18945312 C-29.61845937 168.1676832 -39.71511131 168.17473412 -49.81207848 168.19675875 C-58.47201496 168.21489466 -67.13185403 168.21747993 -75.79180336 168.20700407 C-80.96800662 168.20075918 -86.1440579 168.19996079 -91.32025146 168.21315002 C-96.18601396 168.22468161 -101.05135886 168.21673219 -105.91707611 168.193573 C-107.70575008 168.18827148 -109.49445902 168.18982423 -111.2831192 168.19862366 C-113.71933566 168.20950625 -116.15420231 168.19590544 -118.59033203 168.17590332 C-119.30326353 168.18482621 -120.01619503 168.19374909 -120.75073051 168.20294237 C-123.980952 168.15126658 -125.57480055 168.07716285 -127.93054199 165.76766205 C-129.11173775 163.43152556 -129.37865353 161.93896036 -129.390625 159.33203125 C-129.39449219 158.51476562 -129.39835938 157.6975 -129.40234375 156.85546875 C-129.39074219 156.00984375 -129.37914062 155.16421875 -129.3671875 154.29296875 C-129.37878906 153.45507812 -129.39039063 152.6171875 -129.40234375 151.75390625 C-129.37105869 145.12147434 -128.05588823 140.88267197 -123.4296875 135.91796875 C-120.79068645 133.85746793 -118.59063347 133.25726326 -115.3046875 132.73046875 C-106.37961396 131.26535879 -99.30070778 126.76930968 -93.4296875 119.98828125 C-88.53570028 112.08874752 -88.57439635 104.50145034 -88.61206245 95.51497841 C-88.62126338 93.11194628 -88.61084581 90.70967969 -88.59544373 88.3066864 C-88.55560481 81.47961477 -88.5541287 74.65260813 -88.55639648 67.82543945 C-88.55644803 63.63389538 -88.53705933 59.44276379 -88.50706291 55.25133324 C-88.49638024 52.90663151 -88.5082835 50.56276697 -88.52088928 48.21809387 C-88.47950185 31.76243008 -83.77628982 17.62162149 -72.4296875 5.41796875 C-52.38275695 -13.53049985 -22.58941276 -16.70585848 0 0 Z " fill="#FEFEFE" transform="translate(1032.9921875,664.33203125)"/>
<path d="M0 0 C0.75418213 0.0012085 1.50836426 0.00241699 2.28540039 0.00366211 C58.55716999 0.24583095 109.54298812 23.46556083 149.5 62.4375 C176.06977268 89.74172168 194.31278322 124.54699727 202.9375 161.5 C203.23575684 162.7681958 203.23575684 162.7681958 203.54003906 164.06201172 C206.55665226 177.68333977 207.6008856 191.27213826 207.5625 205.1875 C207.56168427 206.31578217 207.56168427 206.31578217 207.56085205 207.46685791 C207.37682134 263.3989448 183.9666683 314.92103007 145.125 354.6875 C140.08063605 359.60375312 134.75099924 364.05986051 129.1875 368.375 C128.65592285 368.79362305 128.1243457 369.21224609 127.57666016 369.64355469 C84.393038 403.4634132 28.77531643 417.82597341 -25.5065918 411.59912109 C-29.6462692 411.0194933 -33.72530518 410.24746794 -37.8125 409.375 C-39.2351416 409.07698486 -39.2351416 409.07698486 -40.68652344 408.77294922 C-60.96875612 404.4014961 -79.54503604 397.12410809 -97.8125 387.375 C-99.56433594 386.45460938 -99.56433594 386.45460938 -101.3515625 385.515625 C-124.11902308 373.07832148 -144.96078719 354.81257621 -160.8125 334.375 C-161.23112305 333.84342285 -161.64974609 333.3118457 -162.08105469 332.76416016 C-184.9819791 303.52261657 -198.37110945 268.92534453 -203.8125 232.375 C-203.96936279 231.35925903 -203.96936279 231.35925903 -204.12939453 230.32299805 C-205.18114443 222.45557012 -205.05540615 214.48580742 -205.0625 206.5625 C-205.06350708 205.78254669 -205.06451416 205.00259338 -205.06555176 204.19900513 C-205.05491055 192.00277052 -204.33172613 180.33661905 -201.8125 168.375 C-201.51883779 166.85299822 -201.22587683 165.33086098 -200.93359375 163.80859375 C-190.21626133 110.16465035 -156.90847914 64.24282047 -112.02099609 33.84179688 C-91.03595169 19.90434974 -68.18535289 10.34272325 -43.6875 4.625 C-42.84203613 4.42616211 -41.99657227 4.22732422 -41.12548828 4.02246094 C-27.50540025 1.00612235 -13.91451455 -0.04184117 0 0 Z M-36.8125 17.375 C-37.75617432 17.56835938 -38.69984863 17.76171875 -39.67211914 17.9609375 C-67.51537601 23.89607229 -93.31145008 35.97661511 -115.8125 53.375 C-116.37839844 53.81247559 -116.94429687 54.24995117 -117.52734375 54.70068359 C-154.86363884 84.03474517 -180.01899698 125.71497884 -188.8125 172.375 C-188.98910156 173.28942871 -189.16570313 174.20385742 -189.34765625 175.14599609 C-190.97440219 184.44894944 -191.21362338 193.58530289 -191.1875 203 C-191.1862915 203.80869537 -191.18508301 204.61739075 -191.18383789 205.45059204 C-190.96366389 260.09334937 -169.51552744 308.08604896 -131.14477539 346.41552734 C-120.27418614 356.99114348 -108.01821019 365.93286186 -94.8125 373.375 C-94.13558105 373.76252441 -93.45866211 374.15004883 -92.76123047 374.54931641 C-49.56289494 399.0931723 2.96148186 405.52645409 51.0234375 392.609375 C100.13508225 378.53549512 142.7692205 347.11552622 168.1875 302.375 C168.84105469 301.25351562 169.49460937 300.13203125 170.16796875 298.9765625 C194.66423122 255.84158194 199.9789628 201.85072427 186.94140625 154.29296875 C173.05263626 106.2417369 140.84597244 64.12504951 97.1875 39.375 C96.59130859 39.02518066 95.99511719 38.67536133 95.38085938 38.31494141 C67.72033027 22.15589389 35.19759383 13.75121022 3.24633789 13.98388672 C0.62268303 14.00001424 -1.99943715 13.98390322 -4.62304688 13.96484375 C-15.66928788 13.95094496 -26.01926028 15.05698879 -36.8125 17.375 Z " fill="#53A263" transform="translate(998.8125,543.625)"/>
<path d="M0 0 C5.66342592 3.27943759 9.77592151 8.1717705 11.6875 14.4375 C11.82460218 17.08357209 11.87812972 19.61219013 11.8125 22.25 C11.80347656 22.94287109 11.79445313 23.63574219 11.78515625 24.34960938 C11.76176157 26.04572395 11.72589641 27.74165871 11.6875 29.4375 C12.28175781 29.57285156 12.87601563 29.70820312 13.48828125 29.84765625 C30.45093337 34.25319731 42.57185488 46.62191377 51.37890625 61.24609375 C58.30109971 74.03220048 60.28365021 87.20278249 60.14278984 101.49565697 C60.12042622 103.8636504 60.1247657 106.23040082 60.13526917 108.59846497 C60.15665199 114.46134524 60.13947151 120.32392233 60.11376953 126.18676758 C60.09235396 131.18373528 60.09039492 136.17988978 60.11668587 141.17684364 C60.12101787 143.50223547 60.09648583 145.82618433 60.07115173 148.15141296 C60.07642098 149.57515094 60.08314242 150.99888454 60.09155273 152.42260742 C60.08614975 153.66008224 60.08074677 154.89755707 60.07518005 156.17253113 C61.06565642 161.45387877 64.42954173 163.57265369 68.6875 166.5 C72.0271552 168.33425264 75.46533452 169.284409 79.125 170.3125 C87.83798394 172.92040001 92.61754148 176.0787704 97.125 184.0625 C100.64013865 190.90121661 100.92506441 196.59402685 101 204.1875 C101.02900391 205.15171875 101.05800781 206.1159375 101.08789062 207.109375 C101.15319059 214.50334019 99.84980203 219.84523585 94.90625 225.4609375 C94.3390625 225.90695312 93.771875 226.35296875 93.1875 226.8125 C92.6203125 227.27398438 92.053125 227.73546875 91.46875 228.2109375 C87.41835765 231.00002346 84.59430452 231.68504878 79.63378906 231.66455078 C78.41282532 231.66439972 77.19186157 231.66424866 75.93389893 231.66409302 C74.62024353 231.65377045 73.30658813 231.64344788 71.953125 231.6328125 C70.59120898 231.62908042 69.22929027 231.62623437 67.86737061 231.62423706 C64.29002414 231.61661594 60.71284115 231.59698069 57.13555908 231.5748291 C53.4823223 231.55433778 49.82905899 231.54522833 46.17578125 231.53515625 C39.01294647 231.51373322 31.85024617 231.47961582 24.6875 231.4375 C24.699021 232.70352051 24.71054199 233.96954102 24.72241211 235.27392578 C24.80353621 244.18850007 20.35612475 250.90553562 14.28515625 257.1640625 C6.07128268 264.35274583 -1.9731407 266.445197 -12.60546875 265.82421875 C-23.22844544 264.71602624 -31.2578094 259.78665426 -37.9921875 251.48828125 C-42.1066159 245.09752707 -43.40616116 238.93480003 -43.3125 231.4375 C-44.06116837 231.44638245 -44.80983673 231.45526489 -45.58119202 231.4644165 C-52.65742225 231.54476457 -59.73349289 231.60556653 -66.81005192 231.64474869 C-70.44770425 231.66557046 -74.08497776 231.69378732 -77.72241211 231.73925781 C-81.23673125 231.78291134 -84.75068741 231.80667776 -88.26525688 231.81700897 C-90.24996295 231.82793132 -92.23452421 231.85912628 -94.2190094 231.89068604 C-102.35699681 231.89270013 -107.10244351 231.25473175 -113.23828125 225.69140625 C-113.69589844 225.13324219 -114.15351562 224.57507813 -114.625 224 C-115.09550781 223.44441406 -115.56601562 222.88882813 -116.05078125 222.31640625 C-121.48062754 214.23047417 -120.1919939 202.766045 -119.3125 193.4375 C-118.43467118 189.03505544 -116.67184186 185.24773908 -114.3125 181.4375 C-113.75369141 180.51130859 -113.75369141 180.51130859 -113.18359375 179.56640625 C-110.014717 175.1388119 -105.2679783 172.45144649 -100.3125 170.4375 C-96.4375 170.0625 -96.4375 170.0625 -94.5 169.9375 C-88.6345145 168.5968176 -82.61096954 164.3852043 -79.3125 159.4375 C-79.00267554 156.32750595 -79.00267554 156.32750595 -79.04125977 152.72558594 C-79.03341965 151.70768478 -79.03341965 151.70768478 -79.02542114 150.66921997 C-79.01517975 149.1943976 -79.00940049 147.71953907 -79.00753975 146.24468231 C-79.0038661 143.89620847 -78.98710484 141.54815329 -78.96678162 139.19976807 C-78.91151842 132.52193075 -78.88095264 125.84402807 -78.85620117 119.16601562 C-78.84013689 115.07751343 -78.80970864 110.98929883 -78.77143669 106.90094757 C-78.75993132 105.35595048 -78.75385763 103.81090144 -78.75375557 102.26586151 C-78.75258094 89.19636519 -78.00912389 75.85371461 -71.625 64.125 C-71.27687256 63.46113281 -70.92874512 62.79726563 -70.57006836 62.11328125 C-64.03953565 50.03612789 -54.93552479 40.89387006 -43.125 34 C-42.54282715 33.65759277 -41.9606543 33.31518555 -41.36083984 32.96240234 C-37.69681892 30.91617956 -34.47879758 29.88637273 -30.3125 29.4375 C-30.35890625 28.4475 -30.4053125 27.4575 -30.453125 26.4375 C-30.93391694 12.05745024 -30.93391694 12.05745024 -26.3125 6.4375 C-18.96314677 -1.11887727 -10.29703058 -4.65155435 0 0 Z M-51.05859375 57.7109375 C-61.50030189 70.34232794 -64.91983516 84.14330681 -64.7983551 100.21083641 C-64.78079383 102.60516326 -64.78875705 104.99831434 -64.8026123 107.39265442 C-64.82770607 112.47018742 -64.82249261 117.54743048 -64.8125 122.625 C-64.80090926 128.52803921 -64.80232509 134.43049325 -64.83656311 140.33345985 C-64.84358216 142.67449079 -64.82708557 145.0145598 -64.80944824 147.35551453 C-64.81190011 156.4990682 -65.50166681 164.50982857 -71.28515625 171.98828125 C-78.11498133 177.74575997 -85.21925575 181.87560681 -94.125 183.3125 C-98.55881328 184.13239725 -100.50391464 186.19201383 -103.21875 189.68359375 C-105.99429487 194.13437821 -105.53230125 198.82048475 -105.5625 203.875 C-105.583125 204.73416016 -105.60375 205.59332031 -105.625 206.47851562 C-105.63015625 207.30931641 -105.6353125 208.14011719 -105.640625 208.99609375 C-105.6499707 209.75204834 -105.65931641 210.50800293 -105.66894531 211.28686523 C-105.18594123 214.20110016 -104.43559355 215.36146406 -102.3125 217.4375 C-99.70704784 217.83910905 -97.51828546 217.97807121 -94.91064453 217.94543457 C-94.15065722 217.95167453 -93.3906699 217.9579145 -92.60765266 217.96434355 C-90.05322654 217.98033767 -87.49974621 217.96764482 -84.9453125 217.95507812 C-83.11724285 217.96049641 -81.28917757 217.96761742 -79.46112061 217.97631836 C-74.49007256 217.99458957 -69.51935571 217.98746854 -64.5483017 217.97480202 C-59.35266713 217.96469399 -54.15706143 217.97406157 -48.96142578 217.98034668 C-40.23529962 217.9876295 -31.50930876 217.97801873 -22.78320312 217.95898438 C-12.68622813 217.93721445 -2.58957619 217.94426537 7.50739098 217.96629 C16.16732746 217.98442591 24.82716653 217.98701118 33.48711586 217.97653532 C38.66331912 217.97029043 43.8393704 217.96949204 49.01556396 217.98268127 C53.88132646 217.99421286 58.74667136 217.98626344 63.61238861 217.96310425 C65.40106258 217.95780273 67.18977152 217.95935548 68.9784317 217.96815491 C71.41464816 217.9790375 73.84951481 217.96543669 76.28564453 217.94543457 C76.99857603 217.95435746 77.71150753 217.96328034 78.44604301 217.97247362 C81.67672867 217.9207904 83.26987801 217.84734793 85.62486267 215.53620148 C87.49643091 211.83986697 87.15928388 208.19231498 87.125 204.125 C87.14498047 203.29548828 87.16496094 202.46597656 87.18554688 201.61132812 C87.18015207 194.77610641 85.41325829 191.03398663 81.28125 185.58203125 C79.02901801 183.96461955 76.90024393 183.64970179 74.1875 183.125 C64.12248677 180.76392072 55.4218249 176.30388823 49.6875 167.4375 C47.20006375 162.39114305 46.31203672 158.75842138 46.30273438 153.0402832 C46.2973616 152.33677231 46.29198883 151.63326141 46.28645325 150.90843201 C46.27672843 149.39220727 46.27371496 147.87592722 46.27680969 146.35967445 C46.2813243 143.94859881 46.26718334 141.53824322 46.24841309 139.12724304 C46.21176469 134.00150688 46.19795772 128.87584779 46.1875 123.75 C46.1753591 117.82147157 46.1534743 111.89329657 46.10749817 105.96492577 C46.09408608 103.60979567 46.09807057 101.25513085 46.10290527 98.89997864 C46.03949529 81.7542944 42.03188427 68.32562435 30.0234375 55.71875 C18.11370269 44.08783842 4.88669618 39.13604774 -11.53710938 39.12280273 C-27.0617537 39.35891369 -40.46953258 46.4589977 -51.05859375 57.7109375 Z " fill="#53A263" transform="translate(1009.3125,614.5625)"/>
<path d="M0 0 C3.88949634 0.55313379 5.62670023 2.28128993 8.3125 5.0625 C9.49585938 6.28646484 9.49585938 6.28646484 10.703125 7.53515625 C13.26929942 10.28899309 15.7741563 13.08211626 18.2265625 15.9375 C20.27102383 18.31519952 22.35192764 20.65830471 24.4375 23 C25.11683594 23.763125 25.79617188 24.52625 26.49609375 25.3125 C26.99238281 25.869375 27.48867187 26.42625 28 27 C26.40248759 31.62391093 23.93360774 35.39279386 21.25 39.4375 C20.25306108 40.959082 19.25701118 42.48124674 18.26171875 44.00390625 C17.73239746 44.81230957 17.20307617 45.62071289 16.65771484 46.45361328 C13.75915141 50.90604578 10.91139569 55.39068546 8.0625 59.875 C7.47936035 60.79224854 6.8962207 61.70949707 6.29541016 62.65454102 C0.5117985 71.75801924 -5.2478464 80.87662085 -11 90 C5.9635317 80.59258372 5.9635317 80.59258372 22.75 70.875 C29.28896448 67.00041955 35.85080099 63.16798397 42.4375 59.375 C43.35692383 58.84116699 44.27634766 58.30733398 45.22363281 57.75732422 C46.07666992 57.2676416 46.92970703 56.77795898 47.80859375 56.2734375 C48.95026001 55.61480713 48.95026001 55.61480713 50.11499023 54.94287109 C52 54 52 54 54 54 C55.48046875 55.50390625 55.48046875 55.50390625 57.1875 57.5625 C59.53279758 60.3253868 61.90829405 62.96679757 64.5 65.5 C69.73162711 70.64933185 74.48221232 76.21723177 79 82 C74.73173127 82 74.06117568 81.62386487 71 79 C70.56357178 79.41137207 70.12714355 79.82274414 69.67749023 80.24658203 C56.8374916 92.34687598 43.9826757 104.43022516 30.9987793 116.3762207 C27.93126053 119.20296535 24.88101081 122.04699715 21.84375 124.90625 C21.13275146 125.575354 20.42175293 126.24445801 19.68920898 126.93383789 C18.30966296 128.23356631 16.93148572 129.53474969 15.55493164 130.83764648 C11.80714102 134.3688073 7.99273618 137.74780222 4 141 C4.62759865 143.92879371 5.58622659 146.36095629 7 149 C4 149 4 149 1.828125 146.9375 C0.97734375 145.968125 0.1265625 144.99875 -0.75 144 C-1.71981501 142.90488502 -2.69126341 141.81121506 -3.6640625 140.71875 C-4.19161133 140.12449219 -4.71916016 139.53023437 -5.26269531 138.91796875 C-7.14781886 136.83680931 -9.07841745 134.80650559 -11.0234375 132.78125 C-12.0429248 131.71583984 -12.0429248 131.71583984 -13.08300781 130.62890625 C-14.42894543 129.22568099 -15.77975952 127.82711455 -17.13574219 126.43359375 C-17.75352539 125.78519531 -18.37130859 125.13679688 -19.0078125 124.46875 C-19.56098145 123.89576172 -20.11415039 123.32277344 -20.68408203 122.73242188 C-22.13277064 120.82520586 -22.58925901 119.34013432 -23 117 C-20.50638429 118.20381448 -18.31856917 119.45428722 -16 121 C-15.38125 120.36384766 -15.38125 120.36384766 -14.75 119.71484375 C-11.59901858 116.51462825 -8.40362098 113.43163447 -5 110.5 C-1.80404653 107.74656316 1.17230063 104.85322821 4.12524414 101.84350586 C5.93223688 100.06663359 7.79344934 98.40563127 9.71484375 96.75390625 C13.93292509 93.08596732 18.00697737 89.28344353 22.0625 85.4375 C23.54140555 84.04008819 25.02057814 82.64295894 26.5 81.24609375 C27.2425 80.54468262 27.985 79.84327148 28.75 79.12060547 C32.34257063 75.73463884 35.95163996 72.36644065 39.5625 69 C40.21162354 68.39470459 40.86074707 67.78940918 41.52954102 67.16577148 C43.01940646 65.77687247 44.50965551 64.38838497 46 63 C26.76139595 73.45141343 7.73646955 84.25237885 -11.14746094 95.33056641 C-15.75593913 98.02765421 -20.37744454 100.70213259 -25 103.375 C-25.81388184 103.84574951 -26.62776367 104.31649902 -27.46630859 104.80151367 C-29.31066727 105.8680306 -31.15529866 106.93407588 -33 108 C-36.60917529 105.08096446 -39.86478257 102.23955656 -42.875 98.6875 C-43.47054688 97.99011719 -44.06609375 97.29273438 -44.6796875 96.57421875 C-45.11539062 96.05472656 -45.55109375 95.53523438 -46 95 C-39.45015553 83.11402026 -32.22868813 71.66479131 -25.00097656 60.18310547 C-22.39266976 56.03387363 -19.79795896 51.87623192 -17.20361328 47.71826172 C-10.17498103 36.45393939 -3.10340703 25.21729826 4 14 C0.21586772 17.18981457 -3.49517115 20.37465198 -6.9375 23.9375 C-10.18041781 27.23050149 -13.56329888 30.27371307 -17.06640625 33.28515625 C-19.56431556 35.5004738 -21.88024989 37.8689817 -24.21875 40.25 C-26.71896185 42.70634849 -29.37680516 44.96309368 -32.03125 47.25 C-33.93023071 48.93798286 -35.72005988 50.68769734 -37.5 52.5 C-40.45422934 55.50080503 -43.54616079 58.27454415 -46.734375 61.0234375 C-51.22353277 64.93984066 -55.60194516 68.98192417 -60 73 C-58.79618552 75.49361571 -57.54571278 77.68143083 -56 80 C-60 80 -60 80 -61.78125 78.6796875 C-65.30253737 74.98233576 -68.33930926 71.36353281 -71 67 C-69.68 67 -68.36 67 -67 67 C-66.34 67.99 -65.68 68.98 -65 70 C-62.08676185 68.67590922 -59.94753755 67.22191076 -57.63671875 65.015625 C-57.00483643 64.4172583 -56.3729541 63.8188916 -55.72192383 63.20239258 C-55.05056396 62.55810303 -54.3792041 61.91381348 -53.6875 61.25 C-52.24760028 59.88389906 -50.80749126 58.5180187 -49.3671875 57.15234375 C-48.63854492 56.45866699 -47.90990234 55.76499023 -47.15917969 55.05029297 C-43.89544969 51.95115179 -40.60518212 48.88081809 -37.3125 45.8125 C-36.69262207 45.23395264 -36.07274414 44.65540527 -35.43408203 44.05932617 C-30.97240697 39.89756113 -26.49154472 35.75703793 -22.0012207 31.6262207 C-18.92054803 28.78757725 -15.8579802 25.93084316 -12.80859375 23.05859375 C-12.0930835 22.38497803 -11.37757324 21.7113623 -10.64038086 21.01733398 C-9.24769442 19.70471073 -7.8564997 18.39050236 -6.46704102 17.07446289 C-3.08681382 13.88863393 0.31348953 10.83577728 4 8 C3.71125 7.4225 3.4225 6.845 3.125 6.25 C2.08333333 4.16666667 1.04166667 2.08333333 0 0 Z " fill="#FBFDFC" transform="translate(1354,385)"/>
<path d="M0 0 C10.81083285 5.88774589 20.32441722 14.27963686 24.91015625 25.98046875 C27.40760803 35.5204243 25.31105342 43.95378182 20.5390625 52.3828125 C15.38696891 60.05010139 9.47861707 65.69125752 1.5390625 70.3828125 C0.4665625 71.0221875 -0.6059375 71.6615625 -1.7109375 72.3203125 C-9.93379301 74.65012156 -17.90248004 74.57246693 -25.7109375 70.9453125 C-36.66541042 64.70856592 -43.54291956 56.75312356 -48.8359375 45.4453125 C-50.81487932 35.74849758 -49.2326115 28.02497268 -44.4609375 19.3828125 C-34.21829166 4.09528139 -18.79017404 -8.5301425 0 0 Z " fill="#FCFDFC" transform="translate(696.4609375,434.6171875)"/>
<path d="M0 0 C0.66 0 1.32 0 2 0 C1.67 2.64 1.34 5.28 1 8 C1.62600098 8.22848633 2.25200195 8.45697266 2.89697266 8.69238281 C12.26922785 12.11581113 21.63529648 15.55598097 31 19 C32.58669495 19.58334106 32.58669495 19.58334106 34.20544434 20.1784668 C41.41119977 22.82816755 48.61520177 25.48257424 55.81756592 28.14147949 C58.26963341 29.04609418 60.7221476 29.94949896 63.17510986 30.85168457 C66.67004624 32.13741868 70.16331957 33.42757798 73.65625 34.71875 C74.71141815 35.10589172 75.7665863 35.49303345 76.85372925 35.89190674 C81.72096481 37.69604664 86.42612617 39.53954443 91 42 C90.02567877 44.98077372 89.04473557 47.95932578 88.0625 50.9375 C87.78470703 51.78763672 87.50691406 52.63777344 87.22070312 53.51367188 C86.95322266 54.32255859 86.68574219 55.13144531 86.41015625 55.96484375 C86.16402588 56.7137085 85.91789551 57.46257324 85.66430664 58.23413086 C85 60 85 60 84 61 C82.47630572 61.31245521 80.94058334 61.56645908 79.40234375 61.796875 C78.39373291 61.94833984 77.38512207 62.09980469 76.34594727 62.25585938 C75.22115967 62.41892578 74.09637207 62.58199219 72.9375 62.75 C71.75663818 62.92337891 70.57577637 63.09675781 69.35913086 63.27539062 C57.75225665 64.94797437 46.11775154 66.38669236 34.47903442 67.81762695 C17.28391753 69.93259641 0.08614793 72.11739645 -17 75 C-16.450522 75.20107864 -15.90104401 75.40215729 -15.33491516 75.60932922 C-8.32650062 78.17448259 -1.31921702 80.74271365 5.6875 83.3125 C6.80224701 83.72128387 7.91699402 84.13006775 9.06552124 84.55123901 C23.68567054 89.91509023 38.28776877 95.3178519 52.82104492 100.91333008 C53.86623291 101.31447021 54.9114209 101.71561035 55.98828125 102.12890625 C56.87040283 102.46994385 57.75252441 102.81098145 58.66137695 103.16235352 C60.76229526 103.91485907 62.82561703 104.5062083 65 105 C65.66 103.02 66.32 101.04 67 99 C68.485 99.495 68.485 99.495 70 100 C69.07633369 102.65143047 68.13705596 105.29535493 67.1875 107.9375 C66.79594727 109.06961914 66.79594727 109.06961914 66.39648438 110.22460938 C65.68489913 112.18366505 64.84938443 114.09663488 64 116 C62.515 116.495 62.515 116.495 61 117 C61.875 111.25 61.875 111.25 63 109 C62.42677002 108.837276 61.85354004 108.674552 61.26293945 108.50689697 C54.11949218 106.42708071 47.16215401 103.94353514 40.1875 101.359375 C38.37499756 100.69146942 38.37499756 100.69146942 36.52587891 100.0100708 C33.9770057 99.07059858 31.42888679 98.1291188 28.88134766 97.18603516 C25.6734003 95.9985451 22.46399148 94.81506893 19.25405884 93.63295746 C-4.98867786 84.70291492 -4.98867786 84.70291492 -16.72509766 80.02947998 C-19.78506891 78.81797224 -22.77185644 77.67150314 -26 77 C-26.66 79.31 -27.32 81.62 -28 84 C-28.99 83.34 -29.98 82.68 -31 82 C-29.26417594 77.04321991 -27.5039157 72.09609225 -25.72045898 67.15625 C-25.11730655 65.47475378 -24.52089394 63.79082405 -23.93139648 62.10449219 C-23.08258126 59.6801217 -22.20986965 57.26555135 -21.33203125 54.8515625 C-21.07347855 54.0963028 -20.81492584 53.34104309 -20.54853821 52.56289673 C-19.39295517 49.44786238 -18.61199572 47.38638038 -15.74902344 45.57885742 C-12.39781444 44.87319876 -9.08166094 44.32545868 -5.68359375 43.88671875 C-4.96617004 43.79201294 -4.24874634 43.69730713 -3.50958252 43.59973145 C-1.15294794 43.28978229 1.2047379 42.98874041 3.5625 42.6875 C6.0403852 42.36349483 8.5179542 42.03713761 10.99552917 41.71076965 C12.70816581 41.48537825 14.42090557 41.26076917 16.13374329 41.03691101 C25.53404674 39.80678041 34.92331173 38.49932723 44.3125 37.1875 C45.89981028 36.9663133 47.48713097 36.74520126 49.07446289 36.52416992 C52.71641958 36.01690699 56.35825099 35.50875211 60 35 C59.34124878 34.75610031 58.68249756 34.51220062 58.00378418 34.26091003 C51.76656815 31.95157509 45.52941162 29.64207956 39.29232025 27.33240795 C36.08651402 26.1452648 32.8806856 24.95818168 29.67480469 23.77124023 C25.98105183 22.40366658 22.28739868 21.03582374 18.59375 19.66796875 C17.4538562 19.24597702 16.3139624 18.82398529 15.13952637 18.38920593 C9.42176067 16.27152974 3.70710889 14.14623723 -2 12 C-2.66 14.31 -3.32 16.62 -4 19 C-4.66 18.67 -5.32 18.34 -6 18 C-5.41347648 13.51006131 -4.2356462 9.77456816 -2.4375 5.625 C-1.98246094 4.56539062 -1.52742187 3.50578125 -1.05859375 2.4140625 C-0.70925781 1.61742187 -0.35992188 0.82078125 0 0 Z " fill="#FAFCFB" transform="translate(551,549)"/>
<path d="M0 0 C3.45599768 2.36019354 6.11928374 4.45990299 7.921875 8.3125 C8.77771561 13.3252807 8.59753379 17.65713596 6.671875 22.375 C4.24242913 25.06474364 2.11776713 26.14526956 -1.48046875 26.6484375 C-8.35638151 26.75438377 -8.35638151 26.75438377 -12.140625 24.4375 C-14.89373888 21.41795574 -15.2160805 19.80279297 -15.203125 15.8125 C-15.20570312 15.0184375 -15.20828125 14.224375 -15.2109375 13.40625 C-15.078125 11.3125 -15.078125 11.3125 -14.078125 9.3125 C-12.098125 9.3125 -10.118125 9.3125 -8.078125 9.3125 C-8.078125 6.6725 -8.078125 4.0325 -8.078125 1.3125 C-10.98867701 -0.142776 -12.85904298 -0.13817148 -16.078125 0.3125 C-24.82974972 9.30722541 -23.11052469 27.55662293 -24.078125 39.3125 C-23.28148437 39.30089844 -22.48484375 39.28929687 -21.6640625 39.27734375 C-11.13963642 39.18771968 -11.13963642 39.18771968 -6.078125 40.3125 C-6.078125 41.3025 -6.078125 42.2925 -6.078125 43.3125 C-8.30755248 43.17070962 -10.53666128 43.02390302 -12.765625 42.875 C-14.00699219 42.79378906 -15.24835938 42.71257812 -16.52734375 42.62890625 C-19.45992837 42.36758683 -22.21254117 41.96451621 -25.078125 41.3125 C-25.11776367 41.8708252 -25.15740234 42.42915039 -25.19824219 43.00439453 C-26.6817874 63.49125236 -28.86267775 83.89458991 -31.078125 104.3125 C-30.32684326 104.30669922 -29.57556152 104.30089844 -28.80151367 104.29492188 C-27.8138501 104.29041016 -26.82618652 104.28589844 -25.80859375 104.28125 C-24.83043701 104.27544922 -23.85228027 104.26964844 -22.84448242 104.26367188 C-19.84160623 104.31667472 -17.01323574 104.67788146 -14.078125 105.3125 C-14.078125 106.3025 -14.078125 107.2925 -14.078125 108.3125 C-24.26724023 107.77525574 -34.35950927 106.63754099 -44.48583984 105.41674805 C-51.67399125 104.55754358 -58.85979733 103.86413664 -66.078125 103.3125 C-66.078125 102.3225 -66.078125 101.3325 -66.078125 100.3125 C-63.438125 100.3125 -60.798125 100.3125 -58.078125 100.3125 C-58.0356665 99.66772705 -57.99320801 99.0229541 -57.94946289 98.35864258 C-57.08413332 86.21301683 -55.76646723 74.11062492 -54.515625 62 C-54.27914588 59.69858322 -54.04281648 57.39715105 -53.80664062 55.09570312 C-53.2321959 49.50112337 -52.65589936 43.90673682 -52.078125 38.3125 C-54.388125 37.9825 -56.698125 37.6525 -59.078125 37.3125 C-59.078125 36.6525 -59.078125 35.9925 -59.078125 35.3125 C-56.438125 35.3125 -53.798125 35.3125 -51.078125 35.3125 C-50.98015625 34.41789062 -50.8821875 33.52328125 -50.78125 32.6015625 C-49.21011321 19.89702537 -46.19004934 9.18755667 -36.10546875 0.640625 C-26.6890855 -5.27160152 -9.80496483 -5.00679055 0 0 Z " fill="#FCFDFC" transform="translate(1096.078125,253.6875)"/>
<path d="M0 0 C2.19192275 1.2014147 4.07865977 2.49317849 6.0234375 4.05859375 C7.0546875 4.75984375 8.0859375 5.46109375 9.1484375 6.18359375 C17.17059413 13.33668341 22.02392424 24.44374534 23.40234375 34.9453125 C23.74277595 42.81917995 21.75207052 48.91017103 16.5859375 54.87109375 C15.7403125 55.59296875 14.8946875 56.31484375 14.0234375 57.05859375 C13.2809375 57.75984375 12.5384375 58.46109375 11.7734375 59.18359375 C8.10094483 61.68756603 4.26879423 62.83770685 0.0234375 64.05859375 C-5.12934188 52.25121989 -9.49655559 40.13220506 -13.9765625 28.05859375 C-18.81131585 28.61957276 -22.74138285 30.12017616 -27.0390625 32.30859375 C-27.63783203 32.59605469 -28.23660156 32.88351562 -28.85351562 33.1796875 C-33.4839117 35.50249298 -37.61096556 38.32739987 -39.9765625 43.05859375 C-40.79909872 49.5579783 -39.74738624 54.67693269 -35.9765625 60.05859375 C-31.39650932 64.40964427 -27.49666425 66.23572934 -21.2265625 66.68359375 C-20.24171875 66.75835938 -19.256875 66.833125 -18.2421875 66.91015625 C-17.12070313 66.98363281 -17.12070313 66.98363281 -15.9765625 67.05859375 C-15.9765625 68.04859375 -15.9765625 69.03859375 -15.9765625 70.05859375 C-24.15114611 70.67296747 -30.29717706 69.6081477 -36.91796875 64.5859375 C-46.60452374 55.73623391 -49.76809994 42.90398975 -50.3515625 30.24609375 C-50.26200421 22.28535697 -47.23406797 16.30447564 -42.0390625 10.37109375 C-31.34383525 0.38730069 -14.095169 -4.4579209 0 0 Z " fill="#FBFDFB" transform="translate(1453.9765625,587.94140625)"/>
<path d="M0 0 C4.82172313 0.59050014 8.93138928 2.04791179 13.33203125 4.01953125 C14.00924728 4.31937424 14.68646332 4.61921722 15.38420105 4.92814636 C16.80525209 5.56073785 18.22461174 6.19714127 19.64233398 6.8371582 C21.81666649 7.81437255 24.00047726 8.76778429 26.18554688 9.72070312 C27.56834821 10.33971841 28.95053293 10.96011338 30.33203125 11.58203125 C30.9861348 11.86448196 31.64023834 12.14693268 32.31416321 12.4379425 C36.79278952 14.49965981 36.79278952 14.49965981 37.91674805 17.21362305 C37.94422119 17.80312744 37.97169434 18.39263184 38 19 C35.69 18.01 33.38 17.02 31 16 C29.88656829 25.70106987 28.82957099 35.40691292 27.875 45.125 C27.74375732 46.41990356 27.74375732 46.41990356 27.60986328 47.7409668 C27.11676961 52.85495338 26.91694212 57.86227664 27 63 C33.2645593 56.87777091 33.2645593 56.87777091 39.125 50.375 C43.4106289 45.34448798 48.19341586 40.78768913 52.93408203 36.19091797 C53.57200684 35.56459473 54.20993164 34.93827148 54.8671875 34.29296875 C55.73512939 33.45028442 55.73512939 33.45028442 56.62060547 32.59057617 C58.23434293 30.934719 58.23434293 30.934719 59 28 C58.030625 27.731875 57.06125 27.46375 56.0625 27.1875 C55.051875 26.795625 54.04125 26.40375 53 26 C52.505 24.515 52.505 24.515 52 23 C58.20477864 24.93624298 64.10825719 27.25609141 70 30 C70 30.99 70 31.98 70 33 C68.865625 32.649375 67.73125 32.29875 66.5625 31.9375 C63.40799908 31.53622073 62.32440903 31.76527401 59.7109375 33.65625 C57.35559366 36.0196878 55.15833781 38.45568208 53 41 C51.89606987 42.27103881 50.79191706 43.54188426 49.6875 44.8125 C49.13449219 45.45832031 48.58148437 46.10414063 48.01171875 46.76953125 C45.44193129 49.61875191 42.7291689 52.30433325 40 55 C36.71531368 58.24451281 33.49265951 61.4792241 30.5 65 C27.02499607 69.08823992 23.22120995 72.80904065 19.40454102 76.57373047 C16.62137165 79.33289571 13.96068443 82.12149853 11.4375 85.125 C4.69315601 92.98791811 -3.17137299 101.78051985 -13.80859375 103.4375 C-21.56989321 103.91207627 -27.10156204 102.08969419 -33 97 C-36.02769424 93.55539978 -37.73306787 90.45329717 -38.5625 85.9375 C-37.78916568 81.89897632 -36.30402358 79.42312075 -34 76 C-29.94548612 73.29699075 -26.76223357 73.34450185 -22 74 C-18.00208393 75.52839353 -15.40753664 77.38869504 -13 81 C-12.29842592 86.26180564 -13.84078305 88.85352775 -17 93 C-18.2065625 92.7215625 -18.2065625 92.7215625 -19.4375 92.4375 C-20.283125 92.293125 -21.12875 92.14875 -22 92 C-23.29633621 93.06645115 -23.29633621 93.06645115 -23.0625 95.5625 C-23.041875 96.366875 -23.02125 97.17125 -23 98 C-19.22110202 99.88944899 -15.69152142 99.5282295 -11.7734375 98.3046875 C-3.61757457 94.71823312 5.85184724 87.42877479 10.375 79.62890625 C10.58125 79.09136719 10.7875 78.55382812 11 78 C10.36191406 77.79503906 9.72382812 77.59007812 9.06640625 77.37890625 C8.24011719 77.10949219 7.41382813 76.84007812 6.5625 76.5625 C5.73878906 76.29566406 4.91507813 76.02882813 4.06640625 75.75390625 C2 75 2 75 1 74 C0.95827855 71.80762328 0.99014661 69.61381017 1.05078125 67.421875 C1.06896912 66.74746872 1.08715698 66.07306244 1.105896 65.3782196 C1.16839012 63.16857216 1.23983447 60.95933486 1.3125 58.75 C1.33545135 57.99969513 1.35840271 57.24939026 1.38204956 56.47634888 C1.68901086 46.59208921 2.25200784 36.79880412 3.3347168 26.96508789 C4.15496889 19.29082505 4.19637282 11.71308785 4 4 C2.68 3.34 1.36 2.68 0 2 C0 1.34 0 0.68 0 0 Z " fill="#FAFCFB" transform="translate(1181,318)"/>
<path d="M0 0 C0.66 0 1.32 0 2 0 C5.63 6.6 9.26 13.2 13 20 C17.99874263 18.33375246 21.56262424 16.61531675 25.94921875 13.92578125 C28 13 28 13 31 14 C28.50506504 16.81631641 25.73437182 18.40955981 22.4375 20.1875 C21.46683594 20.71730469 20.49617187 21.24710937 19.49609375 21.79296875 C17 23 17 23 15 23 C20.57995124 34.70775223 26.97308997 45.92092825 33.41064453 57.17333984 C35.550089 60.97833032 37.59230965 64.83337625 39.62084961 68.69848633 C40.92872146 70.88105102 41.97894357 72.4587971 44 74 C47.57756686 74.00082535 47.57756686 74.00082535 51 73 C53.52775351 69.20836973 53.22443035 66.19125969 53.125 61.8125 C53.11597656 61.06291016 53.10695313 60.31332031 53.09765625 59.54101562 C53.07412578 57.69387346 53.03825561 55.84689588 53 54 C54.485 54.495 54.485 54.495 56 55 C57.97451821 60.92355462 58.41859115 69.13043229 55.625 74.875 C51.13607829 81.27410116 42.63148416 86.4374292 35 88 C29.8541508 88.58893839 25.56098532 88.66041687 20.75 86.625 C12.67459506 78.91665893 7.8508604 68.47086492 2.75 58.6875 C1.688288 56.66536411 0.62466591 54.64424998 -0.44012451 52.62373352 C-1.39734444 50.80519156 -2.34970293 48.98409311 -3.30175781 47.1628418 C-4.3848221 45.14572021 -5.52050471 43.1553977 -6.72167969 41.20629883 C-8 39 -8 39 -8 37 C-8.928125 37.515625 -9.85625 38.03125 -10.8125 38.5625 C-14 40 -14 40 -17 39 C-15.36587557 37.29159719 -14.13093906 36.06546953 -12 35 C-12.59337536 30.87641678 -13.98763181 27.90795717 -16.0625 24.3125 C-19 19.20470588 -19 19.20470588 -19 17 C-17.6015625 15.58984375 -17.6015625 15.58984375 -15.625 13.9375 C-12.22448993 11.04797892 -8.87598052 8.11428387 -5.5625 5.125 C-4.29599609 3.98417969 -4.29599609 3.98417969 -3.00390625 2.8203125 C-1.98726703 1.89681567 -0.97118528 0.97118528 0 0 Z " fill="#FCFDFC" transform="translate(778,323)"/>
<path d="M0 0 C3.64462916 14.60953476 6.67817666 29.27732807 9.44775391 44.07617188 C10.2074393 48.09827278 11.00328669 52.1126094 11.8125 56.125 C12.16248047 57.86136719 12.16248047 57.86136719 12.51953125 59.6328125 C12.67808594 60.41398437 12.83664062 61.19515625 13 62 C15.64 62 18.28 62 21 62 C21 62.99 21 63.98 21 65 C15.34551331 66.23130138 9.69068532 67.46099447 4.03515625 68.6875 C0.52027093 69.45019998 -2.99321789 70.21821832 -6.50390625 71 C-8.32728516 71.4021875 -8.32728516 71.4021875 -10.1875 71.8125 C-11.75564453 72.16248047 -11.75564453 72.16248047 -13.35546875 72.51953125 C-16 73 -16 73 -20 73 C-20 72.01 -20 71.02 -20 70 C-17.03 69.505 -17.03 69.505 -14 69 C-15.82367855 59.12973975 -17.70644553 49.27080999 -19.60687256 39.41506958 C-19.86506538 38.07522082 -20.12277122 36.73527811 -20.37994385 35.39523315 C-22.13851989 26.23644872 -24.01018158 17.11118099 -26 8 C-28.64 8.33 -31.28 8.66 -34 9 C-34 8.01 -34 7.02 -34 6 C-29.80177631 5.14054513 -25.6025548 4.28619916 -21.40234375 3.43652344 C-19.97432576 3.14690273 -18.54658726 2.85590032 -17.11914062 2.56347656 C-15.06452618 2.1428243 -13.00895008 1.72718975 -10.953125 1.3125 C-9.71723633 1.06113281 -8.48134766 0.80976563 -7.20800781 0.55078125 C-4 0 -4 0 0 0 Z " fill="#FCFDFC" transform="translate(933,296)"/>
<path d="M0 0 C1.88671875 1.3125 1.88671875 1.3125 3.6875 3 C4.7084375 3.94166016 4.7084375 3.94166016 5.75 4.90234375 C6.4925 5.59457031 7.235 6.28679687 8 7 C9.72911942 8.52088705 11.45828721 10.04171911 13.1875 11.5625 C23.7252907 21.06272361 23.7252907 21.06272361 24.203125 26.171875 C24.35570595 34.56382733 21.93781377 39.1616285 16.59765625 45.484375 C14.82210045 47.16876534 13.27700274 48.11075633 11 49 C8.25 48.625 8.25 48.625 6 48 C5.505 45.525 5.505 45.525 5 43 C5.56589844 42.51789063 6.13179687 42.03578125 6.71484375 41.5390625 C7.44832031 40.90742187 8.18179687 40.27578125 8.9375 39.625 C9.66839844 38.99851562 10.39929687 38.37203125 11.15234375 37.7265625 C13.85703496 35.19913435 13.98433068 34.29249398 14.1875 30.5 C14.38785276 26.94234089 14.38785276 26.94234089 12 25 C11.443125 26.5778125 11.443125 26.5778125 10.875 28.1875 C8.87376055 32.90812703 5.59961429 35.70019286 1 38 C-5.1924024 38.29548808 -9.55636185 36.69653752 -14.26953125 32.7265625 C-18.4803535 28.52524549 -20.21269934 24.92592319 -20.5 18.9375 C-20.15474117 11.56455336 -15.73206175 7.51144413 -10.78125 2.515625 C-7.06839145 -0.64356166 -4.75454457 -1.55739413 0 0 Z " fill="#F9FCFA" transform="translate(1358,1056)"/>
<path d="M0 0 C2.30747454 2.62574689 2.93883808 4.62538321 3.5 8.0625 C2.0728244 19.30150785 -4.88609367 30.00060002 -10 40 C-9.39526855 39.60619141 -8.79053711 39.21238281 -8.16748047 38.80664062 C-5.41219581 37.02359216 -2.64395846 35.26173151 0.125 33.5 C1.07632813 32.87996094 2.02765625 32.25992188 3.0078125 31.62109375 C3.9359375 31.03457031 4.8640625 30.44804688 5.8203125 29.84375 C6.66867676 29.29912109 7.51704102 28.75449219 8.39111328 28.19335938 C11.48109878 26.77993535 13.63696024 26.71158871 17 27 C17.66 27.33 18.32 27.66 19 28 C18.66735424 31.88086723 17.55701869 33.86824769 14.76782227 36.54370117 C10.82471041 39.79196277 6.39671192 42.3753456 2.0625 45.0625 C0.11557603 46.28205831 -1.83104697 47.50209725 -3.77734375 48.72265625 C-4.68693848 49.28863525 -5.5965332 49.85461426 -6.53369141 50.43774414 C-8.56755561 51.72607289 -10.5477536 53.05761933 -12.51953125 54.4375 C-15 56 -15 56 -17.75 55.9375 C-20 55 -20 55 -22 52 C-22.94047346 43.85726821 -20.36695983 38.47190293 -16.6875 31.3125 C-16.18798828 30.30638672 -15.68847656 29.30027344 -15.17382812 28.26367188 C-13.79866785 25.50060149 -12.4026994 22.74916228 -11 20 C-10.38002351 18.76506827 -9.7611946 17.52955822 -9.14453125 16.29296875 C-8.76683594 15.53628906 -8.38914062 14.77960937 -8 14 C-8.54785156 14.40089844 -9.09570312 14.80179688 -9.66015625 15.21484375 C-14.95545887 19.01196319 -20.37283243 22.55233284 -25.9375 25.9375 C-26.5879126 26.3389624 -27.2383252 26.7404248 -27.90844727 27.15405273 C-32.64344538 30 -32.64344538 30 -36 30 C-39.07395994 26.04776579 -39.07395994 26.04776579 -38.86083984 23.02856445 C-37.66232016 20.20425927 -36.07501274 19.39245263 -33.4765625 17.79296875 C-32.53683594 17.20580078 -31.59710937 16.61863281 -30.62890625 16.01367188 C-29.63761719 15.41103516 -28.64632812 14.80839844 -27.625 14.1875 C-26.67238281 13.59646484 -25.71976563 13.00542969 -24.73828125 12.39648438 C-22.80817924 11.19898536 -20.87355605 10.00874402 -18.93457031 8.82568359 C-16.93356139 7.58079634 -14.95415135 6.30067156 -12.99511719 4.99072266 C-12.03508789 4.35054199 -11.07505859 3.71036133 -10.0859375 3.05078125 C-9.22790527 2.46594971 -8.36987305 1.88111816 -7.48583984 1.27856445 C-4.70226965 -0.15313434 -3.08585773 -0.42963069 0 0 Z " fill="#F9FCFA" transform="translate(653,990)"/>
<path d="M0 0 C1.73068726 0.00845947 1.73068726 0.00845947 3.49633789 0.01708984 C19.91499304 0.25132731 19.91499304 0.25132731 26.3125 3.3125 C28.90638266 6.46722216 29.15464765 8.36538589 29.8125 12.3125 C28.52590267 20.03208396 20.22998827 24.98033352 14.3125 29.3125 C7.03812831 34.45232335 0.03589812 39.05644876 -8.6875 41.3125 C-11.63976131 35.17179648 -11.63976131 35.17179648 -11.8125 32.0625 C-9.91187088 29.10596582 -6.88008559 28.47344021 -3.6875 27.3125 C-4.16520523 25.37463915 -4.64471571 23.43722326 -5.125 21.5 C-5.39183594 20.42105469 -5.65867187 19.34210937 -5.93359375 18.23046875 C-6.44827412 16.2384157 -7.03687175 14.26438476 -7.6875 12.3125 C-10.9875 12.3125 -14.2875 12.3125 -17.6875 12.3125 C-20.6875 5.6875 -20.6875 5.6875 -20.6875 2.3125 C-13.74440252 0.18982343 -7.23408182 -0.03639659 0 0 Z " fill="#F8FBF9" transform="translate(586.6875,896.6875)"/>
<path d="M0 0 C4.81929784 1.310316 8.24152759 3.36535982 12.0625 6.5625 C14.79899505 11.41757187 14.89052804 15.54650088 14 21 C12.91949302 23.68967403 11.6952338 25.61607747 10 28 C11.26457031 28.36351562 11.26457031 28.36351562 12.5546875 28.734375 C14.19824219 29.23710938 14.19824219 29.23710938 15.875 29.75 C16.96554687 30.07484375 18.05609375 30.3996875 19.1796875 30.734375 C22 32 22 32 23.3984375 34.00390625 C24.12857235 36.42662643 23.96238731 37.67423067 23 40 C17.5882764 42.7058618 11.41192024 40.51810335 5.984375 38.76953125 C5.24672913 38.53723312 4.50908325 38.304935 3.74908447 38.06559753 C2.20114682 37.57401609 0.65491105 37.07704605 -0.88964844 36.57495117 C-3.25106043 35.81215746 -5.62068636 35.08033981 -7.9921875 34.34960938 C-9.50059583 33.86643951 -11.00843061 33.38147464 -12.515625 32.89453125 C-13.22189026 32.6797261 -13.92815552 32.46492096 -14.65582275 32.24360657 C-17.95282981 31.14181995 -19.79230197 30.26317865 -21.96777344 27.5065918 C-23 25 -23 25 -23 22 C-21.35 21.34 -19.7 20.68 -18 20 C-18.33 19.01 -18.66 18.02 -19 17 C-19.50171564 10.87906919 -19.08833623 7.8832905 -15 3 C-10.42570351 -1.13162263 -5.88123926 -0.70829539 0 0 Z " fill="#FAFCFA" transform="translate(1450,894)"/>
<path d="M0 0 C9.69473773 3.70307195 17.75786965 12.8505514 25.1796875 19.89453125 C27.68483025 22.27075438 30.24787894 24.55250262 32.8828125 26.78515625 C37.58527839 30.89096518 41.59236599 34.49721427 43.5703125 40.53515625 C43.3828125 43.91015625 43.3828125 43.91015625 41.3828125 46.91015625 C38.3828125 48.91015625 38.3828125 48.91015625 35.2578125 49.22265625 C25.53923392 46.91868288 17.45373646 37.40716601 10.39453125 30.734375 C7.99352921 28.46522205 5.53137605 26.29322641 3.0078125 24.16015625 C-2.41609778 19.46020009 -8.87956933 13.82761072 -9.9921875 6.41015625 C-9.6171875 3.91015625 -9.6171875 3.91015625 -8.1171875 1.53515625 C-5.23569263 -0.33781542 -3.38078355 -0.64247363 0 0 Z " fill="#53A163" transform="translate(667.6171875,446.08984375)"/>
<path d="M0 0 C4.40964364 2.45621272 7.23358564 5.18145409 9.21484375 9.8515625 C10.77840451 15.63673731 10.75299245 21.02014816 8.40234375 26.5390625 C3.21730437 31.85056625 -1.80143344 34.44830425 -9.28515625 34.8515625 C-14.34565654 34.6194886 -17.31462612 33.59801353 -20.82421875 29.92578125 C-24.72644449 24.77986368 -25.73934048 19.84202607 -25.5 13.5234375 C-24.96536635 9.81172801 -23.70264499 7.89723789 -21.16015625 5.1640625 C-14.8174116 0.46762381 -7.9014152 -3.05769051 0 0 Z " fill="#F9FCFA" transform="translate(1171.16015625,1186.8359375)"/>
<path d="M0 0 C5.1883055 2.36807445 8.91103022 4.65511973 11.20703125 10.08203125 C12.45741901 16.39466846 10.76984884 21.38825227 7.671875 26.90625 C5.46663679 30.18176383 3.90817262 31.6015747 0.20703125 33.08203125 C-7.16124845 34.05892588 -13.71668735 33.62094025 -19.79296875 29.08203125 C-23.81506694 24.85367162 -25.2238261 21.2968848 -25.13671875 15.40625 C-24.26804797 9.53285098 -21.31259647 4.60165897 -17.16796875 0.45703125 C-11.3692402 -1.90541371 -5.95806996 -1.95824677 0 0 Z " fill="#F9FBF9" transform="translate(899.79296875,1194.91796875)"/>
<path d="M0 0 C4.8543226 2.52935756 8.91990859 6.06865524 11.375 11.01171875 C13.08072287 16.43804962 12.84224104 21.31551792 10.3125 26.375 C6.54796685 30.64825385 2.43887592 34.5119747 -3.3671875 35.3359375 C-9.11787299 35.42551204 -12.61549208 35.08556419 -17 31 C-21.08876621 26.45902001 -23.38876945 22.50511514 -23.625 16.3125 C-23.32264997 11.49505619 -22.35520283 8.61329536 -19 5 C-12.85375359 -0.12652826 -7.94890006 -2.07082995 0 0 Z " fill="#FAFCFA" transform="translate(672,1044)"/>
<path d="M0 0 C5.75 0.75 5.75 0.75 8 3 C9.27691114 17.40236986 8.42204476 35.18340243 -1 47 C-4.20201021 50.17194439 -6.75061952 51.83181417 -11.25 52.4375 C-14 52 -14 52 -17 50 C-16.49396008 47.83125748 -16.00016187 46.00032373 -15 44 C-14.05125 43.5875 -13.1025 43.175 -12.125 42.75 C-8.40479896 40.66668742 -7.55576936 38.88942339 -6 35 C-6.74443359 34.38125 -6.74443359 34.38125 -7.50390625 33.75 C-23.25139526 20.36314027 -23.25139526 20.36314027 -24.375 10.8125 C-24 8 -24 8 -22.8125 6.0625 C-21 5 -21 5 -18.5 5.0625 C-14.1813981 6.68197571 -13.0238367 9.91845979 -11.125 13.875 C-9.01933005 18.20782085 -6.44192174 22.77903913 -2 25 C-2.01047363 24.34926514 -2.02094727 23.69853027 -2.03173828 23.02807617 C-2.07329835 20.0812567 -2.09932608 17.13449889 -2.125 14.1875 C-2.14175781 13.16333984 -2.15851563 12.13917969 -2.17578125 11.08398438 C-2.18222656 10.10107422 -2.18867187 9.11816406 -2.1953125 8.10546875 C-2.20578613 7.19949951 -2.21625977 6.29353027 -2.22705078 5.36010742 C-2 3 -2 3 0 0 Z " fill="#FAFCFA" transform="translate(1129,1197)"/>
<path d="M0 0 C3.36942527 1.99414965 4.53434516 3.24680538 6.0625 6.8125 C6.86214438 10.15744256 7.18231306 13.24147628 7.16015625 16.67578125 C7.15693359 17.56201172 7.15371094 18.44824219 7.15039062 19.36132812 C7.14201172 20.27333984 7.13363281 21.18535156 7.125 22.125 C7.12048828 23.05634766 7.11597656 23.98769531 7.11132812 24.94726562 C7.09959234 27.23574373 7.08317363 29.52408808 7.0625 31.8125 C5.804375 31.833125 4.54625 31.85375 3.25 31.875 C2.18845703 31.89240234 2.18845703 31.89240234 1.10546875 31.91015625 C-0.9375 31.8125 -0.9375 31.8125 -3.9375 30.8125 C-5.27636526 31.46798612 -6.60908632 32.13608348 -7.9375 32.8125 C-10.375 33.11328125 -10.375 33.11328125 -12.9375 33.125 C-13.783125 33.14175781 -14.62875 33.15851563 -15.5 33.17578125 C-18.45250566 32.73574435 -19.78992709 31.85940543 -21.9375 29.8125 C-23.18011338 26.08465985 -23.73615386 22.67014883 -22.9375 18.8125 C-19.25568234 14.87381134 -15.34460768 11.99718434 -9.84765625 11.69921875 C-7.87726971 11.68883007 -5.90678281 11.74574465 -3.9375 11.8125 C-4.2675 10.4925 -4.5975 9.1725 -4.9375 7.8125 C-6.35405793 7.7852585 -7.77077045 7.76599533 -9.1875 7.75 C-9.97640625 7.73839844 -10.7653125 7.72679687 -11.578125 7.71484375 C-13.92110345 7.72548977 -13.92110345 7.72548977 -16.046875 8.37890625 C-17.9375 8.8125 -17.9375 8.8125 -20.9375 7.8125 C-21.1875 5.5 -21.1875 5.5 -20.9375 2.8125 C-15.49864028 -2.43881283 -6.83691673 -2.58024363 0 0 Z " fill="#F7FAF8" transform="translate(1039.9375,1212.1875)"/>
<path d="M0 0 C2.70750292 1.24702417 4.88019284 2.88019284 7 5 C7.57137205 8.61652539 7.05098117 9.92120173 5.03125 13.04296875 C4.19939609 14.10061157 3.35521579 15.14865679 2.5 16.1875 C-0.73821539 19.68696492 -0.73821539 19.68696492 -2 24 C0.28694223 24.50379029 0.28694223 24.50379029 3 24 C6.86351348 20.22633567 8.46217099 17.20495972 10 12 C10.66 11.34 11.32 10.68 12 10 C15.53571429 10.53571429 15.53571429 10.53571429 17 12 C17.31644612 18.28764687 15.59460657 22.48997603 11.62109375 27.2734375 C7.6998649 31.44978244 4.5936134 33.63689412 -1.125 34.4375 C-7.62378356 33.70376637 -12.17372538 30.00890209 -16.5 25.25 C-19.58636904 20.62044643 -19.85581572 16.47882023 -19 11 C-14.82092516 2.87326488 -9.21494419 -1.49862414 0 0 Z " fill="#F9FBF9" transform="translate(1384,1025)"/>
<path d="M0 0 C6.2258178 0.80333133 10.76496657 3.64728772 15.4375 7.75 C17.51340499 11.7212965 17.50468997 15.0934406 16.875 19.5 C15.54111183 23.05450294 13.76250683 26.27466716 11.875 29.5625 C11.39804687 30.42810547 10.92109375 31.29371094 10.4296875 32.18554688 C9.26129404 34.30033903 8.07658058 36.40394493 6.875 38.5 C3.50037285 37.95276317 1.79265 37.4451 -1.125 35.5 C-1.62 34.015 -1.62 34.015 -2.125 32.5 C-3.15625 32.5825 -4.1875 32.665 -5.25 32.75 C-9.7754277 32.45803692 -11.64700909 31.33092283 -15.125 28.5 C-17.63750583 24.73124125 -17.65516086 22.96849866 -17.125 18.5 C-14.76966688 14.18188927 -14.76966688 14.18188927 -12.125 12.5 C-4.9240507 10.83039937 1.43491436 13.43068259 7.875 16.5 C6.60553486 11.67557816 6.60553486 11.67557816 2.875 8.5 C1.699375 8.37625 0.52375 8.2525 -0.6875 8.125 C-4.125 7.5 -4.125 7.5 -5.5625 5.4375 C-5.8409375 4.4784375 -5.8409375 4.4784375 -6.125 3.5 C-4.27251635 0.88472897 -3.21431666 0.51429067 0 0 Z " fill="#FAFCFB" transform="translate(804.125,1157.5)"/>
<path d="M0 0 C6.71034005 1.34687829 11.47380686 7.59967152 15.6328125 12.6171875 C17.24675501 14.59832675 17.24675501 14.59832675 19.6796875 16.6875 C21.1796875 18.4375 21.1796875 18.4375 21.1796875 20.4375 C19.86753008 23.06181483 18.50496901 24.6437114 16.1796875 26.4375 C13.52861904 26.21164833 12.39934169 25.64762581 10.46875 23.80078125 C9.91960937 23.12402344 9.37046875 22.44726562 8.8046875 21.75 C8.20011719 21.03585937 7.59554688 20.32171875 6.97265625 19.5859375 C5.848272 18.23863611 4.72560546 16.88989734 3.60546875 15.5390625 C1.97942238 13.63840445 1.97942238 13.63840445 -0.8203125 11.4375 C-4.12216178 11.40156842 -4.12216178 11.40156842 -6.8203125 12.4375 C-7.954722 15.03884984 -7.954722 15.03884984 -7.8203125 18.4375 C-5.8364809 21.43139221 -3.33379635 23.88458896 -0.8203125 26.4375 C0.3384337 27.69657054 1.48542791 28.96661712 2.6171875 30.25 C3.11089844 30.79269531 3.60460938 31.33539062 4.11328125 31.89453125 C5.1796875 33.4375 5.1796875 33.4375 5.1796875 36.4375 C2.9296875 38.6875 2.9296875 38.6875 0.1796875 40.4375 C-3.04887148 40.36880726 -4.04674089 39.22064864 -6.40625 36.9609375 C-7.34543014 35.91994469 -8.27472801 34.8699732 -9.1953125 33.8125 C-9.92004761 32.9932605 -9.92004761 32.9932605 -10.65942383 32.1574707 C-11.61631126 31.07428377 -12.57025564 29.98848862 -13.52099609 28.89990234 C-14.60455363 27.68034022 -15.73280485 26.50067452 -16.87109375 25.33203125 C-19.78543363 22.292493 -20.78909013 20.76533488 -21.1953125 16.5 C-21.0715625 15.489375 -20.9478125 14.47875 -20.8203125 13.4375 C-18.5103125 13.4375 -16.2003125 13.4375 -13.8203125 13.4375 C-13.9234375 12.73625 -14.0265625 12.035 -14.1328125 11.3125 C-13.68474952 7.19032055 -11.63314932 5.38116644 -8.8203125 2.4375 C-5.6748248 0.3405082 -3.75263656 -0.10996737 0 0 Z " fill="#F9FCFA" transform="translate(1325.8203125,1087.5625)"/>
<path d="M0 0 C3.875 1.75 3.875 1.75 5 4 C5.99 3.67 6.98 3.34 8 3 C13.62391086 2.63121896 17.13512635 2.8321753 22 6 C25.2656775 9.66903909 25.43350596 12.02602987 25.3046875 16.78515625 C24.65970944 23.59050168 23.30666099 30.2955847 22 37 C18.34811918 38.07174763 15.73567172 37.76411467 12 37 C11.81105148 32.46523555 11.77549479 28.27287081 13 23.875 C14.03104698 20.16619791 14.38684671 16.86846706 14 13 C11.25305475 10.79859497 11.25305475 10.79859497 8.5 10.875 C5.64238182 11.84713432 5.64238182 11.84713432 4.3125 15.3125 C2.82953041 19.92897597 2.12083153 24.67143064 1.4296875 29.4609375 C1 32 1 32 0 34 C-2.97 33.67 -5.94 33.34 -9 33 C-9.18241612 26.33167739 -8.59113563 20.22764778 -7.3125 13.6875 C-7.16361328 12.80771484 -7.01472656 11.92792969 -6.86132812 11.02148438 C-6.02452341 6.69963415 -5.56627626 4.55791177 -2.35546875 1.39453125 C-1.57816406 0.93433594 -0.80085937 0.47414063 0 0 Z " fill="#F9FCFA" transform="translate(927,1202)"/>
<path d="M0 0 C2.6875 0 2.6875 0 6 1 C10.16141165 6.00736432 12.76066671 12.40332344 15.375 18.3125 C15.74238281 19.10978516 16.10976562 19.90707031 16.48828125 20.72851562 C16.82988281 21.49486328 17.17148438 22.26121094 17.5234375 23.05078125 C17.9862915 24.08199097 17.9862915 24.08199097 18.45849609 25.1340332 C19 27 19 27 18 30 C15.47772264 31.80162669 14.35487 32.04839136 11.25 31.625 C10.5075 31.41875 9.765 31.2125 9 31 C7.9171875 32.423125 7.9171875 32.423125 6.8125 33.875 C3.46632925 37.84916358 0.66489126 38.72756325 -4.4375 39.5625 C-8.47792951 38.92453745 -9.99203474 37.76692445 -12.4453125 34.53125 C-14.45751871 31.25509517 -16.2038937 27.89853366 -17.875 24.4375 C-18.18566406 23.80062256 -18.49632812 23.16374512 -18.81640625 22.50756836 C-20.64035296 18.5218115 -21.51445775 15.37289088 -21 11 C-20.34 10.01 -19.68 9.02 -19 8 C-15.96690338 8.55815901 -13.69964708 9.05486272 -11.80322266 11.61669922 C-10.71560434 13.69278124 -9.7448492 15.78723419 -8.8125 17.9375 C-8.15778504 19.38658535 -7.49779886 20.83330306 -6.83203125 22.27734375 C-6.41014526 23.24015259 -6.41014526 23.24015259 -5.97973633 24.22241211 C-4.8753593 26.22614228 -3.78019474 27.56198859 -2 29 C1.31818985 28.75794651 1.31818985 28.75794651 4 27 C4.44126771 21.52828043 3.46456095 18.19886577 0.9375 13.375 C-2.05972706 7.65240322 -2.05972706 7.65240322 -1.74609375 4.2265625 C-1 2 -1 2 0 0 Z " fill="#FAFCFA" transform="translate(1206,1167)"/>
<path d="M0 0 C13.86 0 27.72 0 42 0 C40.92613699 6.44317808 39.98226034 11.46178945 34.875 15.80859375 C28.94889881 19.87304144 23.34623283 22.31630452 16 21 C9.90392162 18.35470473 4.89243089 15.14641563 2 9 C1.34 6.03 0.68 3.06 0 0 Z " fill="#FAFCFB" transform="translate(979,846)"/>
<path d="M0 0 C3.7647859 2.45148849 5.2764566 4.51686981 6.6875 8.75 C7.08294498 12.94171681 6.95710901 15.23075302 5 19 C1.60548455 23.03672108 -2.07195783 25.31792771 -7.36328125 26.0234375 C-11.53622499 26.21082357 -14.40745374 26.18391645 -17.75 23.5 C-21.84510635 19.10525172 -22.78634672 15.91022372 -22.62109375 10 C-22.12276209 6.36659447 -20.78437713 4.41202153 -18.3125 1.75 C-12.16576017 -1.79619605 -6.69173089 -2.52518147 0 0 Z " fill="#FBFCFB" transform="translate(923.3125,263.25)"/>
<path d="M0 0 C-0.92105263 6.71052632 -0.92105263 6.71052632 -1.75 9.75 C-2.27703471 12.08757952 -2.27703471 12.08757952 -0.5625 13.8125 C-0.046875 14.204375 0.46875 14.59625 1 15 C1.598125 14.484375 2.19625 13.96875 2.8125 13.4375 C3.534375 12.963125 4.25625 12.48875 5 12 C5.99 12.33 6.98 12.66 8 13 C9.1875 15.5625 9.1875 15.5625 10 18 C8.68 18.99 7.36 19.98 6 21 C7.77876928 26.41856305 11.17259546 30.47502448 14.63085938 34.91601562 C18.06126579 39.50809368 18.06126579 39.50809368 17.73950195 42.09155273 C16.71411895 44.73777885 15.47259931 45.6577318 13 47 C10.34695158 46.74500149 9.27247741 46.29321682 7.44433594 44.32592773 C6.96254883 43.61895752 6.48076172 42.9119873 5.984375 42.18359375 C5.45585938 41.41982422 4.92734375 40.65605469 4.3828125 39.86914062 C3.84398437 39.06669922 3.30515625 38.26425781 2.75 37.4375 C2.19570312 36.63119141 1.64140625 35.82488281 1.0703125 34.99414062 C-0.29659296 33.00270077 -1.65272637 31.00475077 -3 29 C-4.98 29.33 -6.96 29.66 -9 30 C-12 26.25 -12 26.25 -12 24 C-10.5 22.375 -10.5 22.375 -9 21 C-9.99 19.4840625 -9.99 19.4840625 -11 17.9375 C-13.14824455 14.0969333 -13.79309333 11.44132267 -13 7 C-9.79159623 1.20673383 -6.82230429 -0.9551226 0 0 Z " fill="#F9FCFA" transform="translate(1274,1112)"/>
<path d="M0 0 C2.77406113 1.37290602 3.8999013 2.5768092 6 5 C6.15234375 7.67578125 6.15234375 7.67578125 6 10 C5.31292969 9.96519531 4.62585938 9.93039062 3.91796875 9.89453125 C3.01691406 9.86746094 2.11585938 9.84039063 1.1875 9.8125 C0.29417969 9.77769531 -0.59914063 9.74289062 -1.51953125 9.70703125 C-4.04786974 9.79287291 -4.04786974 9.79287291 -5.82421875 11.38671875 C-7.19632861 12.93666761 -7.19632861 12.93666761 -7 15 C-6.01 15.66 -5.02 16.32 -4 17 C-4.25 19.375 -4.25 19.375 -5 22 C-7.0625 23.3125 -7.0625 23.3125 -9 24 C-9.99 23.01 -10.98 22.02 -12 21 C-15.98622934 22.54364234 -17.94281064 25.06825167 -20.5625 28.375 C-21.32691406 29.33148437 -22.09132813 30.28796875 -22.87890625 31.2734375 C-24.61022012 33.49895698 -26.32032949 35.7353963 -28 38 C-31.35595828 37.40072174 -33.37801226 36.15377564 -36 34 C-35.51722808 29.40957545 -33.85373534 27.34274054 -30.6875 24.0625 C-27.36667974 20.52487459 -24.50859345 17.14463266 -22 13 C-22.66 12.34 -23.32 11.68 -24 11 C-23.625 8.375 -23.625 8.375 -23 6 C-20.39417629 5.06934867 -19.35801776 4.85082593 -16.75 5.9375 C-16.1725 6.288125 -15.595 6.63875 -15 7 C-14.7525 6.401875 -14.505 5.80375 -14.25 5.1875 C-10.97788796 -0.53869606 -6.15129083 -1.13676704 0 0 Z " fill="#FAFCFB" transform="translate(751,1101)"/>
<path d="M0 0 C2.83022097 3.99560608 1.76210446 7.42737323 1 12 C2.65 12.66 4.3 13.32 6 14 C5.125 18.75 5.125 18.75 4 21 C1.23723823 20.47731534 -1.3260876 19.89130413 -4 19 C-4.20496094 19.62648438 -4.40992188 20.25296875 -4.62109375 20.8984375 C-4.89050781 21.71570312 -5.15992188 22.53296875 -5.4375 23.375 C-5.70433594 24.18710938 -5.97117187 24.99921875 -6.24609375 25.8359375 C-7 28 -7 28 -8 30 C-8.039992 31.99960012 -8.04346799 34.00047242 -8 36 C-6.68 36.33 -5.36 36.66 -4 37 C-4 39.31 -4 41.62 -4 44 C-10.13062246 44.50045898 -13.06840864 43.38442544 -18 40 C-20.52678244 36.20982634 -20.40390292 34.5117792 -20 30 C-19.05954083 27.07420385 -17.81491894 24.33702973 -16.5 21.5625 C-16.16613281 20.83095703 -15.83226562 20.09941406 -15.48828125 19.34570312 C-14.6705607 17.55839965 -13.83689653 15.77840513 -13 14 C-14.32 13.67 -15.64 13.34 -17 13 C-16.125 8.25 -16.125 8.25 -15 6 C-12.03 6.495 -12.03 6.495 -9 7 C-8.62875 5.824375 -8.62875 5.824375 -8.25 4.625 C-7 2 -7 2 -5.0625 0.6875 C-3 0 -3 0 0 0 Z " fill="#F7FAF8" transform="translate(847,1166)"/>
<path d="M0 0 C1.65 0.33 3.3 0.66 5 1 C5.99435406 4.09354597 5.87840996 5.90279155 5 9 C6.72343755 9.84511824 8.45404053 10.67563354 10.1875 11.5 C11.15042969 11.9640625 12.11335938 12.428125 13.10546875 12.90625 C15.98922693 13.99592921 17.95354861 14.22277524 21 14 C21.33 12.68 21.66 11.36 22 10 C24.31 10 26.62 10 29 10 C29.4998202 16.12279743 28.45350289 19.10753758 25 24 C22.40996578 26.14347659 21.23710214 26.0185789 17.859375 25.75390625 C13.49523904 24.90139791 10.01909398 23.3983243 6.0625 21.4375 C5.37865234 21.10814453 4.69480469 20.77878906 3.99023438 20.43945312 C2.32268129 19.63482961 0.66073161 18.8186103 -1 18 C-1.33 19.32 -1.66 20.64 -2 22 C-6.75 21.125 -6.75 21.125 -9 20 C-8.67 18.02 -8.34 16.04 -8 14 C-10.475 13.01 -10.475 13.01 -13 12 C-13.33 9.69 -13.66 7.38 -14 5 C-11.5428064 3.4528781 -10.367721 2.95515598 -7.4375 3.3125 C-5.61098388 3.82767121 -3.80039058 4.39986981 -2 5 C-1.34 3.35 -0.68 1.7 0 0 Z " fill="#F8FBF9" transform="translate(1415,952)"/>
<path d="M0 0 C2.37890625 1.3671875 2.37890625 1.3671875 4 3 C4.3125 5.625 4.3125 5.625 4 8 C3 9 3 9 0.5 9.125 C-2 9 -2 9 -3 8 C-4.99958364 7.95919217 -7.00045254 7.95745644 -9 8 C-7.77861563 11.6641531 -6.96273559 11.81492961 -3.625 13.5 C-0.62397449 15.02495107 1.8847701 16.33588132 4 19 C4.42448242 22.82034174 4.31685106 25.28708511 2.75 28.8125 C0.84421736 31.1947283 -0.18921743 31.90772698 -3 33 C-5.83984375 33.265625 -5.83984375 33.265625 -8.9375 33.25 C-9.95714844 33.25515625 -10.97679687 33.2603125 -12.02734375 33.265625 C-15.09136799 32.99183571 -17.26363084 32.38759146 -20 31 C-21.3125 28.875 -21.3125 28.875 -22 27 C-21.01 25.68 -20.02 24.36 -19 23 C-18.319375 23.33 -17.63875 23.66 -16.9375 24 C-13.49159762 25.17307315 -10.61602578 25.14180493 -7 25 C-6.67 24.01 -6.34 23.02 -6 22 C-6.70125 21.7525 -7.4025 21.505 -8.125 21.25 C-12.24991314 19.4565595 -15.8156188 17.1843812 -19 14 C-19.62986739 10.91728364 -19.56997632 8.08959126 -19 5 C-14.38884438 -1.45561787 -7.4271119 -1.15149022 0 0 Z " fill="#FAFCFA" transform="translate(982,1210)"/>
<path d="M0 0 C2 0.8125 2 0.8125 5 2.8125 C5.1875 5.9375 5.1875 5.9375 5 8.8125 C7.64 8.8125 10.28 8.8125 13 8.8125 C13 11.1225 13 13.4325 13 15.8125 C10.69 15.8125 8.38 15.8125 6 15.8125 C6.99 21.4225 7.98 27.0325 9 32.8125 C11.31 33.4725 13.62 34.1325 16 34.8125 C16.33 36.4625 16.66 38.1125 17 39.8125 C12.45898659 42.44040128 8.12948348 42.49643113 3 41.8125 C-0.92834687 39.25907454 -1.74715666 36.20262873 -3 31.8125 C-3.27821125 29.36109141 -3.48557345 26.90070235 -3.625 24.4375 C-3.69976563 23.19226562 -3.77453125 21.94703125 -3.8515625 20.6640625 C-3.90054687 19.72304687 -3.94953125 18.78203125 -4 17.8125 C-4.804375 17.833125 -5.60875 17.85375 -6.4375 17.875 C-9 17.8125 -9 17.8125 -10 16.8125 C-10.04080783 14.81291636 -10.04254356 12.81204746 -10 10.8125 C-8.35 10.8125 -6.7 10.8125 -5 10.8125 C-5.0928125 8.9253125 -5.0928125 8.9253125 -5.1875 7 C-5.18060372 3.11049613 -5.18060372 3.11049613 -3.75 0.75 C-2 -0.1875 -2 -0.1875 0 0 Z " fill="#F9FBF9" transform="translate(1064,1200.1875)"/>
<path d="M0 0 C0.36923077 7.38461538 0.36923077 7.38461538 -1.5 10.5 C-1.995 10.995 -2.49 11.49 -3 12 C-2.484375 12.4125 -1.96875 12.825 -1.4375 13.25 C0 15 0 15 -0.1875 17.0625 C-1 19 -1 19 -3 21 C-5.97793408 20.60294212 -8.34873742 19.35336416 -11 18 C-12.53839266 19.37645659 -14.05530581 20.77695032 -15.5625 22.1875 C-16.83287109 23.35345703 -16.83287109 23.35345703 -18.12890625 24.54296875 C-20.29585857 26.83339767 -20.29585857 26.83339767 -19.83984375 29.61328125 C-19.56269531 30.40089844 -19.28554688 31.18851563 -19 32 C-18 35 -18 35 -18.9375 37.1875 C-19.288125 37.785625 -19.63875 38.38375 -20 39 C-22.76392829 38.91870799 -24.5279718 38.39022472 -26.66796875 36.62109375 C-29.45484259 33.66210894 -30.86658034 31.5644678 -31.8125 27.5625 C-30.48975439 21.76276925 -26.52523067 18.24047062 -22.1640625 14.37109375 C-20.27251981 12.73189228 -20.27251981 12.73189228 -18 10 C-18.23283149 6.85078091 -18.23283149 6.85078091 -19 4 C-17.5625 2.125 -17.5625 2.125 -16 1 C-14.02 1.66 -12.04 2.32 -10 3 C-9.4740625 2.2575 -9.4740625 2.2575 -8.9375 1.5 C-6.05625711 -0.73063966 -3.52990974 -0.19980621 0 0 Z " fill="#FAFCFB" transform="translate(709,1069)"/>
<path d="M0 0 C4.32682523 1.46119016 8.04862391 3.45301488 11 7 C11.25 10.125 11.25 10.125 11 13 C10 14 10 14 7.75 14.375 C5 14 5 14 2.625 11.4375 C0.16050687 8.62680219 0.16050687 8.62680219 -3.5625 8.8125 C-7.1530255 9.7583444 -7.1530255 9.7583444 -9.5 12.625 C-11.31986474 16.71969565 -11.28785415 18.73398311 -10 23 C-7.59828424 25.48453354 -5.3736886 26.39755561 -2 27 C-2 29.64 -2 32.28 -2 35 C-8.5746828 34.72022626 -13.02210183 32.26676986 -18 28 C-21.29002766 24.23494161 -22.73344531 20.10414753 -22.44921875 15.046875 C-21.2896332 9.76319825 -17.85401781 5.97602036 -14.375 2 C-9.54578664 -0.86175606 -5.48171656 -0.85409181 0 0 Z " fill="#FAFCFA" transform="translate(780,1142)"/>
<path d="M0 0 C3.89487975 1.97910557 6.38991021 4.96354235 8 9 C8.33403245 13.78779839 7.66898085 17.15021351 4.6875 20.9375 C1.10559095 23.68640695 -0.81855606 24.82166884 -5.3125 25.5 C-10.22438844 24.83398123 -12.70893873 22.58855833 -16 19 C-17.86233425 15.27533151 -17.57130829 11.05504687 -17 7 C-13.16297555 -0.17294497 -7.52694471 -1.03899544 0 0 Z " fill="#FAFCFB" transform="translate(1472,763)"/>
<path d="M0 0 C3.89226984 1.97777939 6.39691769 4.96233007 8 9 C8.23974502 13.46724889 7.53895094 17.09533235 5.25 20.9375 C1.9767995 23.93793379 -0.56882422 24.81729671 -4.9375 25.375 C-9.57529799 24.80710637 -12.55922963 22.60846098 -15.64453125 19.1640625 C-18.03768785 15.34328798 -17.75260743 11.34459741 -17 7 C-13.12552464 -0.16060446 -7.55297575 -1.04258868 0 0 Z " fill="#FBFCFB" transform="translate(571,763)"/>
<path d="M0 0 C0.75 2.25 0.75 2.25 1 5 C-2.07902365 9.01372726 -6.11246195 10.58429963 -10.6875 12.3828125 C-11.42701904 12.68315399 -12.16653809 12.98349548 -12.9284668 13.29293823 C-15.28190266 14.24656152 -17.64063061 15.18616559 -20 16.125 C-22.35809063 17.07391724 -24.71501712 18.02566511 -27.0715332 18.97848511 C-28.53503875 19.56907313 -29.99967596 20.15686667 -31.46557617 20.7414856 C-34.71289196 22.04153877 -37.90736366 23.3612605 -41 25 C-43.5625 22.8125 -43.5625 22.8125 -46 20 C-45.97924805 17.51000977 -45.97924805 17.51000977 -45 15 C-42.74536133 13.39038086 -42.74536133 13.39038086 -39.76953125 12.02734375 C-38.6810791 11.52444824 -37.59262695 11.02155273 -36.47119141 10.50341797 C-30.90949215 8.09457397 -25.33607383 5.76081058 -19.6875 3.5625 C-18.56021484 3.10423828 -17.43292969 2.64597656 -16.27148438 2.17382812 C-6.13155955 -1.77841771 -6.13155955 -1.77841771 0 0 Z " fill="#F9FBF9" transform="translate(629,934)"/>
<path d="M0 0 C-0.54723683 3.37462715 -1.0549 5.08235 -3 8 C-5.40076514 9.2619099 -7.75794421 10.38792492 -10.23828125 11.46875 C-10.95606247 11.79033081 -11.67384369 12.11191162 -12.41337585 12.4432373 C-14.7095048 13.47042131 -17.01062692 14.48576197 -19.3125 15.5 C-21.60275768 16.51612569 -23.89185208 17.53475067 -26.17948914 18.5567627 C-27.60242425 19.19172799 -29.02700625 19.8230194 -30.45344543 20.45007324 C-34.13000135 22.08297813 -37.60216719 23.8444165 -41 26 C-42.98 24.35 -44.96 22.7 -47 21 C-46.68824883 18.09032239 -46.10704356 17.09813268 -43.91772461 15.09106445 C-40.61437516 12.72363177 -37.18214386 10.97998204 -33.50390625 9.29296875 C-32.43715919 8.79848991 -32.43715919 8.79848991 -31.34886169 8.29402161 C-29.85207071 7.60377041 -28.35350155 6.9173634 -26.85327148 6.23461914 C-24.56552271 5.18888169 -22.28983053 4.11951391 -20.01367188 3.04882812 C-18.55276009 2.37873093 -17.09119224 1.71006183 -15.62890625 1.04296875 C-14.95372452 0.72224899 -14.27854279 0.40152924 -13.582901 0.0710907 C-8.56962606 -2.16646826 -4.95089349 -2.47544674 0 0 Z " fill="#FAFCFA" transform="translate(639,954)"/>
<path d="M0 0 C3 5.75 3 5.75 3 8 C1.02 8.66 -0.96 9.32 -3 10 C-3.40538885 15.65372657 -2.23345625 19.34854366 0.5 24.1875 C4 30.50506757 4 30.50506757 4 35 C1.1875 36.5625 1.1875 36.5625 -2 38 C-7.14643576 36.28452141 -8.70014217 30.96298864 -11.1875 26.375 C-11.74630859 25.38886719 -12.30511719 24.40273437 -12.88085938 23.38671875 C-15.79732316 18.052332 -17.91452725 14.12481553 -17 8 C-16.67 7.67 -16.34 7.34 -16 7 C-13.66055264 7.28730055 -11.3260857 7.61936779 -9 8 C-8.566875 7.05125 -8.13375 6.1025 -7.6875 5.125 C-5.62145317 1.29898736 -4.42606997 0 0 0 Z " fill="#F8FBF9" transform="translate(1241,1151)"/>
<path d="M0 0 C3.37503669 1.1858237 5.64722731 2.27573689 8 5 C7.01 6.485 7.01 6.485 6 8 C4.99765814 11.32594755 4.99765814 11.32594755 6 15 C9.04063033 17.81170257 12.4603905 19.87202048 16 22 C17.21300396 22.80551045 18.42242029 23.61650808 19.625 24.4375 C20.40875 24.953125 21.1925 25.46875 22 26 C20.25 31.75 20.25 31.75 18 34 C14.21305335 33.6612657 11.59469056 32.3767429 8.42578125 30.34765625 C7.59369141 29.81849609 6.76160156 29.28933594 5.90429688 28.74414062 C5.04900391 28.18919922 4.19371094 27.63425781 3.3125 27.0625 C2.44560547 26.51142578 1.57871094 25.96035156 0.68554688 25.39257812 C-5.69208266 21.30791734 -5.69208266 21.30791734 -8 19 C-8.125 15.375 -8.125 15.375 -8 12 C-6.02 11.34 -4.04 10.68 -2 10 C-2.04125 8.906875 -2.0825 7.81375 -2.125 6.6875 C-2 3 -2 3 0 0 Z " fill="#F8FBF9" transform="translate(1393,994)"/>
<path d="M0 0 C1.7734375 1.32421875 1.7734375 1.32421875 3 3 C3.4375 6.3125 3.4375 6.3125 2 10 C-4.53818657 14.58950881 -12.3128015 17.0611933 -20 19 C-20.83764268 17.04350603 -21.66999059 15.08474444 -22.5 13.125 C-22.9640625 12.03445313 -23.428125 10.94390625 -23.90625 9.8203125 C-25 7 -25 7 -25 5 C-8.40214226 -1.78452579 -8.40214226 -1.78452579 0 0 Z " fill="#53A263" transform="translate(1468,608)"/>
<path d="M0 0 C3.15207323 0.41113999 5.98104753 0.99368251 9 2 C8.4532325 8.92903542 5.93348067 14.99687608 3.4375 21.4375 C3.01275391 22.55060547 2.58800781 23.66371094 2.15039062 24.81054688 C1.10669884 27.54290851 0.05641767 30.27253902 -1 33 C-4.33822957 32.38550003 -7.02209492 31.65439171 -10 30 C-9.41471156 23.47037583 -7.2860995 17.73991651 -5 11.625 C-4.44699219 10.11099609 -4.44699219 10.11099609 -3.8828125 8.56640625 C-1.14655517 1.14655517 -1.14655517 1.14655517 0 0 Z " fill="#F8FBF9" transform="translate(862,1185)"/>
<path d="M0 0 C6.64168611 2.11644743 13.10461783 4.5673908 19.5625 7.1875 C20.47580078 7.55552734 21.38910156 7.92355469 22.33007812 8.30273438 C24.55436264 9.19943546 26.77763445 10.09855598 29 11 C28.25 17.625 28.25 17.625 26 21 C19.35831389 18.88355257 12.89538217 16.4326092 6.4375 13.8125 C5.52419922 13.44447266 4.61089844 13.07644531 3.66992188 12.69726562 C1.44563736 11.80056454 -0.77763445 10.90144402 -3 10 C-2.25 3.375 -2.25 3.375 0 0 Z " fill="#F9FBF9" transform="translate(1423,933)"/>
<path d="M0 0 C3.38005327 1.44859426 5.4587228 3.37330171 8 6 C5.7740106 9.04400333 3.54363757 12.08476859 1.3125 15.125 C0.37374023 16.40890625 0.37374023 16.40890625 -0.58398438 17.71875 C-3.92728369 22.26983807 -7.32403268 26.7125429 -11 31 C-14.465 29.02 -14.465 29.02 -18 27 C-18 22.3951002 -17.30831664 21.6089122 -14.5703125 18.0859375 C-13.85746094 17.16039062 -13.14460937 16.23484375 -12.41015625 15.28125 C-11.65605469 14.3221875 -10.90195312 13.363125 -10.125 12.375 C-9.00544922 10.92480469 -9.00544922 10.92480469 -7.86328125 9.4453125 C-2.40969526 2.40969526 -2.40969526 2.40969526 0 0 Z " fill="#F9FCFA" transform="translate(754,1125)"/>
<path d="M0 0 C2.84383123 1.2748209 5.13754018 2.45137078 7 5 C6.59425765 8.61969915 4.98225031 10.42917007 2.5078125 13.00390625 C1.45013672 14.11475586 1.45013672 14.11475586 0.37109375 15.24804688 C-0.37011719 16.01181641 -1.11132812 16.77558594 -1.875 17.5625 C-2.60847656 18.33013672 -3.34195313 19.09777344 -4.09765625 19.88867188 C-6.05625718 21.93467849 -8.02174439 23.97300164 -10 26 C-10.53254395 26.57613037 -11.06508789 27.15226074 -11.61376953 27.74584961 C-13 29 -13 29 -14.9375 28.9375 C-17.54317359 27.75310292 -19.09490208 26.10921555 -21 24 C-19.66000502 20.993182 -18.20154709 19.00237391 -15.8125 16.75 C-12.56332956 13.60215504 -9.596569 10.29235094 -6.64453125 6.8671875 C-4.52869105 4.46487962 -2.2975339 2.22791166 0 0 Z " fill="#FAFCFA" transform="translate(716,1093)"/>
<path d="M0 0 C4.08540817 1.36180272 5.74263412 4.18511923 8.25 7.5 C8.73509033 8.12986816 9.22018066 8.75973633 9.7199707 9.40869141 C10.69515479 10.67560552 11.66760463 11.94462932 12.63720703 13.21582031 C14.4702076 15.61559963 16.32857578 17.99527288 18.1875 20.375 C19.12537819 21.58303982 20.06305076 22.79123955 21 24 C19.35 25.98 17.7 27.96 16 30 C12.09090086 29.83741541 11.03954765 29.04242593 8.31640625 26.12109375 C7.38481186 24.90353473 6.46737423 23.67504624 5.5625 22.4375 C5.08385498 21.80505371 4.60520996 21.17260742 4.11206055 20.52099609 C2.72929133 18.68933672 1.36375061 16.84583748 0 15 C-1.22887978 13.37478304 -2.45797528 11.7497291 -3.6875 10.125 C-4.450625 9.09375 -5.21375 8.0625 -6 7 C-4.46564493 3.70625112 -3.21115194 1.84884506 0 0 Z " fill="#FAFCFA" transform="translate(1293,1113)"/>
<path d="M0 0 C3.05623277 2.09110663 3.86463014 3.29306849 4.5625 6.9375 C3.81639925 10.99960408 2.12159133 12.3865747 -1 15 C-4 17 -4 17 -7.5 16.875 C-11 16 -11 16 -13 14.3125 C-14.44964913 10.96018638 -14.2407674 9.44657612 -13 6 C-9.41596836 1.6795235 -5.83406153 -1.29645812 0 0 Z " fill="#55A365" transform="translate(671,1053)"/>
<path d="M0 0 C2 1.0625 2 1.0625 3 3 C2.82278354 8.49371014 2.05739775 12.94260225 -2 17 C-5.80781256 17.3592276 -8.17660511 17.49403694 -11.5 15.5 C-13.32284804 12.46191993 -13.18455369 10.41373244 -12.5546875 6.96875 C-11.79813201 4.28351081 -10.68060018 2.21839224 -9 0 C-5.85000502 -1.57499749 -3.36459118 -0.70833498 0 0 Z " fill="#55A365" transform="translate(898,1203)"/>
<path d="M0 0 C3.35512268 3.27124461 4.26167905 6.12961181 4.5 10.6875 C4.34946684 13.66805648 4.2548016 14.67659796 2.375 17.0625 C-0.73578724 18.29044233 -2.68453042 18.55257826 -6 18 C-9.50196244 14.40338992 -10.93211295 12.06922097 -11.25 7.0625 C-11.19620396 4.59236504 -11.11352032 3.22704063 -10 1 C-6.69924166 -0.65037917 -3.52900648 -0.852074 0 0 Z " fill="#54A264" transform="translate(1167,1195)"/>
<path d="M0 0 C3.90008977 1.877821 5.60330628 2.87992361 7.0625 7 C7 10 7 10 6.125 12.375 C3.17259575 14.6327209 0.86709927 14.49009704 -2.7734375 14.3359375 C-6.16488858 13.82424488 -8.59291827 12.40708173 -11 10 C-11.39152344 6.47628908 -11.41041808 4.62383549 -9.4375 1.625 C-6.03503891 -0.64330739 -4.02281242 -0.55487068 0 0 Z " fill="#56A365" transform="translate(1449,904)"/>
<path d="M0 0 C3.12928285 0.9903971 4.67834083 2.28240151 7.00390625 4.58203125 C7.71289062 5.2575 8.421875 5.93296875 9.15234375 6.62890625 C10.62890625 8.83203125 10.62890625 8.83203125 10.4296875 11.484375 C9.5214382 14.14709612 8.98723166 15.2869215 6.62890625 16.83203125 C3.5923589 17.37186189 1.60794185 17.4439285 -1.05859375 15.77734375 C-4.46582126 13.0089714 -6.20741501 11.33787565 -6.68359375 6.95703125 C-6.37109375 3.83203125 -6.37109375 3.83203125 -4.68359375 1.39453125 C-2.37109375 -0.16796875 -2.37109375 -0.16796875 0 0 Z " fill="#54A263" transform="translate(1353.37109375,1066.16796875)"/>
<path d="M0 0 C2.875 1.0625 2.875 1.0625 4.75 2.5625 C6.4874501 6.42350021 6.06066629 9.85406404 5.875 14.0625 C1.255 14.0625 -3.365 14.0625 -8.125 14.0625 C-8.73022152 5.95253165 -8.73022152 5.95253165 -6 1.9375 C-3.125 0.0625 -3.125 0.0625 0 0 Z " fill="#F8FBF8" transform="translate(1001.125,625.9375)"/>
<path d="M0 0 C2.4377963 -0.05397335 4.87439685 -0.09365616 7.3125 -0.125 C8.00279297 -0.14175781 8.69308594 -0.15851562 9.40429688 -0.17578125 C13.17135396 -0.21217794 14.78431704 -0.14378864 18 2 C16.42489875 3.48792961 14.83959136 4.9650606 13.25 6.4375 C11.92742188 7.67306641 11.92742188 7.67306641 10.578125 8.93359375 C8.21124968 10.83068018 6.9490809 11.62102932 4 12 C3.51801537 10.75108386 3.03954323 9.50081192 2.5625 8.25 C2.29566406 7.55390625 2.02882813 6.8578125 1.75390625 6.140625 C1.03853307 4.10940997 0.48634348 2.0964709 0 0 Z " fill="#53A163" transform="translate(587,907)"/>
<path d="M0 0 C0.8146875 0.00257812 1.629375 0.00515625 2.46875 0.0078125 C3.2834375 0.00523438 4.098125 0.00265625 4.9375 0 C6.96875 0.1328125 6.96875 0.1328125 7.96875 1.1328125 C8.10990161 3.80340101 8.01122107 6.45713488 7.96875 9.1328125 C5.01210481 10.6111351 2.22645263 10.19314033 -1.03125 10.1328125 C-2.88189319 7.00985212 -3.32481154 4.75340482 -3.03125 1.1328125 C-2.03125 0.1328125 -2.03125 0.1328125 0 0 Z " fill="#F4F9F5" transform="translate(762.03125,1113.8671875)"/>
<path d="M0 0 C3.0190678 5.31355932 3.0190678 5.31355932 2.9375 8.25 C1.64541703 10.66188821 0.60605941 11.20370407 -2 12 C-4.625 11.875 -4.625 11.875 -7 11 C-9.09862498 8.10189884 -9 6.71621139 -9 3 C-2.25 0 -2.25 0 0 0 Z " fill="#F5F9F6" transform="translate(1414,927)"/>
<path d="M0 0 C3 5.625 3 5.625 3 9 C-2.28 12 -2.28 12 -5.25 12 C-7 11 -7 11 -8.3125 8.6875 C-9.03883895 5.84817502 -9.34543669 4.60117761 -8 2 C-5.10888212 0.47835901 -3.28176588 0 0 0 Z " fill="#F7FAF7" transform="translate(874,1170)"/>
<path d="M0 0 C1.47906892 -0.02689216 2.95827483 -0.04634621 4.4375 -0.0625 C5.26121094 -0.07410156 6.08492187 -0.08570313 6.93359375 -0.09765625 C9 0 9 0 10 1 C9.8229564 4.02116333 9.38079097 6.99598232 9 10 C6.03 10 3.06 10 0 10 C-1.00000429 5.99998285 -0.80688405 3.94476647 0 0 Z " fill="#F5F9F6" transform="translate(1279,1102)"/>
<path d="M0 0 C6.93359375 -0.09765625 6.93359375 -0.09765625 9 0 C10 1 10 1 10.09765625 3.06640625 C10.06510417 5.37760417 10.03255208 7.68880208 10 10 C6.7 10 3.4 10 0 10 C0 6.7 0 3.4 0 0 Z " fill="#F8FBF8" transform="translate(723,1083)"/>
<path d="M0 0 C-0.3125 2.875 -0.3125 2.875 -1 6 C-4.22213757 8.14809171 -5.27775401 8.29386153 -9 8 C-10 7 -10 7 -10.25 4.5625 C-10.1675 3.716875 -10.085 2.87125 -10 2 C-6.3558226 -0.4294516 -4.28758728 -0.16179575 0 0 Z " fill="#5AA56A" transform="translate(1037,1230)"/>
<path d="M0 0 C-0.50740462 4.39750672 -3.08293314 6.86948922 -6 10 C-6.66 10 -7.32 10 -8 10 C-9.39935013 7.20129973 -9.25265405 5.09501208 -9 2 C-6.6888271 -1.98035333 -4.06268971 -0.99310193 0 0 Z " fill="#59A568" transform="translate(1382,1034)"/>
<path d="M0 0 C3.94727588 -0.17942163 6.5980513 -0.09350689 10 2 C8.125 5.875 8.125 5.875 7 7 C4.0625 7.1875 4.0625 7.1875 1 7 C0.34 6.34 -0.32 5.68 -1 5 C-0.625 2.375 -0.625 2.375 0 0 Z " fill="#54A263" transform="translate(798,1177)"/>
<path d="M0 0 C-2.49493496 2.81631641 -5.26562818 4.40955981 -8.5625 6.1875 C-9.53316406 6.71730469 -10.50382813 7.24710937 -11.50390625 7.79296875 C-14 9 -14 9 -16 9 C-16.33 9.66 -16.66 10.32 -17 11 C-16.8984375 8.7421875 -16.8984375 8.7421875 -16 6 C-13.1640625 3.9453125 -13.1640625 3.9453125 -9.625 2.125 C-8.46226562 1.50882812 -7.29953125 0.89265625 -6.1015625 0.2578125 C-3 -1 -3 -1 0 0 Z " fill="#EBF4EC" transform="translate(809,337)"/>
<path d="M0 0 C3.63 0 7.26 0 11 0 C11 0.99 11 1.98 11 3 C7.7 3 4.4 3 1 3 C0.67 2.01 0.34 1.02 0 0 Z " fill="#E9F3EB" transform="translate(1427,655)"/>
<path d="M0 0 C1.32257813 0.19142578 1.32257813 0.19142578 2.671875 0.38671875 C4.00992187 0.56654297 4.00992187 0.56654297 5.375 0.75 C6.05046875 0.85699219 6.7259375 0.96398437 7.421875 1.07421875 C7.421875 2.06421875 7.421875 3.05421875 7.421875 4.07421875 C0.491875 3.57921875 0.491875 3.57921875 -6.578125 3.07421875 C-2.578125 0.07421875 -2.578125 0.07421875 0 0 Z " fill="#D7E9DB" transform="translate(1074.578125,357.92578125)"/>
<path d="M0 0 C1.32257813 0.19142578 1.32257813 0.19142578 2.671875 0.38671875 C4.00992187 0.56654297 4.00992187 0.56654297 5.375 0.75 C6.05046875 0.85699219 6.7259375 0.96398437 7.421875 1.07421875 C7.421875 2.06421875 7.421875 3.05421875 7.421875 4.07421875 C0.491875 3.57921875 0.491875 3.57921875 -6.578125 3.07421875 C-2.578125 0.07421875 -2.578125 0.07421875 0 0 Z " fill="#DCEBDF" transform="translate(1082.578125,292.92578125)"/>
<path d="M0 0 C0.33 1.32 0.66 2.64 1 4 C0.67 3.34 0.34 2.68 0 2 C-2.64 2.33 -5.28 2.66 -8 3 C-8 2.01 -8 1.02 -8 0 C-4.94736336 -0.98120464 -3.05263664 -0.98120464 0 0 Z " fill="#DDECE0" transform="translate(907,302)"/>
<path d="M0 0 C0.99 0.33 1.98 0.66 3 1 C3.33 2.65 3.66 4.3 4 6 C3.34 6 2.68 6 2 6 C2 8.31 2 10.62 2 13 C1.67 13 1.34 13 1 13 C0.67 8.71 0.34 4.42 0 0 Z " fill="#D4E7D8" transform="translate(831,377)"/>
<path d="M0 0 C0.33 1.32 0.66 2.64 1 4 C-1.31 3.01 -3.62 2.02 -6 1 C-6.33 2.32 -6.66 3.64 -7 5 C-7 3.35 -7 1.7 -7 0 C-4.3333581 -1.33332095 -2.83319697 -0.67102033 0 0 Z " fill="#DFEDE2" transform="translate(1218,333)"/>
<path d="M0 0 C0.66 0.33 1.32 0.66 2 1 C-2.75 6.75 -2.75 6.75 -5 9 C-5.66 9 -6.32 9 -7 9 C-5.44499019 5.18315774 -2.96404505 2.80804268 0 0 Z " fill="#ECF5EE" transform="translate(664,440)"/>
<path d="M0 0 C0.99 0.33 1.98 0.66 3 1 C2.34 1 1.68 1 1 1 C0.34 3.31 -0.32 5.62 -1 8 C-1.66 7.67 -2.32 7.34 -3 7 C-2.625 4.0625 -2.625 4.0625 -2 1 C-1.34 0.67 -0.68 0.34 0 0 Z " fill="#EDF5EF" transform="translate(548,560)"/>
<path d="M0 0 C0 0.99 0 1.98 0 3 C-1.98 3.33 -3.96 3.66 -6 4 C-6 3.34 -6 2.68 -6 2 C-6.66 1.67 -7.32 1.34 -8 1 C-5.23735711 0.40267181 -2.83967231 0 0 0 Z " fill="#DEEDE1" transform="translate(954,358)"/>
<path d="M0 0 C1 3 1 3 0.0625 5.1875 C-0.4634375 6.0846875 -0.4634375 6.0846875 -1 7 C-1.66 7 -2.32 7 -3 7 C-2.625 4.0625 -2.625 4.0625 -2 1 C-1.34 0.67 -0.68 0.34 0 0 Z " fill="#F2F8F3" transform="translate(615,659)"/>
</svg>
